<mxfile host="65bd71144e">
    <diagram id="kyKfuTQT1NKWtTCT0kHq" name="Plan">
        <mxGraphModel dx="1600" dy="988" grid="1" gridSize="10" guides="1" tooltips="1" connect="1" arrows="1" fold="1" page="1" pageScale="1" pageWidth="1600" pageHeight="900" background="none" math="0" shadow="0">
            <root>
                <mxCell id="0"/>
                <mxCell id="1" parent="0"/>
                <mxCell id="3" value="Step 2" style="text;html=1;align=center;verticalAlign=middle;resizable=0;points=[];autosize=1;strokeColor=none;fillColor=none;" parent="1" vertex="1">
                    <mxGeometry x="675" y="160" width="60" height="30" as="geometry"/>
                </mxCell>
                <mxCell id="Y8Kdle4vmjM73s8Rk7w3-14" value="Bilde av film med Tittel" style="rounded=0;whiteSpace=wrap;html=1;" parent="1" vertex="1">
                    <mxGeometry x="230" y="220" width="220" height="240" as="geometry"/>
                </mxCell>
                <mxCell id="5" value="Step 3" style="text;html=1;align=center;verticalAlign=middle;resizable=0;points=[];autosize=1;strokeColor=none;fillColor=none;" parent="1" vertex="1">
                    <mxGeometry x="1070" y="160" width="60" height="30" as="geometry"/>
                </mxCell>
                <mxCell id="Y8Kdle4vmjM73s8Rk7w3-19" style="edgeStyle=none;html=1;exitX=1;exitY=0.5;exitDx=0;exitDy=0;" parent="1" source="Y8Kdle4vmjM73s8Rk7w3-17" edge="1">
                    <mxGeometry relative="1" as="geometry">
                        <mxPoint x="960" y="340" as="targetPoint"/>
                    </mxGeometry>
                </mxCell>
                <mxCell id="Y8Kdle4vmjM73s8Rk7w3-17" value="Hover:&lt;br&gt;&lt;br&gt;BIlde av film med tittel, sjanger" style="rounded=0;whiteSpace=wrap;html=1;" parent="1" vertex="1">
                    <mxGeometry x="610" y="220" width="190" height="240" as="geometry"/>
                </mxCell>
                <mxCell id="Y8Kdle4vmjM73s8Rk7w3-18" value="Rating, Årstall" style="rounded=0;whiteSpace=wrap;html=1;" parent="1" vertex="1">
                    <mxGeometry x="610" y="460" width="190" height="70" as="geometry"/>
                </mxCell>
                <mxCell id="Y8Kdle4vmjM73s8Rk7w3-20" value="Onclick --&amp;gt; Ny side: Bilde av film med tittel, beskrivelse, sjanger, årstall, rating" style="rounded=0;whiteSpace=wrap;html=1;" parent="1" vertex="1">
                    <mxGeometry x="980" y="220" width="240" height="320" as="geometry"/>
                </mxCell>
                <mxCell id="Y8Kdle4vmjM73s8Rk7w3-21" value="Kommmetarthread" style="rounded=0;whiteSpace=wrap;html=1;fillColor=#b0e3e6;strokeColor=#0e8088;" parent="1" vertex="1">
                    <mxGeometry x="980" y="420" width="240" height="120" as="geometry"/>
                </mxCell>
                <mxCell id="2" value="Step 1" style="text;html=1;align=center;verticalAlign=middle;resizable=0;points=[];autosize=1;strokeColor=none;fillColor=none;" parent="1" vertex="1">
                    <mxGeometry x="310" y="160" width="60" height="30" as="geometry"/>
                </mxCell>
                <mxCell id="Y8Kdle4vmjM73s8Rk7w3-15" style="edgeStyle=none;html=1;exitX=1;exitY=0.5;exitDx=0;exitDy=0;" parent="1" source="Y8Kdle4vmjM73s8Rk7w3-14" edge="1">
                    <mxGeometry relative="1" as="geometry">
                        <mxPoint x="600" y="340" as="targetPoint"/>
                    </mxGeometry>
                </mxCell>
            </root>
        </mxGraphModel>
    </diagram>
    <diagram id="oL3h1lyF5Amuo768nRaM" name="Main page - Home">
        <mxGraphModel dx="3200" dy="1976" grid="1" gridSize="10" guides="1" tooltips="1" connect="1" arrows="1" fold="1" page="1" pageScale="1" pageWidth="5000" pageHeight="600" background="none" math="0" shadow="0">
            <root>
                <mxCell id="0"/>
                <mxCell id="1" parent="0"/>
                <mxCell id="8Aa957S7UhUCIsyGFWxC-4" value="" style="group;movable=0;resizable=0;rotatable=0;deletable=0;editable=0;connectable=0;" parent="1" vertex="1" connectable="0">
                    <mxGeometry width="1950" height="1800" as="geometry"/>
                </mxCell>
                <mxCell id="2XFCxYoxILgEwOEN-wg7-1" value="" style="rounded=0;whiteSpace=wrap;html=1;fillColor=#4D4D4D;fontColor=#ffffff;strokeColor=#314354;" parent="8Aa957S7UhUCIsyGFWxC-4" vertex="1">
                    <mxGeometry width="1950" height="1800" as="geometry"/>
                </mxCell>
                <mxCell id="2XFCxYoxILgEwOEN-wg7-2" value="" style="rounded=0;whiteSpace=wrap;html=1;strokeColor=none;" parent="8Aa957S7UhUCIsyGFWxC-4" vertex="1">
                    <mxGeometry width="1950" height="150" as="geometry"/>
                </mxCell>
                <mxCell id="2XFCxYoxILgEwOEN-wg7-38" value="" style="rounded=0;whiteSpace=wrap;html=1;fontSize=15;opacity=60;strokeColor=none;gradientColor=#333333;" parent="8Aa957S7UhUCIsyGFWxC-4" vertex="1">
                    <mxGeometry y="150" width="1950" height="550" as="geometry"/>
                </mxCell>
                <mxCell id="2XFCxYoxILgEwOEN-wg7-15" value="&lt;font style=&quot;&quot;&gt;&lt;span style=&quot;font-weight: bold; font-size: 20px;&quot;&gt;Tittel&lt;/span&gt;&lt;br&gt;&lt;font color=&quot;#1a1a1a&quot; style=&quot;font-size: 15px;&quot;&gt;Sjanger, Årstall, Rating&lt;/font&gt;&lt;br&gt;&lt;/font&gt;" style="html=1;shadow=0;dashed=0;shape=mxgraph.bootstrap.rrect;rSize=5;strokeColor=#DFDFDF;html=1;whiteSpace=wrap;fillColor=#ffffff;fontColor=#000000;verticalAlign=bottom;align=left;spacing=20;fontSize=14;movable=0;resizable=0;rotatable=0;deletable=0;editable=0;connectable=0;" parent="8Aa957S7UhUCIsyGFWxC-4" vertex="1">
                    <mxGeometry x="960" y="230" width="250" height="260" as="geometry"/>
                </mxCell>
                <mxCell id="2XFCxYoxILgEwOEN-wg7-16" value="Image cap" style="html=1;shadow=0;dashed=0;shape=mxgraph.bootstrap.topButton;rSize=5;perimeter=none;whiteSpace=wrap;fillColor=#868E96;strokeColor=#DFDFDF;fontColor=#DEE2E6;resizeWidth=1;fontSize=18;movable=0;resizable=0;rotatable=0;deletable=0;editable=0;connectable=0;" parent="2XFCxYoxILgEwOEN-wg7-15" vertex="1">
                    <mxGeometry width="250" height="180" relative="1" as="geometry"/>
                </mxCell>
                <mxCell id="2XFCxYoxILgEwOEN-wg7-17" value="&lt;font style=&quot;&quot;&gt;&lt;span style=&quot;font-weight: bold; font-size: 20px;&quot;&gt;Tittel&lt;/span&gt;&lt;br&gt;&lt;font color=&quot;#1a1a1a&quot; style=&quot;font-size: 15px;&quot;&gt;Sjanger, Årstall, Rating&lt;/font&gt;&lt;br&gt;&lt;/font&gt;" style="html=1;shadow=0;dashed=0;shape=mxgraph.bootstrap.rrect;rSize=5;strokeColor=#DFDFDF;html=1;whiteSpace=wrap;fillColor=#ffffff;fontColor=#000000;verticalAlign=bottom;align=left;spacing=20;fontSize=14;movable=0;resizable=0;rotatable=0;deletable=0;editable=0;connectable=0;" parent="8Aa957S7UhUCIsyGFWxC-4" vertex="1">
                    <mxGeometry x="1260" y="230" width="250" height="260" as="geometry"/>
                </mxCell>
                <mxCell id="2XFCxYoxILgEwOEN-wg7-18" value="Image cap" style="html=1;shadow=0;dashed=0;shape=mxgraph.bootstrap.topButton;rSize=5;perimeter=none;whiteSpace=wrap;fillColor=#868E96;strokeColor=#DFDFDF;fontColor=#DEE2E6;resizeWidth=1;fontSize=18;movable=0;resizable=0;rotatable=0;deletable=0;editable=0;connectable=0;" parent="2XFCxYoxILgEwOEN-wg7-17" vertex="1">
                    <mxGeometry width="250" height="180" relative="1" as="geometry"/>
                </mxCell>
                <mxCell id="2XFCxYoxILgEwOEN-wg7-19" value="&lt;font style=&quot;&quot;&gt;&lt;span style=&quot;font-weight: bold; font-size: 20px;&quot;&gt;Tittel&lt;/span&gt;&lt;br&gt;&lt;font color=&quot;#1a1a1a&quot; style=&quot;font-size: 15px;&quot;&gt;Sjanger, Årstall&lt;/font&gt;&lt;br&gt;&lt;/font&gt;" style="html=1;shadow=0;dashed=0;shape=mxgraph.bootstrap.rrect;rSize=5;strokeColor=#DFDFDF;html=1;whiteSpace=wrap;fillColor=#ffffff;fontColor=#000000;verticalAlign=bottom;align=left;spacing=20;fontSize=14;movable=0;resizable=0;rotatable=0;deletable=0;editable=0;connectable=0;" parent="8Aa957S7UhUCIsyGFWxC-4" vertex="1">
                    <mxGeometry x="1550" y="230" width="250" height="260" as="geometry"/>
                </mxCell>
                <mxCell id="2XFCxYoxILgEwOEN-wg7-20" value="Image cap" style="html=1;shadow=0;dashed=0;shape=mxgraph.bootstrap.topButton;rSize=5;perimeter=none;whiteSpace=wrap;fillColor=#868E96;strokeColor=#DFDFDF;fontColor=#DEE2E6;resizeWidth=1;fontSize=18;movable=0;resizable=0;rotatable=0;deletable=0;editable=0;connectable=0;" parent="2XFCxYoxILgEwOEN-wg7-19" vertex="1">
                    <mxGeometry width="250" height="180" relative="1" as="geometry"/>
                </mxCell>
                <mxCell id="2XFCxYoxILgEwOEN-wg7-25" value="&lt;font style=&quot;&quot;&gt;&lt;span style=&quot;font-weight: bold; font-size: 20px;&quot;&gt;Tittel&lt;/span&gt;&lt;br&gt;&lt;font color=&quot;#1a1a1a&quot; style=&quot;font-size: 15px;&quot;&gt;Sjanger, Årstall, Rating&lt;/font&gt;&lt;br&gt;&lt;/font&gt;" style="html=1;shadow=0;dashed=0;shape=mxgraph.bootstrap.rrect;rSize=5;strokeColor=#DFDFDF;html=1;whiteSpace=wrap;fillColor=#ffffff;fontColor=#000000;verticalAlign=bottom;align=left;spacing=20;fontSize=14;movable=0;resizable=0;rotatable=0;deletable=0;editable=0;connectable=0;" parent="8Aa957S7UhUCIsyGFWxC-4" vertex="1">
                    <mxGeometry x="670" y="230" width="250" height="260" as="geometry"/>
                </mxCell>
                <mxCell id="2XFCxYoxILgEwOEN-wg7-26" value="Image cap" style="html=1;shadow=0;dashed=0;shape=mxgraph.bootstrap.topButton;rSize=5;perimeter=none;whiteSpace=wrap;fillColor=#868E96;strokeColor=#DFDFDF;fontColor=#DEE2E6;resizeWidth=1;fontSize=18;movable=0;resizable=0;rotatable=0;deletable=0;editable=0;connectable=0;" parent="2XFCxYoxILgEwOEN-wg7-25" vertex="1">
                    <mxGeometry width="250" height="180" relative="1" as="geometry"/>
                </mxCell>
                <mxCell id="2XFCxYoxILgEwOEN-wg7-27" value="" style="html=1;shadow=0;dashed=0;shape=mxgraph.bootstrap.rrect;rSize=5;strokeColor=#DFDFDF;html=1;whiteSpace=wrap;fillColor=#ffffff;fontColor=#000000;verticalAlign=bottom;align=left;spacing=20;spacingBottom=130;fontSize=14;" parent="8Aa957S7UhUCIsyGFWxC-4" vertex="1">
                    <mxGeometry x="390" y="230" width="250" height="410" as="geometry"/>
                </mxCell>
                <mxCell id="2XFCxYoxILgEwOEN-wg7-28" value="Image cap" style="html=1;shadow=0;dashed=0;shape=mxgraph.bootstrap.topButton;rSize=5;perimeter=none;whiteSpace=wrap;fillColor=#868E96;strokeColor=#DFDFDF;fontColor=#DEE2E6;resizeWidth=1;fontSize=18;" parent="2XFCxYoxILgEwOEN-wg7-27" vertex="1">
                    <mxGeometry width="250" height="180" relative="1" as="geometry"/>
                </mxCell>
                <mxCell id="2XFCxYoxILgEwOEN-wg7-29" value="&lt;b&gt;&lt;font style=&quot;font-size: 20px&quot;&gt;Tittel&lt;/font&gt;&lt;/b&gt;&lt;br style=&quot;font-size: 14px&quot;&gt;Sjanger, Årstall, Rating&lt;br style=&quot;font-size: 14px&quot;&gt;&lt;br&gt;Den filmen handler om blah blah blah blah blah blah" style="perimeter=none;html=1;whiteSpace=wrap;fillColor=none;strokeColor=none;resizeWidth=1;verticalAlign=top;align=left;spacing=20;spacingTop=-10;fontSize=14;fontColor=#1A1A1A;" parent="2XFCxYoxILgEwOEN-wg7-27" vertex="1">
                    <mxGeometry width="250" height="120" relative="1" as="geometry">
                        <mxPoint y="180" as="offset"/>
                    </mxGeometry>
                </mxCell>
                <mxCell id="2XFCxYoxILgEwOEN-wg7-30" value="Laget av : Han fyren" style="html=1;shadow=0;dashed=0;strokeColor=none;fontSize=14;fillColor=none;perimeter=none;whiteSpace=wrap;resizeWidth=1;align=left;spacing=10;fontColor=#1A1A1A;" parent="2XFCxYoxILgEwOEN-wg7-27" vertex="1">
                    <mxGeometry width="250" height="30" relative="1" as="geometry">
                        <mxPoint y="300" as="offset"/>
                    </mxGeometry>
                </mxCell>
                <mxCell id="2XFCxYoxILgEwOEN-wg7-31" value="Hovedroller : Den fyren, Ho der" style="strokeColor=inherit;fillColor=inherit;gradientColor=inherit;fontColor=inherit;html=1;shadow=0;dashed=0;perimeter=none;fontSize=14;whiteSpace=wrap;resizeWidth=1;align=left;spacing=10;" parent="2XFCxYoxILgEwOEN-wg7-27" vertex="1">
                    <mxGeometry width="250" height="30" relative="1" as="geometry">
                        <mxPoint y="330" as="offset"/>
                    </mxGeometry>
                </mxCell>
                <mxCell id="2XFCxYoxILgEwOEN-wg7-33" value="Se filmen her:" style="html=1;shadow=0;dashed=0;shape=mxgraph.bootstrap.rrect;rSize=5;perimeter=none;whiteSpace=wrap;fillColor=none;strokeColor=none;fontColor=#0085FC;resizeWidth=1;fontSize=14;align=center;" parent="2XFCxYoxILgEwOEN-wg7-27" vertex="1">
                    <mxGeometry y="1" width="230" height="40" relative="1" as="geometry">
                        <mxPoint x="10" y="-50" as="offset"/>
                    </mxGeometry>
                </mxCell>
                <mxCell id="2XFCxYoxILgEwOEN-wg7-35" value="&lt;font style=&quot;&quot;&gt;&lt;span style=&quot;font-weight: bold; font-size: 20px;&quot;&gt;Tittel&lt;/span&gt;&lt;br&gt;&lt;font color=&quot;#1a1a1a&quot; style=&quot;font-size: 15px;&quot;&gt;Sjanger, Årstall, Rating&lt;/font&gt;&lt;br&gt;&lt;/font&gt;" style="html=1;shadow=0;dashed=0;shape=mxgraph.bootstrap.rrect;rSize=5;strokeColor=#DFDFDF;html=1;whiteSpace=wrap;fillColor=#ffffff;fontColor=#000000;verticalAlign=bottom;align=left;spacing=20;fontSize=14;" parent="8Aa957S7UhUCIsyGFWxC-4" vertex="1">
                    <mxGeometry x="110" y="230" width="250" height="260" as="geometry"/>
                </mxCell>
                <mxCell id="2XFCxYoxILgEwOEN-wg7-36" value="Image cap" style="html=1;shadow=0;dashed=0;shape=mxgraph.bootstrap.topButton;rSize=5;perimeter=none;whiteSpace=wrap;fillColor=#868E96;strokeColor=#DFDFDF;fontColor=#DEE2E6;resizeWidth=1;fontSize=18;" parent="2XFCxYoxILgEwOEN-wg7-35" vertex="1">
                    <mxGeometry width="250" height="180" relative="1" as="geometry"/>
                </mxCell>
                <mxCell id="2XFCxYoxILgEwOEN-wg7-39" value="&lt;b&gt;&lt;font color=&quot;#ffffff&quot; style=&quot;font-size: 44px;&quot;&gt;For deg:&lt;/font&gt;&lt;/b&gt;" style="text;html=1;strokeColor=none;fillColor=none;align=left;verticalAlign=middle;whiteSpace=wrap;rounded=0;fontSize=15;fontColor=#1A1A1A;opacity=60;" parent="8Aa957S7UhUCIsyGFWxC-4" vertex="1">
                    <mxGeometry x="30" y="170" width="210" height="50" as="geometry"/>
                </mxCell>
                <mxCell id="2XFCxYoxILgEwOEN-wg7-79" value="" style="rounded=0;whiteSpace=wrap;html=1;fontSize=15;opacity=60;strokeColor=none;gradientColor=#333333;" parent="8Aa957S7UhUCIsyGFWxC-4" vertex="1">
                    <mxGeometry y="730" width="1950" height="400" as="geometry"/>
                </mxCell>
                <mxCell id="2XFCxYoxILgEwOEN-wg7-60" value="&lt;font style=&quot;&quot;&gt;&lt;span style=&quot;font-weight: bold; font-size: 20px;&quot;&gt;Tittel&lt;/span&gt;&lt;br&gt;&lt;font color=&quot;#1a1a1a&quot; style=&quot;font-size: 15px;&quot;&gt;Sjanger, Årstall, Rating&lt;/font&gt;&lt;br&gt;&lt;/font&gt;" style="html=1;shadow=0;dashed=0;shape=mxgraph.bootstrap.rrect;rSize=5;strokeColor=#DFDFDF;html=1;whiteSpace=wrap;fillColor=#ffffff;fontColor=#000000;verticalAlign=bottom;align=left;spacing=20;fontSize=14;movable=0;resizable=0;rotatable=0;deletable=0;editable=0;connectable=0;" parent="8Aa957S7UhUCIsyGFWxC-4" vertex="1">
                    <mxGeometry x="980" y="810" width="250" height="260" as="geometry"/>
                </mxCell>
                <mxCell id="2XFCxYoxILgEwOEN-wg7-61" value="Image cap" style="html=1;shadow=0;dashed=0;shape=mxgraph.bootstrap.topButton;rSize=5;perimeter=none;whiteSpace=wrap;fillColor=#868E96;strokeColor=#DFDFDF;fontColor=#DEE2E6;resizeWidth=1;fontSize=18;movable=0;resizable=0;rotatable=0;deletable=0;editable=0;connectable=0;" parent="2XFCxYoxILgEwOEN-wg7-60" vertex="1">
                    <mxGeometry width="250" height="180" relative="1" as="geometry"/>
                </mxCell>
                <mxCell id="2XFCxYoxILgEwOEN-wg7-62" value="&lt;font style=&quot;&quot;&gt;&lt;span style=&quot;font-weight: bold; font-size: 20px;&quot;&gt;Tittel&lt;/span&gt;&lt;br&gt;&lt;font color=&quot;#1a1a1a&quot; style=&quot;font-size: 15px;&quot;&gt;Sjanger, Årstall, Rating&lt;/font&gt;&lt;br&gt;&lt;/font&gt;" style="html=1;shadow=0;dashed=0;shape=mxgraph.bootstrap.rrect;rSize=5;strokeColor=#DFDFDF;html=1;whiteSpace=wrap;fillColor=#ffffff;fontColor=#000000;verticalAlign=bottom;align=left;spacing=20;fontSize=14;movable=0;resizable=0;rotatable=0;deletable=0;editable=0;connectable=0;" parent="8Aa957S7UhUCIsyGFWxC-4" vertex="1">
                    <mxGeometry x="1280" y="810" width="250" height="260" as="geometry"/>
                </mxCell>
                <mxCell id="2XFCxYoxILgEwOEN-wg7-63" value="Image cap" style="html=1;shadow=0;dashed=0;shape=mxgraph.bootstrap.topButton;rSize=5;perimeter=none;whiteSpace=wrap;fillColor=#868E96;strokeColor=#DFDFDF;fontColor=#DEE2E6;resizeWidth=1;fontSize=18;movable=0;resizable=0;rotatable=0;deletable=0;editable=0;connectable=0;" parent="2XFCxYoxILgEwOEN-wg7-62" vertex="1">
                    <mxGeometry width="250" height="180" relative="1" as="geometry"/>
                </mxCell>
                <mxCell id="2XFCxYoxILgEwOEN-wg7-64" value="&lt;font style=&quot;&quot;&gt;&lt;span style=&quot;font-weight: bold; font-size: 20px;&quot;&gt;Tittel&lt;/span&gt;&lt;br&gt;&lt;font color=&quot;#1a1a1a&quot; style=&quot;font-size: 15px;&quot;&gt;Sjanger, Årstall, Rating&lt;/font&gt;&lt;br&gt;&lt;/font&gt;" style="html=1;shadow=0;dashed=0;shape=mxgraph.bootstrap.rrect;rSize=5;strokeColor=#DFDFDF;html=1;whiteSpace=wrap;fillColor=#ffffff;fontColor=#000000;verticalAlign=bottom;align=left;spacing=20;fontSize=14;movable=0;resizable=0;rotatable=0;deletable=0;editable=0;connectable=0;" parent="8Aa957S7UhUCIsyGFWxC-4" vertex="1">
                    <mxGeometry x="1570" y="810" width="250" height="260" as="geometry"/>
                </mxCell>
                <mxCell id="2XFCxYoxILgEwOEN-wg7-65" value="Image cap" style="html=1;shadow=0;dashed=0;shape=mxgraph.bootstrap.topButton;rSize=5;perimeter=none;whiteSpace=wrap;fillColor=#868E96;strokeColor=#DFDFDF;fontColor=#DEE2E6;resizeWidth=1;fontSize=18;movable=0;resizable=0;rotatable=0;deletable=0;editable=0;connectable=0;" parent="2XFCxYoxILgEwOEN-wg7-64" vertex="1">
                    <mxGeometry width="250" height="180" relative="1" as="geometry"/>
                </mxCell>
                <mxCell id="2XFCxYoxILgEwOEN-wg7-66" value="&lt;font style=&quot;&quot;&gt;&lt;span style=&quot;font-weight: bold; font-size: 20px;&quot;&gt;Tittel&lt;/span&gt;&lt;br&gt;&lt;font color=&quot;#1a1a1a&quot; style=&quot;font-size: 15px;&quot;&gt;Sjanger, Årstall, Rating&lt;/font&gt;&lt;br&gt;&lt;/font&gt;" style="html=1;shadow=0;dashed=0;shape=mxgraph.bootstrap.rrect;rSize=5;strokeColor=#DFDFDF;html=1;whiteSpace=wrap;fillColor=#ffffff;fontColor=#000000;verticalAlign=bottom;align=left;spacing=20;fontSize=14;movable=0;resizable=0;rotatable=0;deletable=0;editable=0;connectable=0;" parent="8Aa957S7UhUCIsyGFWxC-4" vertex="1">
                    <mxGeometry x="690" y="810" width="250" height="260" as="geometry"/>
                </mxCell>
                <mxCell id="2XFCxYoxILgEwOEN-wg7-67" value="Image cap" style="html=1;shadow=0;dashed=0;shape=mxgraph.bootstrap.topButton;rSize=5;perimeter=none;whiteSpace=wrap;fillColor=#868E96;strokeColor=#DFDFDF;fontColor=#DEE2E6;resizeWidth=1;fontSize=18;movable=0;resizable=0;rotatable=0;deletable=0;editable=0;connectable=0;" parent="2XFCxYoxILgEwOEN-wg7-66" vertex="1">
                    <mxGeometry width="250" height="180" relative="1" as="geometry"/>
                </mxCell>
                <mxCell id="2XFCxYoxILgEwOEN-wg7-76" value="&lt;font style=&quot;&quot;&gt;&lt;span style=&quot;font-weight: bold; font-size: 20px;&quot;&gt;Tittel&lt;/span&gt;&lt;br&gt;&lt;font color=&quot;#1a1a1a&quot; style=&quot;font-size: 15px;&quot;&gt;Sjanger, Årstall, Rating : 931&lt;/font&gt;&lt;br&gt;&lt;/font&gt;" style="html=1;shadow=1;shape=mxgraph.bootstrap.rrect;rSize=5;strokeColor=#CCCC00;html=1;whiteSpace=wrap;fillColor=#ffffff;fontColor=#000000;verticalAlign=bottom;align=left;spacing=20;fontSize=14;strokeWidth=6;perimeterSpacing=10;" parent="8Aa957S7UhUCIsyGFWxC-4" vertex="1">
                    <mxGeometry x="130" y="810" width="250" height="260" as="geometry"/>
                </mxCell>
                <mxCell id="2XFCxYoxILgEwOEN-wg7-77" value="Image cap" style="html=1;shadow=0;dashed=0;shape=mxgraph.bootstrap.topButton;rSize=5;perimeter=none;whiteSpace=wrap;fillColor=#868E96;strokeColor=#DFDFDF;fontColor=#DEE2E6;resizeWidth=1;fontSize=18;" parent="2XFCxYoxILgEwOEN-wg7-76" vertex="1">
                    <mxGeometry width="250" height="180" relative="1" as="geometry"/>
                </mxCell>
                <mxCell id="2XFCxYoxILgEwOEN-wg7-78" value="&lt;font color=&quot;#ffffff&quot;&gt;&lt;span style=&quot;font-size: 44px;&quot;&gt;&lt;b&gt;Best Rating:&lt;/b&gt;&lt;/span&gt;&lt;/font&gt;" style="text;html=1;strokeColor=none;fillColor=none;align=left;verticalAlign=middle;whiteSpace=wrap;rounded=0;fontSize=15;fontColor=#1A1A1A;opacity=60;" parent="8Aa957S7UhUCIsyGFWxC-4" vertex="1">
                    <mxGeometry x="30" y="740" width="300" height="50" as="geometry"/>
                </mxCell>
                <mxCell id="2XFCxYoxILgEwOEN-wg7-80" value="&lt;font style=&quot;&quot;&gt;&lt;span style=&quot;font-weight: bold; font-size: 20px;&quot;&gt;Tittel&lt;/span&gt;&lt;br&gt;&lt;font color=&quot;#1a1a1a&quot; style=&quot;font-size: 15px;&quot;&gt;Sjanger, Årstall, Rating:&amp;nbsp; 974&lt;/font&gt;&lt;br&gt;&lt;/font&gt;" style="html=1;shadow=0;dashed=0;shape=mxgraph.bootstrap.rrect;rSize=5;strokeColor=#CCCC00;html=1;whiteSpace=wrap;fillColor=#ffffff;fontColor=#000000;verticalAlign=bottom;align=left;spacing=20;fontSize=14;strokeWidth=6;" parent="8Aa957S7UhUCIsyGFWxC-4" vertex="1">
                    <mxGeometry x="410" y="810" width="250" height="260" as="geometry"/>
                </mxCell>
                <mxCell id="2XFCxYoxILgEwOEN-wg7-81" value="Image cap" style="html=1;shadow=0;dashed=0;shape=mxgraph.bootstrap.topButton;rSize=5;perimeter=none;whiteSpace=wrap;fillColor=#868E96;strokeColor=#DFDFDF;fontColor=#DEE2E6;resizeWidth=1;fontSize=18;" parent="2XFCxYoxILgEwOEN-wg7-80" vertex="1">
                    <mxGeometry width="250" height="180" relative="1" as="geometry"/>
                </mxCell>
                <mxCell id="2XFCxYoxILgEwOEN-wg7-90" value="Logo" style="text;html=1;strokeColor=none;fillColor=none;align=center;verticalAlign=middle;whiteSpace=wrap;rounded=0;fontSize=44;fontColor=#FFFFFF;opacity=60;" parent="8Aa957S7UhUCIsyGFWxC-4" vertex="1">
                    <mxGeometry width="150" height="150" as="geometry"/>
                </mxCell>
                <mxCell id="2XFCxYoxILgEwOEN-wg7-91" value="&lt;font color=&quot;#4d4d4d&quot; style=&quot;font-size: 29px;&quot;&gt;&amp;nbsp; Search....&lt;/font&gt;" style="rounded=1;whiteSpace=wrap;html=1;fontSize=44;fontColor=#FFFFFF;fillColor=#4D4D4D;gradientColor=#333333;opacity=60;align=left;movable=0;resizable=0;rotatable=0;deletable=0;editable=0;connectable=0;" parent="8Aa957S7UhUCIsyGFWxC-4" vertex="1">
                    <mxGeometry x="570" y="50" width="730" height="60" as="geometry"/>
                </mxCell>
                <mxCell id="2XFCxYoxILgEwOEN-wg7-92" value="Home" style="html=1;shadow=0;dashed=0;shape=mxgraph.bootstrap.rrect;rSize=5;strokeColor=#0085FC;strokeWidth=1;fillColor=none;fontColor=#0085FC;whiteSpace=wrap;align=center;verticalAlign=middle;spacingLeft=0;fontStyle=0;fontSize=16;spacing=5;opacity=60;movable=0;resizable=0;rotatable=0;deletable=0;editable=0;connectable=0;" parent="8Aa957S7UhUCIsyGFWxC-4" vertex="1">
                    <mxGeometry x="1345" y="50" width="120" height="60" as="geometry"/>
                </mxCell>
                <mxCell id="2XFCxYoxILgEwOEN-wg7-93" value="Link" style="html=1;shadow=0;dashed=0;shape=mxgraph.bootstrap.rrect;rSize=5;strokeColor=none;strokeWidth=1;fillColor=none;fontColor=#0085FC;whiteSpace=wrap;align=center;verticalAlign=middle;spacingLeft=0;fontStyle=0;fontSize=16;spacing=5;opacity=60;movable=0;resizable=0;rotatable=0;deletable=0;editable=0;connectable=0;" parent="8Aa957S7UhUCIsyGFWxC-4" vertex="1">
                    <mxGeometry x="1470" y="40" width="130" height="80" as="geometry"/>
                </mxCell>
                <mxCell id="2XFCxYoxILgEwOEN-wg7-94" value="Link" style="html=1;shadow=0;dashed=0;shape=mxgraph.bootstrap.rrect;rSize=5;strokeColor=none;strokeWidth=1;fillColor=none;fontColor=#0085FC;whiteSpace=wrap;align=center;verticalAlign=middle;spacingLeft=0;fontStyle=0;fontSize=16;spacing=5;opacity=60;movable=0;resizable=0;rotatable=0;deletable=0;editable=0;connectable=0;" parent="8Aa957S7UhUCIsyGFWxC-4" vertex="1">
                    <mxGeometry x="1590" y="40" width="130" height="80" as="geometry"/>
                </mxCell>
                <mxCell id="FCp3dlXSkB_duG45m-Wk-1" value="" style="rounded=0;whiteSpace=wrap;html=1;fontSize=15;opacity=60;strokeColor=none;gradientColor=#333333;" parent="8Aa957S7UhUCIsyGFWxC-4" vertex="1">
                    <mxGeometry y="1170" width="1950" height="630" as="geometry"/>
                </mxCell>
                <mxCell id="FCp3dlXSkB_duG45m-Wk-2" value="&lt;font style=&quot;&quot;&gt;&lt;span style=&quot;font-weight: bold; font-size: 20px;&quot;&gt;Tittel&lt;/span&gt;&lt;br&gt;&lt;font color=&quot;#1a1a1a&quot; style=&quot;font-size: 15px;&quot;&gt;Sjanger, Årstall&lt;/font&gt;&lt;br&gt;&lt;/font&gt;" style="html=1;shadow=0;dashed=0;shape=mxgraph.bootstrap.rrect;rSize=5;strokeColor=#DFDFDF;html=1;whiteSpace=wrap;fillColor=#ffffff;fontColor=#000000;verticalAlign=bottom;align=left;spacing=20;fontSize=14;movable=0;resizable=0;rotatable=0;deletable=0;editable=0;connectable=0;" parent="8Aa957S7UhUCIsyGFWxC-4" vertex="1">
                    <mxGeometry x="980" y="1250" width="250" height="260" as="geometry"/>
                </mxCell>
                <mxCell id="FCp3dlXSkB_duG45m-Wk-3" value="Image cap" style="html=1;shadow=0;dashed=0;shape=mxgraph.bootstrap.topButton;rSize=5;perimeter=none;whiteSpace=wrap;fillColor=#868E96;strokeColor=#DFDFDF;fontColor=#DEE2E6;resizeWidth=1;fontSize=18;movable=0;resizable=0;rotatable=0;deletable=0;editable=0;connectable=0;" parent="FCp3dlXSkB_duG45m-Wk-2" vertex="1">
                    <mxGeometry width="250" height="180" relative="1" as="geometry"/>
                </mxCell>
                <mxCell id="FCp3dlXSkB_duG45m-Wk-4" value="&lt;font style=&quot;&quot;&gt;&lt;span style=&quot;font-weight: bold; font-size: 20px;&quot;&gt;Tittel&lt;/span&gt;&lt;br&gt;&lt;font color=&quot;#1a1a1a&quot; style=&quot;font-size: 15px;&quot;&gt;Sjanger, Årstall&lt;/font&gt;&lt;br&gt;&lt;/font&gt;" style="html=1;shadow=0;dashed=0;shape=mxgraph.bootstrap.rrect;rSize=5;strokeColor=#DFDFDF;html=1;whiteSpace=wrap;fillColor=#ffffff;fontColor=#000000;verticalAlign=bottom;align=left;spacing=20;fontSize=14;movable=0;resizable=0;rotatable=0;deletable=0;editable=0;connectable=0;" parent="8Aa957S7UhUCIsyGFWxC-4" vertex="1">
                    <mxGeometry x="1280" y="1250" width="250" height="260" as="geometry"/>
                </mxCell>
                <mxCell id="FCp3dlXSkB_duG45m-Wk-5" value="Image cap" style="html=1;shadow=0;dashed=0;shape=mxgraph.bootstrap.topButton;rSize=5;perimeter=none;whiteSpace=wrap;fillColor=#868E96;strokeColor=#DFDFDF;fontColor=#DEE2E6;resizeWidth=1;fontSize=18;movable=0;resizable=0;rotatable=0;deletable=0;editable=0;connectable=0;" parent="FCp3dlXSkB_duG45m-Wk-4" vertex="1">
                    <mxGeometry width="250" height="180" relative="1" as="geometry"/>
                </mxCell>
                <mxCell id="FCp3dlXSkB_duG45m-Wk-6" value="&lt;font style=&quot;&quot;&gt;&lt;span style=&quot;font-weight: bold; font-size: 20px;&quot;&gt;Tittel&lt;/span&gt;&lt;br&gt;&lt;font color=&quot;#1a1a1a&quot; style=&quot;font-size: 15px;&quot;&gt;Sjanger, Årstall&lt;/font&gt;&lt;br&gt;&lt;/font&gt;" style="html=1;shadow=0;dashed=0;shape=mxgraph.bootstrap.rrect;rSize=5;strokeColor=#DFDFDF;html=1;whiteSpace=wrap;fillColor=#ffffff;fontColor=#000000;verticalAlign=bottom;align=left;spacing=20;fontSize=14;movable=0;resizable=0;rotatable=0;deletable=0;editable=0;connectable=0;" parent="8Aa957S7UhUCIsyGFWxC-4" vertex="1">
                    <mxGeometry x="1570" y="1250" width="250" height="260" as="geometry"/>
                </mxCell>
                <mxCell id="FCp3dlXSkB_duG45m-Wk-7" value="Image cap" style="html=1;shadow=0;dashed=0;shape=mxgraph.bootstrap.topButton;rSize=5;perimeter=none;whiteSpace=wrap;fillColor=#868E96;strokeColor=#DFDFDF;fontColor=#DEE2E6;resizeWidth=1;fontSize=18;movable=0;resizable=0;rotatable=0;deletable=0;editable=0;connectable=0;" parent="FCp3dlXSkB_duG45m-Wk-6" vertex="1">
                    <mxGeometry width="250" height="180" relative="1" as="geometry"/>
                </mxCell>
                <mxCell id="FCp3dlXSkB_duG45m-Wk-8" value="&lt;font style=&quot;&quot;&gt;&lt;span style=&quot;font-weight: bold; font-size: 20px;&quot;&gt;Tittel&lt;/span&gt;&lt;br&gt;&lt;font color=&quot;#1a1a1a&quot; style=&quot;font-size: 15px;&quot;&gt;Sjanger, Årstall&lt;/font&gt;&lt;br&gt;&lt;/font&gt;" style="html=1;shadow=0;dashed=0;shape=mxgraph.bootstrap.rrect;rSize=5;strokeColor=#DFDFDF;html=1;whiteSpace=wrap;fillColor=#ffffff;fontColor=#000000;verticalAlign=bottom;align=left;spacing=20;fontSize=14;movable=0;resizable=0;rotatable=0;deletable=0;editable=0;connectable=0;" parent="8Aa957S7UhUCIsyGFWxC-4" vertex="1">
                    <mxGeometry x="690" y="1250" width="250" height="260" as="geometry"/>
                </mxCell>
                <mxCell id="FCp3dlXSkB_duG45m-Wk-9" value="Image cap" style="html=1;shadow=0;dashed=0;shape=mxgraph.bootstrap.topButton;rSize=5;perimeter=none;whiteSpace=wrap;fillColor=#868E96;strokeColor=#DFDFDF;fontColor=#DEE2E6;resizeWidth=1;fontSize=18;movable=0;resizable=0;rotatable=0;deletable=0;editable=0;connectable=0;" parent="FCp3dlXSkB_duG45m-Wk-8" vertex="1">
                    <mxGeometry width="250" height="180" relative="1" as="geometry"/>
                </mxCell>
                <mxCell id="FCp3dlXSkB_duG45m-Wk-10" value="&lt;font style=&quot;&quot;&gt;&lt;span style=&quot;font-weight: bold; font-size: 20px;&quot;&gt;Tittel&lt;/span&gt;&lt;br&gt;&lt;font color=&quot;#1a1a1a&quot; style=&quot;font-size: 15px;&quot;&gt;Sjanger, Årstall&lt;/font&gt;&lt;br&gt;&lt;/font&gt;" style="html=1;shadow=0;dashed=0;shape=mxgraph.bootstrap.rrect;rSize=5;strokeColor=#DFDFDF;html=1;whiteSpace=wrap;fillColor=#ffffff;fontColor=#000000;verticalAlign=bottom;align=left;spacing=20;fontSize=14;" parent="8Aa957S7UhUCIsyGFWxC-4" vertex="1">
                    <mxGeometry x="130" y="1250" width="250" height="260" as="geometry"/>
                </mxCell>
                <mxCell id="FCp3dlXSkB_duG45m-Wk-11" value="Image cap" style="html=1;shadow=0;dashed=0;shape=mxgraph.bootstrap.topButton;rSize=5;perimeter=none;whiteSpace=wrap;fillColor=#868E96;strokeColor=#DFDFDF;fontColor=#DEE2E6;resizeWidth=1;fontSize=18;" parent="FCp3dlXSkB_duG45m-Wk-10" vertex="1">
                    <mxGeometry width="250" height="180" relative="1" as="geometry"/>
                </mxCell>
                <mxCell id="FCp3dlXSkB_duG45m-Wk-12" value="&lt;font style=&quot;&quot;&gt;&lt;span style=&quot;font-weight: bold; font-size: 20px;&quot;&gt;Tittel&lt;/span&gt;&lt;br&gt;&lt;font color=&quot;#1a1a1a&quot; style=&quot;font-size: 15px;&quot;&gt;Sjanger, Årstall&lt;/font&gt;&lt;br&gt;&lt;/font&gt;" style="html=1;shadow=0;dashed=0;shape=mxgraph.bootstrap.rrect;rSize=5;strokeColor=#DFDFDF;html=1;whiteSpace=wrap;fillColor=#ffffff;fontColor=#000000;verticalAlign=bottom;align=left;spacing=20;fontSize=14;" parent="8Aa957S7UhUCIsyGFWxC-4" vertex="1">
                    <mxGeometry x="410" y="1250" width="250" height="260" as="geometry"/>
                </mxCell>
                <mxCell id="FCp3dlXSkB_duG45m-Wk-13" value="Image cap" style="html=1;shadow=0;dashed=0;shape=mxgraph.bootstrap.topButton;rSize=5;perimeter=none;whiteSpace=wrap;fillColor=#868E96;strokeColor=#DFDFDF;fontColor=#DEE2E6;resizeWidth=1;fontSize=18;" parent="FCp3dlXSkB_duG45m-Wk-12" vertex="1">
                    <mxGeometry width="250" height="180" relative="1" as="geometry"/>
                </mxCell>
                <mxCell id="FCp3dlXSkB_duG45m-Wk-14" value="&lt;font color=&quot;#ffffff&quot;&gt;&lt;span style=&quot;font-size: 44px;&quot;&gt;&lt;b&gt;Alle Filmer:&lt;/b&gt;&lt;/span&gt;&lt;/font&gt;" style="text;html=1;strokeColor=none;fillColor=none;align=left;verticalAlign=middle;whiteSpace=wrap;rounded=0;fontSize=15;fontColor=#1A1A1A;opacity=60;" parent="8Aa957S7UhUCIsyGFWxC-4" vertex="1">
                    <mxGeometry x="30" y="1190" width="300" height="50" as="geometry"/>
                </mxCell>
                <mxCell id="FCp3dlXSkB_duG45m-Wk-15" value="&lt;font style=&quot;&quot;&gt;&lt;span style=&quot;font-weight: bold; font-size: 20px;&quot;&gt;Tittel&lt;/span&gt;&lt;br&gt;&lt;font color=&quot;#1a1a1a&quot; style=&quot;font-size: 15px;&quot;&gt;Sjanger, Årstall&lt;/font&gt;&lt;br&gt;&lt;/font&gt;" style="html=1;shadow=0;dashed=0;shape=mxgraph.bootstrap.rrect;rSize=5;strokeColor=#DFDFDF;html=1;whiteSpace=wrap;fillColor=#ffffff;fontColor=#000000;verticalAlign=bottom;align=left;spacing=20;fontSize=14;movable=0;resizable=0;rotatable=0;deletable=0;editable=0;connectable=0;" parent="8Aa957S7UhUCIsyGFWxC-4" vertex="1">
                    <mxGeometry x="980" y="1530" width="250" height="260" as="geometry"/>
                </mxCell>
                <mxCell id="FCp3dlXSkB_duG45m-Wk-16" value="Image cap" style="html=1;shadow=0;dashed=0;shape=mxgraph.bootstrap.topButton;rSize=5;perimeter=none;whiteSpace=wrap;fillColor=#868E96;strokeColor=#DFDFDF;fontColor=#DEE2E6;resizeWidth=1;fontSize=18;movable=0;resizable=0;rotatable=0;deletable=0;editable=0;connectable=0;" parent="FCp3dlXSkB_duG45m-Wk-15" vertex="1">
                    <mxGeometry width="250" height="180" relative="1" as="geometry"/>
                </mxCell>
                <mxCell id="FCp3dlXSkB_duG45m-Wk-17" value="&lt;font style=&quot;&quot;&gt;&lt;span style=&quot;font-weight: bold; font-size: 20px;&quot;&gt;Tittel&lt;/span&gt;&lt;br&gt;&lt;font color=&quot;#1a1a1a&quot; style=&quot;font-size: 15px;&quot;&gt;Sjanger, Årstall&lt;/font&gt;&lt;br&gt;&lt;/font&gt;" style="html=1;shadow=0;dashed=0;shape=mxgraph.bootstrap.rrect;rSize=5;strokeColor=#DFDFDF;html=1;whiteSpace=wrap;fillColor=#ffffff;fontColor=#000000;verticalAlign=bottom;align=left;spacing=20;fontSize=14;movable=0;resizable=0;rotatable=0;deletable=0;editable=0;connectable=0;" parent="8Aa957S7UhUCIsyGFWxC-4" vertex="1">
                    <mxGeometry x="1280" y="1530" width="250" height="260" as="geometry"/>
                </mxCell>
                <mxCell id="FCp3dlXSkB_duG45m-Wk-18" value="Image cap" style="html=1;shadow=0;dashed=0;shape=mxgraph.bootstrap.topButton;rSize=5;perimeter=none;whiteSpace=wrap;fillColor=#868E96;strokeColor=#DFDFDF;fontColor=#DEE2E6;resizeWidth=1;fontSize=18;movable=0;resizable=0;rotatable=0;deletable=0;editable=0;connectable=0;" parent="FCp3dlXSkB_duG45m-Wk-17" vertex="1">
                    <mxGeometry width="250" height="180" relative="1" as="geometry"/>
                </mxCell>
                <mxCell id="FCp3dlXSkB_duG45m-Wk-19" value="&lt;font style=&quot;&quot;&gt;&lt;span style=&quot;font-weight: bold; font-size: 20px;&quot;&gt;Tittel&lt;/span&gt;&lt;br&gt;&lt;font color=&quot;#1a1a1a&quot; style=&quot;font-size: 15px;&quot;&gt;Sjanger, Årstall&lt;/font&gt;&lt;br&gt;&lt;/font&gt;" style="html=1;shadow=0;dashed=0;shape=mxgraph.bootstrap.rrect;rSize=5;strokeColor=#DFDFDF;html=1;whiteSpace=wrap;fillColor=#ffffff;fontColor=#000000;verticalAlign=bottom;align=left;spacing=20;fontSize=14;movable=0;resizable=0;rotatable=0;deletable=0;editable=0;connectable=0;" parent="8Aa957S7UhUCIsyGFWxC-4" vertex="1">
                    <mxGeometry x="1570" y="1530" width="250" height="260" as="geometry"/>
                </mxCell>
                <mxCell id="FCp3dlXSkB_duG45m-Wk-20" value="Image cap" style="html=1;shadow=0;dashed=0;shape=mxgraph.bootstrap.topButton;rSize=5;perimeter=none;whiteSpace=wrap;fillColor=#868E96;strokeColor=#DFDFDF;fontColor=#DEE2E6;resizeWidth=1;fontSize=18;movable=0;resizable=0;rotatable=0;deletable=0;editable=0;connectable=0;" parent="FCp3dlXSkB_duG45m-Wk-19" vertex="1">
                    <mxGeometry width="250" height="180" relative="1" as="geometry"/>
                </mxCell>
                <mxCell id="FCp3dlXSkB_duG45m-Wk-21" value="&lt;font style=&quot;&quot;&gt;&lt;span style=&quot;font-weight: bold; font-size: 20px;&quot;&gt;Tittel&lt;/span&gt;&lt;br&gt;&lt;font color=&quot;#1a1a1a&quot; style=&quot;font-size: 15px;&quot;&gt;Sjanger, Årstall&lt;/font&gt;&lt;br&gt;&lt;/font&gt;" style="html=1;shadow=0;dashed=0;shape=mxgraph.bootstrap.rrect;rSize=5;strokeColor=#DFDFDF;html=1;whiteSpace=wrap;fillColor=#ffffff;fontColor=#000000;verticalAlign=bottom;align=left;spacing=20;fontSize=14;movable=0;resizable=0;rotatable=0;deletable=0;editable=0;connectable=0;" parent="8Aa957S7UhUCIsyGFWxC-4" vertex="1">
                    <mxGeometry x="690" y="1530" width="250" height="260" as="geometry"/>
                </mxCell>
                <mxCell id="FCp3dlXSkB_duG45m-Wk-22" value="Image cap" style="html=1;shadow=0;dashed=0;shape=mxgraph.bootstrap.topButton;rSize=5;perimeter=none;whiteSpace=wrap;fillColor=#868E96;strokeColor=#DFDFDF;fontColor=#DEE2E6;resizeWidth=1;fontSize=18;movable=0;resizable=0;rotatable=0;deletable=0;editable=0;connectable=0;" parent="FCp3dlXSkB_duG45m-Wk-21" vertex="1">
                    <mxGeometry width="250" height="180" relative="1" as="geometry"/>
                </mxCell>
                <mxCell id="FCp3dlXSkB_duG45m-Wk-23" value="&lt;font style=&quot;&quot;&gt;&lt;span style=&quot;font-weight: bold; font-size: 20px;&quot;&gt;Tittel&lt;/span&gt;&lt;br&gt;&lt;font color=&quot;#1a1a1a&quot; style=&quot;font-size: 15px;&quot;&gt;Sjanger, Årstall&lt;/font&gt;&lt;br&gt;&lt;/font&gt;" style="html=1;shadow=0;dashed=0;shape=mxgraph.bootstrap.rrect;rSize=5;strokeColor=#DFDFDF;html=1;whiteSpace=wrap;fillColor=#ffffff;fontColor=#000000;verticalAlign=bottom;align=left;spacing=20;fontSize=14;" parent="8Aa957S7UhUCIsyGFWxC-4" vertex="1">
                    <mxGeometry x="130" y="1530" width="250" height="260" as="geometry"/>
                </mxCell>
                <mxCell id="FCp3dlXSkB_duG45m-Wk-24" value="Image cap" style="html=1;shadow=0;dashed=0;shape=mxgraph.bootstrap.topButton;rSize=5;perimeter=none;whiteSpace=wrap;fillColor=#868E96;strokeColor=#DFDFDF;fontColor=#DEE2E6;resizeWidth=1;fontSize=18;" parent="FCp3dlXSkB_duG45m-Wk-23" vertex="1">
                    <mxGeometry width="250" height="180" relative="1" as="geometry"/>
                </mxCell>
                <mxCell id="FCp3dlXSkB_duG45m-Wk-25" value="&lt;font style=&quot;&quot;&gt;&lt;span style=&quot;font-weight: bold; font-size: 20px;&quot;&gt;Tittel&lt;/span&gt;&lt;br&gt;&lt;font color=&quot;#1a1a1a&quot; style=&quot;font-size: 15px;&quot;&gt;Sjanger, Årstall&lt;/font&gt;&lt;br&gt;&lt;/font&gt;" style="html=1;shadow=0;dashed=0;shape=mxgraph.bootstrap.rrect;rSize=5;strokeColor=#DFDFDF;html=1;whiteSpace=wrap;fillColor=#ffffff;fontColor=#000000;verticalAlign=bottom;align=left;spacing=20;fontSize=14;" parent="8Aa957S7UhUCIsyGFWxC-4" vertex="1">
                    <mxGeometry x="410" y="1530" width="250" height="260" as="geometry"/>
                </mxCell>
                <mxCell id="FCp3dlXSkB_duG45m-Wk-26" value="Image cap" style="html=1;shadow=0;dashed=0;shape=mxgraph.bootstrap.topButton;rSize=5;perimeter=none;whiteSpace=wrap;fillColor=#868E96;strokeColor=#DFDFDF;fontColor=#DEE2E6;resizeWidth=1;fontSize=18;" parent="FCp3dlXSkB_duG45m-Wk-25" vertex="1">
                    <mxGeometry width="250" height="180" relative="1" as="geometry"/>
                </mxCell>
                <mxCell id="FCp3dlXSkB_duG45m-Wk-27" value="" style="triangle;whiteSpace=wrap;html=1;fontSize=29;fontColor=#4D4D4D;fillColor=#4D4D4D;gradientColor=#333333;opacity=60;movable=0;resizable=0;rotatable=0;deletable=0;editable=0;connectable=0;" parent="8Aa957S7UhUCIsyGFWxC-4" vertex="1">
                    <mxGeometry x="1860" y="320" width="60" height="80" as="geometry"/>
                </mxCell>
                <mxCell id="FCp3dlXSkB_duG45m-Wk-28" value="" style="triangle;whiteSpace=wrap;html=1;fontSize=29;fontColor=#4D4D4D;fillColor=#4D4D4D;gradientColor=#333333;opacity=60;direction=west;" parent="8Aa957S7UhUCIsyGFWxC-4" vertex="1">
                    <mxGeometry x="20" y="320" width="60" height="80" as="geometry"/>
                </mxCell>
                <mxCell id="FCp3dlXSkB_duG45m-Wk-29" value="" style="triangle;whiteSpace=wrap;html=1;fontSize=29;fontColor=#4D4D4D;fillColor=#4D4D4D;gradientColor=#333333;opacity=60;direction=west;" parent="8Aa957S7UhUCIsyGFWxC-4" vertex="1">
                    <mxGeometry x="30" y="890" width="60" height="80" as="geometry"/>
                </mxCell>
                <mxCell id="FCp3dlXSkB_duG45m-Wk-31" value="" style="triangle;whiteSpace=wrap;html=1;fontSize=29;fontColor=#4D4D4D;fillColor=#4D4D4D;gradientColor=#333333;opacity=60;movable=0;resizable=0;rotatable=0;deletable=0;editable=0;connectable=0;" parent="8Aa957S7UhUCIsyGFWxC-4" vertex="1">
                    <mxGeometry x="1850" y="890" width="60" height="80" as="geometry"/>
                </mxCell>
            </root>
        </mxGraphModel>
    </diagram>
    <diagram id="FNea4PiwFoGyIR7KQsW8" name="Searchbar">
        <mxGraphModel dx="1600" dy="988" grid="1" gridSize="10" guides="1" tooltips="1" connect="1" arrows="1" fold="1" page="1" pageScale="1" pageWidth="850" pageHeight="1100" math="0" shadow="0">
            <root>
                <mxCell id="0"/>
                <mxCell id="1" parent="0"/>
                <mxCell id="4I-f8BlOwpI0jLj49ytg-1" value="&lt;font style=&quot;font-size: 29px;&quot;&gt;Search&lt;/font&gt;" style="rounded=1;whiteSpace=wrap;html=1;sketch=1;curveFitting=1;jiggle=2;" parent="1" vertex="1">
                    <mxGeometry x="40" y="90" width="600" height="60" as="geometry"/>
                </mxCell>
                <mxCell id="4I-f8BlOwpI0jLj49ytg-2" value="Search" style="rounded=1;whiteSpace=wrap;html=1;fontSize=29;shadow=1;sketch=1;curveFitting=1;jiggle=2;" parent="1" vertex="1">
                    <mxGeometry x="40" y="260" width="600" height="60" as="geometry"/>
                </mxCell>
                <mxCell id="4I-f8BlOwpI0jLj49ytg-3" value="" style="rounded=1;whiteSpace=wrap;html=1;fontSize=29;fillColor=#1ba1e2;fontColor=#ffffff;strokeColor=#006EAF;shadow=1;sketch=1;curveFitting=1;jiggle=2;" parent="1" vertex="1">
                    <mxGeometry x="40" y="320" width="600" height="70" as="geometry"/>
                </mxCell>
                <mxCell id="4I-f8BlOwpI0jLj49ytg-4" value="" style="rounded=1;whiteSpace=wrap;html=1;fontSize=29;shadow=1;sketch=1;curveFitting=1;jiggle=2;" parent="1" vertex="1">
                    <mxGeometry x="50" y="330" width="20" height="20" as="geometry"/>
                </mxCell>
                <mxCell id="4I-f8BlOwpI0jLj49ytg-8" value="" style="rounded=1;whiteSpace=wrap;html=1;fontSize=29;shadow=1;sketch=1;curveFitting=1;jiggle=2;" parent="1" vertex="1">
                    <mxGeometry x="50" y="360" width="20" height="20" as="geometry"/>
                </mxCell>
                <mxCell id="x5vh1i-Idetk4zK9ALZp-2" value="Komedie" style="text;html=1;align=center;verticalAlign=middle;resizable=0;points=[];autosize=1;strokeColor=none;fillColor=none;fontSize=12;rounded=1;shadow=1;sketch=1;curveFitting=1;jiggle=2;" parent="1" vertex="1">
                    <mxGeometry x="65" y="355" width="70" height="30" as="geometry"/>
                </mxCell>
                <mxCell id="x5vh1i-Idetk4zK9ALZp-3" value="" style="rounded=1;whiteSpace=wrap;html=1;fontSize=29;shadow=1;sketch=1;curveFitting=1;jiggle=2;" parent="1" vertex="1">
                    <mxGeometry x="140" y="360" width="20" height="20" as="geometry"/>
                </mxCell>
                <mxCell id="x5vh1i-Idetk4zK9ALZp-4" value="" style="rounded=1;whiteSpace=wrap;html=1;fontSize=29;shadow=1;sketch=1;curveFitting=1;jiggle=2;" parent="1" vertex="1">
                    <mxGeometry x="140" y="330" width="20" height="20" as="geometry"/>
                </mxCell>
                <mxCell id="x5vh1i-Idetk4zK9ALZp-6" value="Grøsser" style="text;html=1;align=center;verticalAlign=middle;resizable=0;points=[];autosize=1;strokeColor=none;fillColor=none;fontSize=12;rounded=1;shadow=1;sketch=1;curveFitting=1;jiggle=2;" parent="1" vertex="1">
                    <mxGeometry x="65" y="325" width="70" height="30" as="geometry"/>
                </mxCell>
                <mxCell id="x5vh1i-Idetk4zK9ALZp-7" value="Sci-fi" style="text;html=1;align=center;verticalAlign=middle;resizable=0;points=[];autosize=1;strokeColor=none;fillColor=none;fontSize=12;rounded=1;shadow=1;sketch=1;curveFitting=1;jiggle=2;" parent="1" vertex="1">
                    <mxGeometry x="160" y="325" width="50" height="30" as="geometry"/>
                </mxCell>
                <mxCell id="x5vh1i-Idetk4zK9ALZp-8" value="Action" style="text;html=1;align=center;verticalAlign=middle;resizable=0;points=[];autosize=1;strokeColor=none;fillColor=none;fontSize=12;rounded=1;shadow=1;sketch=1;curveFitting=1;jiggle=2;" parent="1" vertex="1">
                    <mxGeometry x="155" y="355" width="60" height="30" as="geometry"/>
                </mxCell>
                <mxCell id="x5vh1i-Idetk4zK9ALZp-34" value="" style="group;rounded=1;shadow=1;glass=0;sketch=1;curveFitting=1;jiggle=2;" parent="1" connectable="0" vertex="1">
                    <mxGeometry x="40" y="550" width="600" height="300" as="geometry"/>
                </mxCell>
                <mxCell id="x5vh1i-Idetk4zK9ALZp-32" value="" style="group;movable=1;resizable=1;rotatable=1;deletable=1;editable=1;connectable=1;sketch=1;curveFitting=1;jiggle=2;" parent="x5vh1i-Idetk4zK9ALZp-34" connectable="0" vertex="1">
                    <mxGeometry y="60" width="600" height="240" as="geometry"/>
                </mxCell>
                <mxCell id="x5vh1i-Idetk4zK9ALZp-23" value="Score: 568" style="rounded=0;whiteSpace=wrap;html=1;fontSize=12;movable=1;resizable=1;rotatable=1;deletable=1;editable=1;connectable=1;fillColor=#1ba1e2;fontColor=#ffffff;strokeColor=#006EAF;sketch=1;curveFitting=1;jiggle=2;" parent="x5vh1i-Idetk4zK9ALZp-32" vertex="1">
                    <mxGeometry y="180" width="135.8490566037736" height="60" as="geometry"/>
                </mxCell>
                <mxCell id="x5vh1i-Idetk4zK9ALZp-24" value="" style="rounded=0;whiteSpace=wrap;html=1;fontSize=12;movable=1;resizable=1;rotatable=1;deletable=1;editable=1;connectable=1;fillColor=#1ba1e2;fontColor=#ffffff;strokeColor=#006EAF;sketch=1;curveFitting=1;jiggle=2;" parent="x5vh1i-Idetk4zK9ALZp-32" vertex="1">
                    <mxGeometry x="135.8490566037736" y="180" width="464.1509433962264" height="60" as="geometry"/>
                </mxCell>
                <mxCell id="x5vh1i-Idetk4zK9ALZp-26" value="" style="rounded=0;whiteSpace=wrap;html=1;fontSize=12;movable=1;resizable=1;rotatable=1;deletable=1;editable=1;connectable=1;fillColor=#1ba1e2;fontColor=#ffffff;strokeColor=#006EAF;sketch=1;curveFitting=1;jiggle=2;" parent="x5vh1i-Idetk4zK9ALZp-32" vertex="1">
                    <mxGeometry x="135.8490566037736" y="120" width="464.1509433962264" height="60" as="geometry"/>
                </mxCell>
                <mxCell id="x5vh1i-Idetk4zK9ALZp-27" value="" style="rounded=0;whiteSpace=wrap;html=1;fontSize=12;movable=1;resizable=1;rotatable=1;deletable=1;editable=1;connectable=1;fillColor=#1ba1e2;fontColor=#ffffff;strokeColor=#006EAF;sketch=1;curveFitting=1;jiggle=2;" parent="x5vh1i-Idetk4zK9ALZp-32" vertex="1">
                    <mxGeometry x="135.8490566037736" y="60" width="464.1509433962264" height="60" as="geometry"/>
                </mxCell>
                <mxCell id="x5vh1i-Idetk4zK9ALZp-28" value="&lt;span style=&quot;color: rgba(0, 0, 0, 0); font-family: monospace; font-size: 0px; text-align: start;&quot;&gt;%3CmxGraphModel%3E%3Croot%3E%3CmxCell%20id%3D%220%22%2F%3E%3CmxCell%20id%3D%221%22%20parent%3D%220%22%2F%3E%3CmxCell%20id%3D%222%22%20value%3D%22%22%20style%3D%22rounded%3D0%3BwhiteSpace%3Dwrap%3Bhtml%3D1%3BfontSize%3D29%3B%22%20vertex%3D%221%22%20parent%3D%221%22%3E%3CmxGeometry%20x%3D%2250%22%20y%3D%22330%22%20width%3D%2220%22%20height%3D%2220%22%20as%3D%22geometry%22%2F%3E%3C%2FmxCell%3E%3C%2Froot%3E%3C%2FmxGraphModel%3E&lt;/span&gt;" style="rounded=0;whiteSpace=wrap;html=1;fontSize=12;movable=1;resizable=1;rotatable=1;deletable=1;editable=1;connectable=1;fillColor=#0050ef;fontColor=#ffffff;strokeColor=#001DBC;sketch=1;curveFitting=1;jiggle=2;" parent="x5vh1i-Idetk4zK9ALZp-32" vertex="1">
                    <mxGeometry x="135.8490566037736" width="464.1509433962264" height="60" as="geometry"/>
                </mxCell>
                <mxCell id="x5vh1i-Idetk4zK9ALZp-29" value="Score: 678" style="rounded=0;whiteSpace=wrap;html=1;fontSize=12;movable=1;resizable=1;rotatable=1;deletable=1;editable=1;connectable=1;fillColor=#1ba1e2;fontColor=#ffffff;strokeColor=#006EAF;sketch=1;curveFitting=1;jiggle=2;" parent="x5vh1i-Idetk4zK9ALZp-32" vertex="1">
                    <mxGeometry y="120" width="135.8490566037736" height="60" as="geometry"/>
                </mxCell>
                <mxCell id="x5vh1i-Idetk4zK9ALZp-30" value="Score:894" style="rounded=0;whiteSpace=wrap;html=1;fontSize=12;movable=1;resizable=1;rotatable=1;deletable=1;editable=1;connectable=1;fillColor=#1ba1e2;fontColor=#ffffff;strokeColor=#006EAF;sketch=1;curveFitting=1;jiggle=2;" parent="x5vh1i-Idetk4zK9ALZp-32" vertex="1">
                    <mxGeometry y="60" width="135.8490566037736" height="60" as="geometry"/>
                </mxCell>
                <mxCell id="x5vh1i-Idetk4zK9ALZp-31" value="Sort" style="rounded=0;whiteSpace=wrap;html=1;fontSize=12;movable=1;resizable=1;rotatable=1;deletable=1;editable=1;connectable=1;fillColor=#0050ef;fontColor=#ffffff;strokeColor=#001DBC;sketch=1;curveFitting=1;jiggle=2;" parent="x5vh1i-Idetk4zK9ALZp-32" vertex="1">
                    <mxGeometry width="135.8490566037736" height="60" as="geometry"/>
                </mxCell>
                <mxCell id="x5vh1i-Idetk4zK9ALZp-35" value="" style="rounded=0;whiteSpace=wrap;html=1;fontSize=29;sketch=1;curveFitting=1;jiggle=2;" parent="x5vh1i-Idetk4zK9ALZp-32" vertex="1">
                    <mxGeometry x="158.49056603773585" y="10" width="22.641509433962263" height="20" as="geometry"/>
                </mxCell>
                <mxCell id="x5vh1i-Idetk4zK9ALZp-36" value="" style="rounded=0;whiteSpace=wrap;html=1;fontSize=29;sketch=1;curveFitting=1;jiggle=2;" parent="x5vh1i-Idetk4zK9ALZp-32" vertex="1">
                    <mxGeometry x="271.6981132075472" y="10" width="22.641509433962263" height="20" as="geometry"/>
                </mxCell>
                <mxCell id="x5vh1i-Idetk4zK9ALZp-37" value="" style="rounded=0;whiteSpace=wrap;html=1;fontSize=29;sketch=1;curveFitting=1;jiggle=2;" parent="x5vh1i-Idetk4zK9ALZp-32" vertex="1">
                    <mxGeometry x="384.90566037735846" y="10" width="22.641509433962263" height="20" as="geometry"/>
                </mxCell>
                <mxCell id="x5vh1i-Idetk4zK9ALZp-39" value="Rating" style="text;html=1;align=center;verticalAlign=middle;resizable=0;points=[];autosize=1;strokeColor=none;fillColor=none;fontSize=12;sketch=1;curveFitting=1;jiggle=2;" parent="x5vh1i-Idetk4zK9ALZp-32" vertex="1">
                    <mxGeometry x="294.33962264150944" y="5" width="60" height="30" as="geometry"/>
                </mxCell>
                <mxCell id="x5vh1i-Idetk4zK9ALZp-40" value="Genre" style="text;html=1;align=center;verticalAlign=middle;resizable=0;points=[];autosize=1;strokeColor=none;fillColor=none;fontSize=12;sketch=1;curveFitting=1;jiggle=2;" parent="x5vh1i-Idetk4zK9ALZp-32" vertex="1">
                    <mxGeometry x="407.54716981132077" y="5" width="60" height="30" as="geometry"/>
                </mxCell>
                <mxCell id="x5vh1i-Idetk4zK9ALZp-38" value="Year" style="text;html=1;align=center;verticalAlign=middle;resizable=0;points=[];autosize=1;strokeColor=none;fillColor=none;fontSize=12;sketch=1;curveFitting=1;jiggle=2;" parent="x5vh1i-Idetk4zK9ALZp-32" vertex="1">
                    <mxGeometry x="186.79245283018867" y="5" width="50" height="30" as="geometry"/>
                </mxCell>
                <mxCell id="x5vh1i-Idetk4zK9ALZp-42" value="" style="shape=waypoint;size=6;pointerEvents=1;points=[];fillColor=none;resizable=0;rotatable=0;perimeter=centerPerimeter;snapToPoint=1;labelBackgroundColor=#FFFFFF;fontSize=12;sketch=1;curveFitting=1;jiggle=2;" parent="x5vh1i-Idetk4zK9ALZp-32" vertex="1">
                    <mxGeometry x="271.6981132075472" y="10" width="20" height="20" as="geometry"/>
                </mxCell>
                <mxCell id="x5vh1i-Idetk4zK9ALZp-43" value="Title" style="text;html=1;align=center;verticalAlign=middle;resizable=0;points=[];autosize=1;strokeColor=none;fillColor=none;fontSize=12;sketch=1;curveFitting=1;jiggle=2;" parent="x5vh1i-Idetk4zK9ALZp-32" vertex="1">
                    <mxGeometry x="158.49056603773585" y="60" width="50" height="30" as="geometry"/>
                </mxCell>
                <mxCell id="x5vh1i-Idetk4zK9ALZp-44" value="Genre" style="text;html=1;align=center;verticalAlign=middle;resizable=0;points=[];autosize=1;strokeColor=none;fillColor=none;fontSize=12;sketch=1;curveFitting=1;jiggle=2;" parent="x5vh1i-Idetk4zK9ALZp-32" vertex="1">
                    <mxGeometry x="266.0377358490566" y="75" width="60" height="30" as="geometry"/>
                </mxCell>
                <mxCell id="x5vh1i-Idetk4zK9ALZp-45" value="Year" style="text;html=1;align=center;verticalAlign=middle;resizable=0;points=[];autosize=1;strokeColor=none;fillColor=none;fontSize=12;sketch=1;curveFitting=1;jiggle=2;" parent="x5vh1i-Idetk4zK9ALZp-32" vertex="1">
                    <mxGeometry x="384.90566037735846" y="75" width="50" height="30" as="geometry"/>
                </mxCell>
                <mxCell id="x5vh1i-Idetk4zK9ALZp-46" value="" style="rounded=0;whiteSpace=wrap;html=1;labelBackgroundColor=#FFFFFF;fontSize=12;sketch=1;curveFitting=1;jiggle=2;" parent="x5vh1i-Idetk4zK9ALZp-32" vertex="1">
                    <mxGeometry x="147.16981132075472" y="80" width="79.24528301886792" height="30" as="geometry"/>
                </mxCell>
                <mxCell id="x5vh1i-Idetk4zK9ALZp-47" value="" style="rounded=0;whiteSpace=wrap;html=1;labelBackgroundColor=#FFFFFF;fontSize=12;sketch=1;curveFitting=1;jiggle=2;" parent="x5vh1i-Idetk4zK9ALZp-32" vertex="1">
                    <mxGeometry x="147.16981132075472" y="140" width="79.24528301886792" height="30" as="geometry"/>
                </mxCell>
                <mxCell id="x5vh1i-Idetk4zK9ALZp-48" value="" style="rounded=0;whiteSpace=wrap;html=1;labelBackgroundColor=#FFFFFF;fontSize=12;sketch=1;curveFitting=1;jiggle=2;" parent="x5vh1i-Idetk4zK9ALZp-32" vertex="1">
                    <mxGeometry x="147.16981132075472" y="200" width="79.24528301886792" height="30" as="geometry"/>
                </mxCell>
                <mxCell id="x5vh1i-Idetk4zK9ALZp-49" value="Title" style="text;html=1;align=center;verticalAlign=middle;resizable=0;points=[];autosize=1;strokeColor=none;fillColor=none;fontSize=12;sketch=1;curveFitting=1;jiggle=2;" parent="x5vh1i-Idetk4zK9ALZp-32" vertex="1">
                    <mxGeometry x="158.49056603773585" y="120" width="50" height="30" as="geometry"/>
                </mxCell>
                <mxCell id="x5vh1i-Idetk4zK9ALZp-50" value="Title" style="text;html=1;align=center;verticalAlign=middle;resizable=0;points=[];autosize=1;strokeColor=none;fillColor=none;fontSize=12;sketch=1;curveFitting=1;jiggle=2;" parent="x5vh1i-Idetk4zK9ALZp-32" vertex="1">
                    <mxGeometry x="158.49056603773585" y="180" width="50" height="30" as="geometry"/>
                </mxCell>
                <mxCell id="x5vh1i-Idetk4zK9ALZp-51" value="Genre" style="text;html=1;align=center;verticalAlign=middle;resizable=0;points=[];autosize=1;strokeColor=none;fillColor=none;fontSize=12;sketch=1;curveFitting=1;jiggle=2;" parent="x5vh1i-Idetk4zK9ALZp-32" vertex="1">
                    <mxGeometry x="266.0377358490566" y="135" width="60" height="30" as="geometry"/>
                </mxCell>
                <mxCell id="x5vh1i-Idetk4zK9ALZp-52" value="Genre" style="text;html=1;align=center;verticalAlign=middle;resizable=0;points=[];autosize=1;strokeColor=none;fillColor=none;fontSize=12;sketch=1;curveFitting=1;jiggle=2;" parent="x5vh1i-Idetk4zK9ALZp-32" vertex="1">
                    <mxGeometry x="271.6981132075472" y="195" width="60" height="30" as="geometry"/>
                </mxCell>
                <mxCell id="x5vh1i-Idetk4zK9ALZp-54" value="Year" style="text;html=1;align=center;verticalAlign=middle;resizable=0;points=[];autosize=1;strokeColor=none;fillColor=none;fontSize=12;sketch=1;curveFitting=1;jiggle=2;" parent="x5vh1i-Idetk4zK9ALZp-32" vertex="1">
                    <mxGeometry x="384.90566037735846" y="140" width="50" height="30" as="geometry"/>
                </mxCell>
                <mxCell id="x5vh1i-Idetk4zK9ALZp-53" value="Year" style="text;html=1;align=center;verticalAlign=middle;resizable=0;points=[];autosize=1;strokeColor=none;fillColor=none;fontSize=12;sketch=1;curveFitting=1;jiggle=2;" parent="x5vh1i-Idetk4zK9ALZp-32" vertex="1">
                    <mxGeometry x="384.90566037735846" y="195" width="50" height="30" as="geometry"/>
                </mxCell>
                <mxCell id="mWY2qGKnX_ObhGl9xVQs-1" value="" style="rounded=0;whiteSpace=wrap;html=1;fontSize=29;sketch=1;curveFitting=1;jiggle=2;" parent="x5vh1i-Idetk4zK9ALZp-32" vertex="1">
                    <mxGeometry x="490.0005660377358" y="10" width="22.641509433962263" height="20" as="geometry"/>
                </mxCell>
                <mxCell id="x5vh1i-Idetk4zK9ALZp-33" value="&lt;font style=&quot;font-size: 30px;&quot;&gt;Search&lt;/font&gt;" style="rounded=0;whiteSpace=wrap;html=1;fontSize=12;sketch=1;curveFitting=1;jiggle=2;" parent="x5vh1i-Idetk4zK9ALZp-34" vertex="1">
                    <mxGeometry width="600" height="60" as="geometry"/>
                </mxCell>
                <mxCell id="Kuv2A7COyccj8xPDI0kD-1" value="Step 1 - Searchbar" style="text;html=1;align=center;verticalAlign=middle;resizable=0;points=[];autosize=1;strokeColor=none;fillColor=none;fontSize=30;sketch=1;curveFitting=1;jiggle=2;" parent="1" vertex="1">
                    <mxGeometry x="40" width="280" height="50" as="geometry"/>
                </mxCell>
                <mxCell id="Kuv2A7COyccj8xPDI0kD-2" value="Step 2 - Dropdown menu with checkboxes, genres" style="text;html=1;align=center;verticalAlign=middle;resizable=0;points=[];autosize=1;strokeColor=none;fillColor=none;fontSize=30;sketch=1;curveFitting=1;jiggle=2;" parent="1" vertex="1">
                    <mxGeometry x="40" y="185" width="690" height="50" as="geometry"/>
                </mxCell>
                <mxCell id="Kuv2A7COyccj8xPDI0kD-5" value="Step 3 - Movies found with search condition.&lt;br&gt;&lt;span style=&quot;white-space: pre;&quot;&gt;&#9;&lt;/span&gt;&amp;nbsp; &amp;nbsp; &amp;nbsp; Display movies with sorting function" style="text;html=1;align=center;verticalAlign=middle;resizable=0;points=[];autosize=1;strokeColor=none;fillColor=none;fontSize=30;sketch=1;curveFitting=1;jiggle=2;" parent="1" vertex="1">
                    <mxGeometry x="35" y="460" width="620" height="90" as="geometry"/>
                </mxCell>
                <mxCell id="Kuv2A7COyccj8xPDI0kD-10" value="" style="shape=stencil(lVbLbhsxDPyavRIS9aLOSfofAeLUi7p24Lh5/H25XaxtMuspclvLM5KG5JAa0t3r9vFlM3B4PR0Pvzbv49NpO6T7gXncbzfH8aRfQ3oY0t3z4bj5eTz82T/Nv18eJ+T09fvwNu3wMfMySZ5IHD7nhSok6d/Kjxm/G/fX+EDNElKkHG4TGlNyBOoV4BuFZvCRIriQMOVk8IECuI80kurwDeA7U+vu/jEDfKUWDV4FCcB34mD1MkVwoRjOAs+MRrXBI4INkWrgCDUkq5mFYoFBSjaoWhUoy5oFT8jE4ATR/aInNCC6VSpiCYkyIugJrlAD5X6boE7JVgNXWBpVr2Q1aO0JqA0lJJfpAqNUtbiLIfTF3+uaA3WbaN0fmK2VxesXcwoIkQSqVnGgCHIgdfHKBc+gjHoktjljbM5CpTi9lQFePD6GpZ3dslq3VtOMNRAhJbgTNKQZebNRdpLrEuR1Qloa+lVdCzJz8jNhIqC6ztRdVDNVkDZtDmx7fM8UAUF7qPOmhiEADTrXgiP0ZWW9q3bf5q/67Dqj+MGjRyAzxLh460yQZVasu+3LAdpA0Gz2Zui440U/CUWDANyg7ZAtXu0EIvRlTmkTD+D+2iysXu3hFezPxLZZ6Fsjg6L49lvnv3j9uDysnsfdbn6XXf/vH2K6ND/i0sNf);lineShape=1;rounded=1;shadow=1;glass=0;labelBackgroundColor=#FFFFFF;fontSize=30;sketch=1;curveFitting=1;jiggle=2;" parent="1" vertex="1">
                    <mxGeometry x="315.65148396536597" y="624.5786319348038" width="11.90083825894635" height="11.560678229314817" as="geometry"/>
                </mxCell>
                <mxCell id="Kuv2A7COyccj8xPDI0kD-11" value="" style="shape=stencil(lZbdbtswDIWfxreEKOr3uj/vUaDpYixNijTttrcfPUNeKMen6J3j6BPJwyNag9y975/edoN375fz6efu1/h82Q9yP3g/Hve783jRp0EeBrl7OZ13P86nj+Pz/PvtaVo5Pb2ePqcdfs+cDxT9RHn3Z34j5Ou/F4/z+sN4vFofKjln1usOLNtADpSrAUKGEapQsRGS5pgAkEnEApV8BEClkA2QIzmUUqVaDFC4bXEbKFSsqiVTZgAkYlu0ysAogl8BKitQqSx/L0ClWADgyeUeKCBCzuSsSioDkjX7vtM1UAjbgPY1W6BUEiBrWhJYALW3hwAHa41EBUVQTTrAUUYqCbnOrbFVtSWr2MYl7T3qtCexfUiOIoig1oipBypyq0aw1khCAhqn9pbuTGtMBBSqVqVJN1A0O9cPplzbXNg61NJ5I1JCUyA32Re7fjEFhGK0QGpH5HYjtGprJk3SgRrKalZe6XDbTYXS6pBWBOh4ZwtEKmC6ToD/DhBTn5Im6YFMwm00NiBqBNCIRNmaSQJVYCZp7l/WMxWQEFO2BXidO6BiR8H6QiOir8PK2lzb9N/a3xqVda4CZ/PaRcQgf+ltmuBJU/ltuwR+qabgVn6G1bK0gdvW4yPAOnqkXw/Un8LXPh/wDfnulerr9frw//72Mh4O8/Xv+v/+vqev5ruiPPwF);lineShape=1;hachureGap=4;fontFamily=Architects Daughter;fontSource=https%3A%2F%2Ffonts.googleapis.com%2Fcss%3Ffamily%3DArchitects%2BDaughter;fontSize=20;sketch=1;curveFitting=1;jiggle=2;" parent="1" vertex="1">
                    <mxGeometry x="317.1079005793322" y="622.9241640962023" width="14.669875735007736" height="11.89954283626571" as="geometry"/>
                </mxCell>
                <mxCell id="Kuv2A7COyccj8xPDI0kD-12" value="" style="shape=stencil(jVbLbhsxDPyavQ4kPvQ4p+l/BIhTG3XtwHHa5u9DY7GuqXrZ3rQrjkiRwxEnfnjbPr1uJkpv59Px++bX7vm8nfjLRLQ7bDen3dlWEz9O/PByPG2+nY7vh+f5+/XpYnlZ/Tj+vJzwe8b1BMkXFKWP+Y8W0Pzn6wzY7w43AG2g6gB2RE7rAOmg5gEFqusAbqjJAzpa4IEqiowADQC5gtQDFKWtAxoKO/tmMQZXIBSfo9ohvG6fkPyNi3nskX339mopKEHRxppJjRNEy3ELgK2KgQO7MfuImNECGtl2Hjxk1CBFIsg8eqAAoILkWWHEyrIOKBnNhySKXgNAQfXMVkULaFT+6h07ogU8su3sPdSKGqS1pCWJV6ZWcOBBaSHCtRUkroNV2nuwZov63+o6UCOnK9/vkylBfSF6XZzep2sGDQJgToPKCdiLXiPUgBppTFKlMKsJNPSzRRj0M0O8HmkKy9zRffwSN08f9eIf9sKo3ScUGsRv4SZ/AQn1y+SK/Pk51MeiyP7CMYMqj71vz1yk72kUeEIL+GBNJd6+oAfy2HnMjymsBgEZ4Qd5zB0cAaxA5G8Qh3TThFd9lIUm91006PCKUMxSHTvfZoEwTVal4V2Lh5H/mF5s8Wf2ednt9/PodLs/zkr2a56z+PET);lineShape=1;hachureGap=4;fontFamily=Architects Daughter;fontSource=https%3A%2F%2Ffonts.googleapis.com%2Fcss%3Ffamily%3DArchitects%2BDaughter;fontSize=20;sketch=1;curveFitting=1;jiggle=2;" parent="1" vertex="1">
                    <mxGeometry x="325.1253616547692" y="621.3077049986464" width="6.966974406205736" height="6.966930213957539" as="geometry"/>
                </mxCell>
                <mxCell id="Kuv2A7COyccj8xPDI0kD-14" value="" style="verticalLabelPosition=bottom;verticalAlign=top;html=1;shape=mxgraph.basic.x;sketch=1;hachureGap=4;jiggle=2;curveFitting=1;fontFamily=Architects Daughter;fontSource=https%3A%2F%2Ffonts.googleapis.com%2Fcss%3Ffamily%3DArchitects%2BDaughter;fontSize=20;" parent="1" vertex="1">
                    <mxGeometry x="55" y="365" width="10" height="10" as="geometry"/>
                </mxCell>
            </root>
        </mxGraphModel>
    </diagram>
    <diagram id="NHtnLX0atJr1gcDxFmRr" name="innloggingside">
        <mxGraphModel dx="1600" dy="988" grid="1" gridSize="10" guides="1" tooltips="1" connect="1" arrows="1" fold="1" page="1" pageScale="1" pageWidth="1920" pageHeight="1200" math="0" shadow="0">
            <root>
                <mxCell id="0"/>
                <mxCell id="1" parent="0"/>
                <mxCell id="UEHWkxUH0aDZOKJBpdp8-32" value="" style="rounded=0;whiteSpace=wrap;html=1;shadow=1;labelBorderColor=none;sketch=0;strokeColor=none;strokeWidth=6;fontSize=15;fillColor=#EBEBEB;gradientColor=none;movable=1;resizable=1;rotatable=1;deletable=1;editable=1;connectable=1;" parent="1" vertex="1">
                    <mxGeometry x="70" y="40" width="780" height="560" as="geometry"/>
                </mxCell>
                <mxCell id="UEHWkxUH0aDZOKJBpdp8-71" value="" style="rounded=1;whiteSpace=wrap;html=1;shadow=1;labelBorderColor=none;strokeWidth=6;fontSize=15;fillColor=#454444;opacity=20;strokeColor=none;" parent="1" vertex="1">
                    <mxGeometry x="110" y="170" width="710" height="410" as="geometry"/>
                </mxCell>
                <mxCell id="UEHWkxUH0aDZOKJBpdp8-33" value="Logo" style="html=1;shadow=0;dashed=0;fontSize=16;align=left;spacing=15;labelBorderColor=none;sketch=0;strokeWidth=6;strokeColor=none;" parent="1" vertex="1">
                    <mxGeometry x="70" y="40" width="780" height="60" as="geometry"/>
                </mxCell>
                <mxCell id="UEHWkxUH0aDZOKJBpdp8-34" value="Home" style="fillColor=none;strokeColor=none;fontSize=14;fontColor=#ffffff;align=center;shadow=1;labelBorderColor=none;sketch=0;strokeWidth=6;" parent="UEHWkxUH0aDZOKJBpdp8-33" vertex="1">
                    <mxGeometry width="70" height="40" relative="1" as="geometry">
                        <mxPoint x="70" y="10" as="offset"/>
                    </mxGeometry>
                </mxCell>
                <mxCell id="UEHWkxUH0aDZOKJBpdp8-35" value="Features" style="fillColor=none;strokeColor=none;fontSize=14;fontColor=#79BFFD;align=center;shadow=1;labelBorderColor=none;sketch=0;strokeWidth=6;" parent="UEHWkxUH0aDZOKJBpdp8-33" vertex="1">
                    <mxGeometry width="70" height="40" relative="1" as="geometry">
                        <mxPoint x="140" y="10" as="offset"/>
                    </mxGeometry>
                </mxCell>
                <mxCell id="UEHWkxUH0aDZOKJBpdp8-37" value="About" style="fillColor=none;strokeColor=none;fontSize=14;fontColor=#79BFFD;align=center;shadow=1;labelBorderColor=none;sketch=0;strokeWidth=6;" parent="UEHWkxUH0aDZOKJBpdp8-33" vertex="1">
                    <mxGeometry width="80" height="40" relative="1" as="geometry">
                        <mxPoint x="220" y="10" as="offset"/>
                    </mxGeometry>
                </mxCell>
                <mxCell id="UEHWkxUH0aDZOKJBpdp8-38" value="Search" style="html=1;shadow=0;dashed=0;shape=mxgraph.bootstrap.rrect;rSize=5;fontSize=14;fontColor=#ffffff;strokeColor=#ffffff;fillColor=none;labelBorderColor=none;sketch=0;strokeWidth=6;" parent="UEHWkxUH0aDZOKJBpdp8-33" vertex="1">
                    <mxGeometry x="1" width="70" height="40" relative="1" as="geometry">
                        <mxPoint x="-80" y="10" as="offset"/>
                    </mxGeometry>
                </mxCell>
                <mxCell id="UEHWkxUH0aDZOKJBpdp8-39" value="Search" style="html=1;shadow=0;dashed=0;shape=mxgraph.bootstrap.rrect;rSize=5;fontSize=14;fontColor=#6C767D;strokeColor=#CED4DA;fillColor=#ffffff;align=left;spacing=10;labelBorderColor=none;sketch=0;strokeWidth=6;" parent="UEHWkxUH0aDZOKJBpdp8-33" vertex="1">
                    <mxGeometry x="1" width="180" height="40" relative="1" as="geometry">
                        <mxPoint x="-270" y="10" as="offset"/>
                    </mxGeometry>
                </mxCell>
                <mxCell id="UEHWkxUH0aDZOKJBpdp8-69" value="" style="group" parent="1" vertex="1" connectable="0">
                    <mxGeometry x="140" y="210" width="670" height="360" as="geometry"/>
                </mxCell>
                <mxCell id="UEHWkxUH0aDZOKJBpdp8-52" value="Email" style="fillColor=none;strokeColor=none;align=left;fontSize=14;fontColor=#212529;shadow=1;labelBorderColor=none;sketch=0;strokeWidth=6;" parent="UEHWkxUH0aDZOKJBpdp8-69" vertex="1">
                    <mxGeometry width="335" height="30" as="geometry"/>
                </mxCell>
                <mxCell id="UEHWkxUH0aDZOKJBpdp8-53" value="" style="html=1;shadow=0;dashed=0;shape=mxgraph.bootstrap.rrect;rSize=5;fillColor=none;strokeColor=#999999;align=left;spacing=15;fontSize=14;fontColor=#6C767D;labelBorderColor=none;sketch=0;strokeWidth=6;" parent="UEHWkxUH0aDZOKJBpdp8-69" vertex="1">
                    <mxGeometry y="30" width="330.8125" height="30" as="geometry"/>
                </mxCell>
                <mxCell id="UEHWkxUH0aDZOKJBpdp8-54" value="Password" style="fillColor=none;strokeColor=none;align=left;fontSize=14;fontColor=#212529;shadow=1;labelBorderColor=none;sketch=0;strokeWidth=6;" parent="UEHWkxUH0aDZOKJBpdp8-69" vertex="1">
                    <mxGeometry x="335" width="335" height="30" as="geometry"/>
                </mxCell>
                <mxCell id="UEHWkxUH0aDZOKJBpdp8-55" value="" style="html=1;shadow=0;dashed=0;shape=mxgraph.bootstrap.rrect;rSize=5;fillColor=none;strokeColor=#999999;align=left;spacing=15;fontSize=14;fontColor=#6C767D;labelBorderColor=none;sketch=0;strokeWidth=6;" parent="UEHWkxUH0aDZOKJBpdp8-69" vertex="1">
                    <mxGeometry x="339.1875" y="30" width="330.8125" height="30" as="geometry"/>
                </mxCell>
                <mxCell id="UEHWkxUH0aDZOKJBpdp8-56" value="Address" style="fillColor=none;strokeColor=none;align=left;fontSize=14;fontColor=#212529;shadow=1;labelBorderColor=none;sketch=0;strokeWidth=6;" parent="UEHWkxUH0aDZOKJBpdp8-69" vertex="1">
                    <mxGeometry y="70" width="326.625" height="30" as="geometry"/>
                </mxCell>
                <mxCell id="UEHWkxUH0aDZOKJBpdp8-57" value="1234 Main St" style="html=1;shadow=0;dashed=0;shape=mxgraph.bootstrap.rrect;rSize=5;fillColor=none;strokeColor=#999999;align=left;spacing=15;fontSize=14;fontColor=#6C767D;labelBorderColor=none;sketch=0;strokeWidth=6;" parent="UEHWkxUH0aDZOKJBpdp8-69" vertex="1">
                    <mxGeometry y="100" width="670" height="30" as="geometry"/>
                </mxCell>
                <mxCell id="UEHWkxUH0aDZOKJBpdp8-58" value="Address 2" style="fillColor=none;strokeColor=none;align=left;fontSize=14;fontColor=#212529;shadow=1;labelBorderColor=none;sketch=0;strokeWidth=6;" parent="UEHWkxUH0aDZOKJBpdp8-69" vertex="1">
                    <mxGeometry y="140" width="326.625" height="30" as="geometry"/>
                </mxCell>
                <mxCell id="UEHWkxUH0aDZOKJBpdp8-59" value="Apartment, studio or floor" style="html=1;shadow=0;dashed=0;shape=mxgraph.bootstrap.rrect;rSize=5;fillColor=none;strokeColor=#999999;align=left;spacing=15;fontSize=14;fontColor=#6C767D;labelBorderColor=none;sketch=0;strokeWidth=6;" parent="UEHWkxUH0aDZOKJBpdp8-69" vertex="1">
                    <mxGeometry y="170" width="670" height="30" as="geometry"/>
                </mxCell>
                <mxCell id="UEHWkxUH0aDZOKJBpdp8-60" value="City" style="fillColor=none;strokeColor=none;align=left;fontSize=14;fontColor=#212529;shadow=1;labelBorderColor=none;sketch=0;strokeWidth=6;" parent="UEHWkxUH0aDZOKJBpdp8-69" vertex="1">
                    <mxGeometry y="210" width="326.625" height="30" as="geometry"/>
                </mxCell>
                <mxCell id="UEHWkxUH0aDZOKJBpdp8-61" value="" style="html=1;shadow=0;dashed=0;shape=mxgraph.bootstrap.rrect;rSize=5;fillColor=none;strokeColor=#999999;align=left;spacing=15;fontSize=14;fontColor=#6C767D;labelBorderColor=none;sketch=0;strokeWidth=6;" parent="UEHWkxUH0aDZOKJBpdp8-69" vertex="1">
                    <mxGeometry y="240" width="326.625" height="30" as="geometry"/>
                </mxCell>
                <mxCell id="UEHWkxUH0aDZOKJBpdp8-62" value="Fylke" style="fillColor=none;strokeColor=none;align=left;fontSize=14;fontColor=#212529;shadow=1;labelBorderColor=none;sketch=0;strokeWidth=6;" parent="UEHWkxUH0aDZOKJBpdp8-69" vertex="1">
                    <mxGeometry x="343.375" y="210" width="184.25" height="30" as="geometry"/>
                </mxCell>
                <mxCell id="UEHWkxUH0aDZOKJBpdp8-63" value="Choose..." style="html=1;shadow=0;dashed=0;shape=mxgraph.bootstrap.rrect;rSize=5;fillColor=none;strokeColor=#999999;align=left;spacing=15;fontSize=14;fontColor=#6C767D;labelBorderColor=none;sketch=0;strokeWidth=6;" parent="UEHWkxUH0aDZOKJBpdp8-69" vertex="1">
                    <mxGeometry x="343.375" y="240" width="226.125" height="30" as="geometry"/>
                </mxCell>
                <mxCell id="UEHWkxUH0aDZOKJBpdp8-64" value="" style="shape=triangle;direction=south;fillColor=#212529;strokeColor=none;perimeter=none;shadow=1;labelBorderColor=none;sketch=0;strokeWidth=6;fontSize=15;" parent="UEHWkxUH0aDZOKJBpdp8-63" vertex="1">
                    <mxGeometry x="1" y="0.5" width="10" height="5" relative="1" as="geometry">
                        <mxPoint x="-17" y="-2.5" as="offset"/>
                    </mxGeometry>
                </mxCell>
                <mxCell id="UEHWkxUH0aDZOKJBpdp8-65" value="Zip" style="fillColor=none;strokeColor=none;align=left;fontSize=14;fontColor=#212529;shadow=1;labelBorderColor=none;sketch=0;strokeWidth=6;" parent="UEHWkxUH0aDZOKJBpdp8-69" vertex="1">
                    <mxGeometry x="586.25" y="210" width="83.75" height="30" as="geometry"/>
                </mxCell>
                <mxCell id="UEHWkxUH0aDZOKJBpdp8-66" value="" style="html=1;shadow=0;dashed=0;shape=mxgraph.bootstrap.rrect;rSize=5;fillColor=none;strokeColor=#999999;align=left;spacing=15;fontSize=14;fontColor=#6C767D;labelBorderColor=none;sketch=0;strokeWidth=6;" parent="UEHWkxUH0aDZOKJBpdp8-69" vertex="1">
                    <mxGeometry x="586.25" y="240" width="83.75" height="30" as="geometry"/>
                </mxCell>
                <mxCell id="UEHWkxUH0aDZOKJBpdp8-67" value="Check me out" style="html=1;shadow=0;dashed=0;shape=mxgraph.bootstrap.checkbox2;labelPosition=right;verticalLabelPosition=middle;align=left;verticalAlign=middle;gradientColor=#DEDEDE;fillColor=#EDEDED;checked=0;spacing=5;strokeColor=#999999;fontColor=#212529;checkedFill=#0085FC;checkedStroke=#ffffff;labelBorderColor=none;sketch=0;strokeWidth=6;fontSize=15;" parent="UEHWkxUH0aDZOKJBpdp8-69" vertex="1">
                    <mxGeometry y="290" width="8.375" height="10" as="geometry"/>
                </mxCell>
                <mxCell id="UEHWkxUH0aDZOKJBpdp8-68" value="Sign in" style="html=1;shadow=0;dashed=0;shape=mxgraph.bootstrap.rrect;rSize=5;fillColor=#0085FC;strokeColor=none;align=center;fontSize=14;fontColor=#FFFFFF;labelBorderColor=none;sketch=0;strokeWidth=6;" parent="UEHWkxUH0aDZOKJBpdp8-69" vertex="1">
                    <mxGeometry y="320" width="58.625" height="40" as="geometry"/>
                </mxCell>
                <mxCell id="UEHWkxUH0aDZOKJBpdp8-70" value="&lt;font color=&quot;#000000&quot;&gt;New Profile&lt;/font&gt;" style="text;html=1;fontSize=24;fontStyle=1;verticalAlign=middle;align=center;shadow=1;labelBorderColor=none;sketch=0;strokeWidth=6;" parent="1" vertex="1">
                    <mxGeometry x="150" y="180" width="100" height="40" as="geometry"/>
                </mxCell>
            </root>
        </mxGraphModel>
    </diagram>
    <diagram id="tWuI4ZE8c7w4-ymCmYho" name="Profilside">
        <mxGraphModel dx="1216" dy="787" grid="1" gridSize="10" guides="1" tooltips="1" connect="1" arrows="1" fold="1" page="1" pageScale="1" pageWidth="850" pageHeight="1100" math="0" shadow="0">
            <root>
                <mxCell id="0"/>
                <mxCell id="1" parent="0"/>
                <mxCell id="ojlUpd0_aGpObAVNPAGv-1" value="" style="rounded=0;whiteSpace=wrap;html=1;shadow=0;glass=0;strokeColor=#36393d;fontSize=18;fillColor=#D4D2C9;" parent="1" vertex="1">
                    <mxGeometry x="65" y="60" width="1330" height="890" as="geometry"/>
                </mxCell>
                <mxCell id="5E1p2QQRMe9-MrhdOmF2-2" value="&lt;font style=&quot;font-size: 18px;&quot; color=&quot;#0a0a0a&quot;&gt;Sist sett.&amp;nbsp; &amp;nbsp;Vurdert&lt;/font&gt;" style="swimlane;fontStyle=0;childLayout=stackLayout;horizontal=1;startSize=30;horizontalStack=0;resizeParent=1;resizeParentMax=0;resizeLast=0;collapsible=1;marginBottom=0;whiteSpace=wrap;html=1;fontSize=22;fillColor=#dae8fc;strokeColor=#6c8ebf;sketch=1;curveFitting=1;jiggle=2;" parent="1" vertex="1">
                    <mxGeometry x="90" y="340" width="170" height="370" as="geometry"/>
                </mxCell>
                <mxCell id="5E1p2QQRMe9-MrhdOmF2-3" value="Film 1" style="text;strokeColor=none;fillColor=none;align=left;verticalAlign=middle;spacingLeft=4;spacingRight=4;overflow=hidden;points=[[0,0.5],[1,0.5]];portConstraint=eastwest;rotatable=0;whiteSpace=wrap;html=1;fontSize=22;fontColor=#030303;sketch=1;curveFitting=1;jiggle=2;" parent="5E1p2QQRMe9-MrhdOmF2-2" vertex="1">
                    <mxGeometry y="30" width="170" height="30" as="geometry"/>
                </mxCell>
                <mxCell id="5E1p2QQRMe9-MrhdOmF2-6" value="" style="edgeStyle=none;html=1;fontSize=22;fontColor=#0A0A0A;sketch=1;curveFitting=1;jiggle=2;" parent="5E1p2QQRMe9-MrhdOmF2-2" source="5E1p2QQRMe9-MrhdOmF2-4" target="5E1p2QQRMe9-MrhdOmF2-5" edge="1">
                    <mxGeometry relative="1" as="geometry"/>
                </mxCell>
                <mxCell id="5E1p2QQRMe9-MrhdOmF2-4" value="Film 2" style="text;strokeColor=none;fillColor=none;align=left;verticalAlign=middle;spacingLeft=4;spacingRight=4;overflow=hidden;points=[[0,0.5],[1,0.5]];portConstraint=eastwest;rotatable=0;whiteSpace=wrap;html=1;fontSize=22;fontColor=#030303;sketch=1;curveFitting=1;jiggle=2;" parent="5E1p2QQRMe9-MrhdOmF2-2" vertex="1">
                    <mxGeometry y="60" width="170" height="30" as="geometry"/>
                </mxCell>
                <mxCell id="5E1p2QQRMe9-MrhdOmF2-5" value="&lt;br&gt;&lt;br&gt;&lt;br&gt;&lt;br&gt;" style="text;strokeColor=none;fillColor=none;align=left;verticalAlign=middle;spacingLeft=4;spacingRight=4;overflow=hidden;points=[[0,0.5],[1,0.5]];portConstraint=eastwest;rotatable=0;whiteSpace=wrap;html=1;fontSize=22;fontColor=#030303;sketch=1;curveFitting=1;jiggle=2;" parent="5E1p2QQRMe9-MrhdOmF2-2" vertex="1">
                    <mxGeometry y="90" width="170" height="280" as="geometry"/>
                </mxCell>
                <mxCell id="EIICXtFqod5OgD5E-zPl-3" value="" style="rounded=0;whiteSpace=wrap;html=1;fillColor=#bac8d3;fontStyle=1;strokeColor=#23445d;sketch=1;curveFitting=1;jiggle=2;" parent="1" vertex="1">
                    <mxGeometry x="80" y="70" width="1300" height="80" as="geometry"/>
                </mxCell>
                <mxCell id="iZo7L3G01_Ub8CFStVZW-1" value="&lt;font style=&quot;font-size: 22px;&quot; color=&quot;#4f4f4f&quot;&gt;Din profil&lt;/font&gt;" style="text;strokeColor=none;align=center;fillColor=none;html=1;verticalAlign=middle;whiteSpace=wrap;rounded=0;sketch=1;curveFitting=1;jiggle=2;" parent="1" vertex="1">
                    <mxGeometry x="310" y="85" width="250" height="50" as="geometry"/>
                </mxCell>
                <mxCell id="lOr_Lu54CsG8XlxMVVWI-1" value="&lt;font color=&quot;#fafafa&quot;&gt;Profilbilde&lt;/font&gt;" style="whiteSpace=wrap;html=1;aspect=fixed;fontSize=22;fontColor=#4F4F4F;sketch=1;curveFitting=1;jiggle=2;" parent="1" vertex="1">
                    <mxGeometry x="90" y="160" width="170" height="170" as="geometry"/>
                </mxCell>
                <mxCell id="lOr_Lu54CsG8XlxMVVWI-3" value="&lt;font color=&quot;#030303&quot;&gt;Biografi&lt;/font&gt;" style="rounded=0;whiteSpace=wrap;html=1;fontSize=22;fillColor=#dae8fc;strokeColor=#6c8ebf;sketch=1;curveFitting=1;jiggle=2;" parent="1" vertex="1">
                    <mxGeometry x="270" y="160" width="390" height="170" as="geometry"/>
                </mxCell>
                <mxCell id="5E1p2QQRMe9-MrhdOmF2-7" value="Film 3" style="text;strokeColor=none;fillColor=none;align=left;verticalAlign=middle;spacingLeft=4;spacingRight=4;overflow=hidden;points=[[0,0.5],[1,0.5]];portConstraint=eastwest;rotatable=0;whiteSpace=wrap;html=1;fontSize=22;fontColor=#030303;sketch=1;curveFitting=1;jiggle=2;" parent="1" vertex="1">
                    <mxGeometry x="90" y="430" width="170" height="40" as="geometry"/>
                </mxCell>
                <mxCell id="5E1p2QQRMe9-MrhdOmF2-8" value="Film 4" style="text;strokeColor=none;fillColor=none;align=left;verticalAlign=middle;spacingLeft=4;spacingRight=4;overflow=hidden;points=[[0,0.5],[1,0.5]];portConstraint=eastwest;rotatable=0;whiteSpace=wrap;html=1;fontSize=22;fontColor=#030303;sketch=1;curveFitting=1;jiggle=2;" parent="1" vertex="1">
                    <mxGeometry x="90" y="460" width="170" height="40" as="geometry"/>
                </mxCell>
                <mxCell id="5E1p2QQRMe9-MrhdOmF2-9" value="&lt;font color=&quot;#000000&quot;&gt;x&lt;/font&gt;" style="whiteSpace=wrap;html=1;aspect=fixed;fontSize=18;fillColor=#bac8d3;strokeColor=#23445d;sketch=1;curveFitting=1;jiggle=2;" parent="1" vertex="1">
                    <mxGeometry x="222" y="378" width="15" height="15" as="geometry"/>
                </mxCell>
                <mxCell id="5E1p2QQRMe9-MrhdOmF2-10" value="" style="whiteSpace=wrap;html=1;aspect=fixed;fontSize=18;fillColor=#bac8d3;strokeColor=#23445d;sketch=1;curveFitting=1;jiggle=2;" parent="1" vertex="1">
                    <mxGeometry x="222" y="408" width="15" height="15" as="geometry"/>
                </mxCell>
                <mxCell id="5E1p2QQRMe9-MrhdOmF2-13" value="&lt;font color=&quot;#000000&quot;&gt;x&lt;/font&gt;" style="whiteSpace=wrap;html=1;aspect=fixed;fontSize=18;fillColor=#bac8d3;strokeColor=#0A0A0A;sketch=1;curveFitting=1;jiggle=2;" parent="1" vertex="1">
                    <mxGeometry x="222" y="441" width="15" height="15" as="geometry"/>
                </mxCell>
                <mxCell id="5E1p2QQRMe9-MrhdOmF2-14" value="" style="whiteSpace=wrap;html=1;aspect=fixed;fontSize=18;fillColor=#bac8d3;strokeColor=#23445d;sketch=1;curveFitting=1;jiggle=2;" parent="1" vertex="1">
                    <mxGeometry x="222" y="471" width="15" height="15" as="geometry"/>
                </mxCell>
                <mxCell id="8OeCZrJnOi8lWYPYFjSx-2" value="&lt;font color=&quot;#000000&quot;&gt;Vil se&lt;/font&gt;" style="swimlane;fontStyle=0;childLayout=stackLayout;horizontal=1;startSize=30;horizontalStack=0;resizeParent=1;resizeParentMax=0;resizeLast=0;collapsible=1;marginBottom=0;whiteSpace=wrap;html=1;strokeColor=#6c8ebf;fontSize=18;fillColor=#dae8fc;sketch=1;curveFitting=1;jiggle=2;" parent="1" vertex="1">
                    <mxGeometry x="270" y="340" width="180" height="370" as="geometry"/>
                </mxCell>
                <mxCell id="8OeCZrJnOi8lWYPYFjSx-3" value="Film a" style="text;strokeColor=none;fillColor=none;align=left;verticalAlign=middle;spacingLeft=4;spacingRight=4;overflow=hidden;points=[[0,0.5],[1,0.5]];portConstraint=eastwest;rotatable=0;whiteSpace=wrap;html=1;fontSize=18;fontColor=#000000;sketch=1;curveFitting=1;jiggle=2;" parent="8OeCZrJnOi8lWYPYFjSx-2" vertex="1">
                    <mxGeometry y="30" width="180" height="30" as="geometry"/>
                </mxCell>
                <mxCell id="8OeCZrJnOi8lWYPYFjSx-4" value="Film b" style="text;strokeColor=none;fillColor=none;align=left;verticalAlign=middle;spacingLeft=4;spacingRight=4;overflow=hidden;points=[[0,0.5],[1,0.5]];portConstraint=eastwest;rotatable=0;whiteSpace=wrap;html=1;fontSize=18;fontColor=#000000;sketch=1;curveFitting=1;jiggle=2;" parent="8OeCZrJnOi8lWYPYFjSx-2" vertex="1">
                    <mxGeometry y="60" width="180" height="30" as="geometry"/>
                </mxCell>
                <mxCell id="8OeCZrJnOi8lWYPYFjSx-6" value="Film c" style="text;strokeColor=none;fillColor=none;align=left;verticalAlign=middle;spacingLeft=4;spacingRight=4;overflow=hidden;points=[[0,0.5],[1,0.5]];portConstraint=eastwest;rotatable=0;whiteSpace=wrap;html=1;fontSize=18;fontColor=#000000;sketch=1;curveFitting=1;jiggle=2;" parent="8OeCZrJnOi8lWYPYFjSx-2" vertex="1">
                    <mxGeometry y="90" width="180" height="30" as="geometry"/>
                </mxCell>
                <mxCell id="8OeCZrJnOi8lWYPYFjSx-5" value="&lt;br&gt;" style="text;strokeColor=none;fillColor=none;align=left;verticalAlign=middle;spacingLeft=4;spacingRight=4;overflow=hidden;points=[[0,0.5],[1,0.5]];portConstraint=eastwest;rotatable=0;whiteSpace=wrap;html=1;fontSize=18;fontColor=#000000;sketch=1;curveFitting=1;jiggle=2;" parent="8OeCZrJnOi8lWYPYFjSx-2" vertex="1">
                    <mxGeometry y="120" width="180" height="250" as="geometry"/>
                </mxCell>
                <mxCell id="8OeCZrJnOi8lWYPYFjSx-8" value="Film d" style="text;strokeColor=none;fillColor=none;align=left;verticalAlign=middle;spacingLeft=4;spacingRight=4;overflow=hidden;points=[[0,0.5],[1,0.5]];portConstraint=eastwest;rotatable=0;whiteSpace=wrap;html=1;fontSize=18;fontColor=#000000;sketch=1;curveFitting=1;jiggle=2;" parent="1" vertex="1">
                    <mxGeometry x="270" y="460" width="200" height="30" as="geometry"/>
                </mxCell>
                <mxCell id="8OeCZrJnOi8lWYPYFjSx-10" value="Film e" style="text;strokeColor=none;fillColor=none;align=left;verticalAlign=middle;spacingLeft=4;spacingRight=4;overflow=hidden;points=[[0,0.5],[1,0.5]];portConstraint=eastwest;rotatable=0;whiteSpace=wrap;html=1;fontSize=18;fontColor=#000000;sketch=1;curveFitting=1;jiggle=2;" parent="1" vertex="1">
                    <mxGeometry x="270" y="490" width="200" height="30" as="geometry"/>
                </mxCell>
                <mxCell id="8OeCZrJnOi8lWYPYFjSx-11" value="Film F" style="text;strokeColor=none;fillColor=none;align=left;verticalAlign=middle;spacingLeft=4;spacingRight=4;overflow=hidden;points=[[0,0.5],[1,0.5]];portConstraint=eastwest;rotatable=0;whiteSpace=wrap;html=1;fontSize=18;fontColor=#000000;sketch=1;curveFitting=1;jiggle=2;" parent="1" vertex="1">
                    <mxGeometry x="270" y="520" width="200" height="30" as="geometry"/>
                </mxCell>
                <mxCell id="nuiHD-iWbQRkLaBl9GHw-1" value="" style="whiteSpace=wrap;html=1;aspect=fixed;strokeColor=#36393d;fontSize=18;fillColor=#eeeeee;shadow=0;sketch=1;curveFitting=1;jiggle=2;" parent="1" vertex="1">
                    <mxGeometry x="420" y="377" width="20" height="20" as="geometry"/>
                </mxCell>
                <mxCell id="nuiHD-iWbQRkLaBl9GHw-3" value="" style="whiteSpace=wrap;html=1;aspect=fixed;strokeColor=#36393d;fontSize=18;fillColor=#eeeeee;shadow=0;sketch=1;curveFitting=1;jiggle=2;" parent="1" vertex="1">
                    <mxGeometry x="421" y="525" width="20" height="20" as="geometry"/>
                </mxCell>
                <mxCell id="nuiHD-iWbQRkLaBl9GHw-4" value="" style="whiteSpace=wrap;html=1;aspect=fixed;strokeColor=#36393d;fontSize=18;fillColor=#eeeeee;shadow=0;sketch=1;curveFitting=1;jiggle=2;" parent="1" vertex="1">
                    <mxGeometry x="420" y="497" width="20" height="20" as="geometry"/>
                </mxCell>
                <mxCell id="nuiHD-iWbQRkLaBl9GHw-5" value="" style="whiteSpace=wrap;html=1;aspect=fixed;strokeColor=#36393d;fontSize=18;fillColor=#eeeeee;shadow=0;sketch=1;curveFitting=1;jiggle=2;" parent="1" vertex="1">
                    <mxGeometry x="420" y="470" width="20" height="20" as="geometry"/>
                </mxCell>
                <mxCell id="nuiHD-iWbQRkLaBl9GHw-6" value="" style="whiteSpace=wrap;html=1;aspect=fixed;strokeColor=#36393d;fontSize=18;fillColor=#eeeeee;shadow=0;sketch=1;curveFitting=1;jiggle=2;" parent="1" vertex="1">
                    <mxGeometry x="421" y="439" width="20" height="20" as="geometry"/>
                </mxCell>
                <mxCell id="nuiHD-iWbQRkLaBl9GHw-7" value="" style="whiteSpace=wrap;html=1;aspect=fixed;strokeColor=#36393d;fontSize=18;fillColor=#eeeeee;shadow=0;sketch=1;curveFitting=1;jiggle=2;" parent="1" vertex="1">
                    <mxGeometry x="421" y="408" width="20" height="20" as="geometry"/>
                </mxCell>
                <mxCell id="nuiHD-iWbQRkLaBl9GHw-14" value="" style="line;strokeWidth=2;html=1;rounded=0;shadow=0;glass=0;sketch=1;strokeColor=#0A0A0A;fontSize=18;fontColor=#000000;fillColor=#C7C7C7;" parent="1" vertex="1">
                    <mxGeometry x="425" y="384" width="10" height="10" as="geometry"/>
                </mxCell>
                <mxCell id="nuiHD-iWbQRkLaBl9GHw-15" value="" style="line;strokeWidth=2;html=1;rounded=0;shadow=0;glass=0;sketch=1;strokeColor=#0A0A0A;fontSize=18;fontColor=#000000;fillColor=#C7C7C7;" parent="1" vertex="1">
                    <mxGeometry x="427" y="414" width="10" height="10" as="geometry"/>
                </mxCell>
                <mxCell id="nuiHD-iWbQRkLaBl9GHw-16" value="" style="line;strokeWidth=2;html=1;rounded=0;shadow=0;glass=0;sketch=1;strokeColor=#0A0A0A;fontSize=18;fontColor=#000000;fillColor=#C7C7C7;" parent="1" vertex="1">
                    <mxGeometry x="427" y="445" width="10" height="10" as="geometry"/>
                </mxCell>
                <mxCell id="nuiHD-iWbQRkLaBl9GHw-17" value="" style="line;strokeWidth=2;html=1;rounded=0;shadow=0;glass=0;sketch=1;strokeColor=#0A0A0A;fontSize=18;fontColor=#000000;fillColor=#C7C7C7;" parent="1" vertex="1">
                    <mxGeometry x="426" y="475" width="10" height="10" as="geometry"/>
                </mxCell>
                <mxCell id="nuiHD-iWbQRkLaBl9GHw-18" value="" style="line;strokeWidth=2;html=1;rounded=0;shadow=0;glass=0;sketch=1;strokeColor=#0A0A0A;fontSize=18;fontColor=#000000;fillColor=#C7C7C7;" parent="1" vertex="1">
                    <mxGeometry x="426" y="500" width="10" height="10" as="geometry"/>
                </mxCell>
                <mxCell id="nuiHD-iWbQRkLaBl9GHw-19" value="" style="line;strokeWidth=2;html=1;rounded=0;shadow=0;glass=0;sketch=1;strokeColor=#0A0A0A;fontSize=18;fontColor=#000000;fillColor=#C7C7C7;" parent="1" vertex="1">
                    <mxGeometry x="426" y="532" width="10" height="10" as="geometry"/>
                </mxCell>
                <mxCell id="d3FTLzkJoDXz0WL4SUoI-2" value="&lt;font color=&quot;#000000&quot;&gt;Favoritter&lt;/font&gt;" style="swimlane;fontStyle=0;childLayout=stackLayout;horizontal=1;startSize=30;horizontalStack=0;resizeParent=1;resizeParentMax=0;resizeLast=0;collapsible=1;marginBottom=0;whiteSpace=wrap;html=1;strokeColor=#6c8ebf;fontSize=18;fillColor=#dae8fc;sketch=1;curveFitting=1;jiggle=2;align=center;" parent="1" vertex="1">
                    <mxGeometry x="460" y="342" width="200" height="370" as="geometry"/>
                </mxCell>
                <mxCell id="d3FTLzkJoDXz0WL4SUoI-3" value="#1&amp;nbsp; &amp;nbsp;Film1&lt;span style=&quot;white-space: pre;&quot;&gt;&#9;&lt;/span&gt;&amp;nbsp; &amp;nbsp;963" style="text;strokeColor=none;fillColor=none;align=left;verticalAlign=middle;spacingLeft=4;spacingRight=4;overflow=hidden;points=[[0,0.5],[1,0.5]];portConstraint=eastwest;rotatable=0;whiteSpace=wrap;html=1;fontSize=18;fontColor=#000000;sketch=1;curveFitting=1;jiggle=2;" parent="d3FTLzkJoDXz0WL4SUoI-2" vertex="1">
                    <mxGeometry y="30" width="200" height="30" as="geometry"/>
                </mxCell>
                <mxCell id="d3FTLzkJoDXz0WL4SUoI-4" value="#2&amp;nbsp; &amp;nbsp;Film2&lt;span style=&quot;white-space: pre;&quot;&gt;&#9;&lt;/span&gt;&amp;nbsp; &amp;nbsp;919" style="text;strokeColor=none;fillColor=none;align=left;verticalAlign=middle;spacingLeft=4;spacingRight=4;overflow=hidden;points=[[0,0.5],[1,0.5]];portConstraint=eastwest;rotatable=0;whiteSpace=wrap;html=1;fontSize=18;fontColor=#000000;sketch=1;curveFitting=1;jiggle=2;" parent="d3FTLzkJoDXz0WL4SUoI-2" vertex="1">
                    <mxGeometry y="60" width="200" height="30" as="geometry"/>
                </mxCell>
                <mxCell id="d3FTLzkJoDXz0WL4SUoI-5" value="#3&amp;nbsp; &amp;nbsp;Film3&lt;span style=&quot;white-space: pre;&quot;&gt;&#9;&lt;/span&gt;&amp;nbsp; &amp;nbsp;889" style="text;strokeColor=none;fillColor=none;align=left;verticalAlign=middle;spacingLeft=4;spacingRight=4;overflow=hidden;points=[[0,0.5],[1,0.5]];portConstraint=eastwest;rotatable=0;whiteSpace=wrap;html=1;fontSize=18;fontColor=#000000;sketch=1;curveFitting=1;jiggle=2;" parent="d3FTLzkJoDXz0WL4SUoI-2" vertex="1">
                    <mxGeometry y="90" width="200" height="30" as="geometry"/>
                </mxCell>
                <mxCell id="d3FTLzkJoDXz0WL4SUoI-6" value="#4&amp;nbsp; &amp;nbsp;Film4&lt;span style=&quot;white-space: pre;&quot;&gt;&#9;&lt;/span&gt;&amp;nbsp; &amp;nbsp;876" style="text;strokeColor=none;fillColor=none;align=left;verticalAlign=middle;spacingLeft=4;spacingRight=4;overflow=hidden;points=[[0,0.5],[1,0.5]];portConstraint=eastwest;rotatable=0;whiteSpace=wrap;html=1;fontSize=18;fontColor=#000000;sketch=1;curveFitting=1;jiggle=2;" parent="d3FTLzkJoDXz0WL4SUoI-2" vertex="1">
                    <mxGeometry y="120" width="200" height="30" as="geometry"/>
                </mxCell>
                <mxCell id="d3FTLzkJoDXz0WL4SUoI-7" value="#5&amp;nbsp; &amp;nbsp;Film5&lt;span style=&quot;white-space: pre;&quot;&gt;&#9;&lt;/span&gt;&amp;nbsp; &amp;nbsp;824" style="text;strokeColor=none;fillColor=none;align=left;verticalAlign=middle;spacingLeft=4;spacingRight=4;overflow=hidden;points=[[0,0.5],[1,0.5]];portConstraint=eastwest;rotatable=0;whiteSpace=wrap;html=1;fontSize=18;fontColor=#000000;sketch=1;curveFitting=1;jiggle=2;" parent="d3FTLzkJoDXz0WL4SUoI-2" vertex="1">
                    <mxGeometry y="150" width="200" height="30" as="geometry"/>
                </mxCell>
                <mxCell id="d3FTLzkJoDXz0WL4SUoI-8" value="#6&amp;nbsp; &amp;nbsp;Film6&lt;span style=&quot;white-space: pre;&quot;&gt;&#9;&lt;/span&gt;&amp;nbsp; &amp;nbsp;799" style="text;strokeColor=none;fillColor=none;align=left;verticalAlign=middle;spacingLeft=4;spacingRight=4;overflow=hidden;points=[[0,0.5],[1,0.5]];portConstraint=eastwest;rotatable=0;whiteSpace=wrap;html=1;fontSize=18;fontColor=#000000;sketch=1;curveFitting=1;jiggle=2;" parent="d3FTLzkJoDXz0WL4SUoI-2" vertex="1">
                    <mxGeometry y="180" width="200" height="30" as="geometry"/>
                </mxCell>
                <mxCell id="d3FTLzkJoDXz0WL4SUoI-9" value="#7&amp;nbsp; &amp;nbsp;Film7&lt;span style=&quot;white-space: pre;&quot;&gt;&#9;&lt;/span&gt;&amp;nbsp; &amp;nbsp;788" style="text;strokeColor=none;fillColor=none;align=left;verticalAlign=middle;spacingLeft=4;spacingRight=4;overflow=hidden;points=[[0,0.5],[1,0.5]];portConstraint=eastwest;rotatable=0;whiteSpace=wrap;html=1;fontSize=18;fontColor=#000000;sketch=1;curveFitting=1;jiggle=2;" parent="d3FTLzkJoDXz0WL4SUoI-2" vertex="1">
                    <mxGeometry y="210" width="200" height="30" as="geometry"/>
                </mxCell>
                <mxCell id="d3FTLzkJoDXz0WL4SUoI-10" value="#8&amp;nbsp; &amp;nbsp;Film8&lt;span style=&quot;white-space: pre;&quot;&gt;&#9;&lt;/span&gt;&amp;nbsp; &amp;nbsp;746" style="text;strokeColor=none;fillColor=none;align=left;verticalAlign=middle;spacingLeft=4;spacingRight=4;overflow=hidden;points=[[0,0.5],[1,0.5]];portConstraint=eastwest;rotatable=0;whiteSpace=wrap;html=1;fontSize=18;fontColor=#000000;sketch=1;curveFitting=1;jiggle=2;" parent="d3FTLzkJoDXz0WL4SUoI-2" vertex="1">
                    <mxGeometry y="240" width="200" height="30" as="geometry"/>
                </mxCell>
                <mxCell id="d3FTLzkJoDXz0WL4SUoI-11" value="#9&amp;nbsp; &amp;nbsp;Film9&lt;span style=&quot;white-space: pre;&quot;&gt;&#9;&lt;/span&gt;&amp;nbsp; &amp;nbsp;712" style="text;strokeColor=none;fillColor=none;align=left;verticalAlign=middle;spacingLeft=4;spacingRight=4;overflow=hidden;points=[[0,0.5],[1,0.5]];portConstraint=eastwest;rotatable=0;whiteSpace=wrap;html=1;fontSize=18;fontColor=#000000;sketch=1;curveFitting=1;jiggle=2;" parent="d3FTLzkJoDXz0WL4SUoI-2" vertex="1">
                    <mxGeometry y="270" width="200" height="30" as="geometry"/>
                </mxCell>
                <mxCell id="d3FTLzkJoDXz0WL4SUoI-12" value="#10 Film10&lt;span style=&quot;white-space: pre;&quot;&gt;&#9;&lt;/span&gt;&amp;nbsp; &amp;nbsp;700" style="text;strokeColor=none;fillColor=none;align=left;verticalAlign=middle;spacingLeft=4;spacingRight=4;overflow=hidden;points=[[0,0.5],[1,0.5]];portConstraint=eastwest;rotatable=0;whiteSpace=wrap;html=1;fontSize=18;fontColor=#000000;sketch=1;curveFitting=1;jiggle=2;" parent="d3FTLzkJoDXz0WL4SUoI-2" vertex="1">
                    <mxGeometry y="300" width="200" height="30" as="geometry"/>
                </mxCell>
                <mxCell id="ld-QYOgLcN0n96JeOAu5-3" value="&lt;font style=&quot;font-size: 11px;&quot;&gt;&lt;span style=&quot;white-space: pre;&quot;&gt;&#9;&lt;/span&gt;&lt;span style=&quot;white-space: pre;&quot;&gt;&#9;&lt;/span&gt;&lt;span style=&quot;white-space: pre;&quot;&gt;&#9;&lt;/span&gt;&lt;span style=&quot;white-space: pre;&quot;&gt;&#9;&amp;nbsp;&lt;/span&gt;&amp;nbsp; &amp;nbsp; &amp;nbsp; (Din score)&lt;/font&gt;" style="text;html=1;strokeColor=none;fillColor=none;align=center;verticalAlign=middle;whiteSpace=wrap;rounded=0;shadow=0;glass=0;sketch=1;fillStyle=hachure;fontSize=15;fontColor=#000000;movable=1;resizable=1;rotatable=1;deletable=1;editable=1;connectable=1;" parent="d3FTLzkJoDXz0WL4SUoI-2" vertex="1">
                    <mxGeometry y="330" width="200" height="30" as="geometry"/>
                </mxCell>
                <mxCell id="d3FTLzkJoDXz0WL4SUoI-13" value="&lt;br&gt;" style="text;strokeColor=none;fillColor=none;align=left;verticalAlign=middle;spacingLeft=4;spacingRight=4;overflow=hidden;points=[[0,0.5],[1,0.5]];portConstraint=eastwest;rotatable=0;whiteSpace=wrap;html=1;fontSize=18;fontColor=#000000;sketch=1;curveFitting=1;jiggle=2;" parent="d3FTLzkJoDXz0WL4SUoI-2" vertex="1">
                    <mxGeometry y="360" width="200" height="10" as="geometry"/>
                </mxCell>
                <mxCell id="PoH5M1az8EsQJA_HRbVD-1" value="Logo" style="rounded=0;whiteSpace=wrap;html=1;shadow=0;glass=0;sketch=0;strokeColor=#0A0A0A;fontSize=18;fontColor=#000000;fillColor=#D4D2C9;" parent="1" vertex="1">
                    <mxGeometry x="90" y="80" width="120" height="60" as="geometry"/>
                </mxCell>
                <mxCell id="-djMDMctP_foZ7ppIZOq-4" value="Søk...&amp;nbsp; &amp;nbsp; &amp;nbsp; &amp;nbsp; &amp;nbsp; &amp;nbsp; &amp;nbsp; &amp;nbsp; &amp;nbsp; &amp;nbsp; &amp;nbsp; &amp;nbsp; &amp;nbsp; &amp;nbsp; &amp;nbsp; &amp;nbsp; &amp;nbsp; &amp;nbsp; &amp;nbsp; &amp;nbsp; &amp;nbsp;" style="rounded=1;whiteSpace=wrap;html=1;shadow=0;glass=0;sketch=0;strokeColor=#0A0A0A;fontSize=18;fontColor=#000000;fillColor=#D4D2C9;" parent="1" vertex="1">
                    <mxGeometry x="580" y="85" width="330" height="45" as="geometry"/>
                </mxCell>
                <mxCell id="tYuhfmE9Bq1BqBm0mIVg-1" value="Hjem" style="rounded=1;whiteSpace=wrap;html=1;shadow=0;glass=0;sketch=0;strokeColor=#0A0A0A;fontSize=18;fontColor=#000000;fillColor=#D4D2C9;" parent="1" vertex="1">
                    <mxGeometry x="1033" y="80" width="90" height="50" as="geometry"/>
                </mxCell>
                <mxCell id="tYuhfmE9Bq1BqBm0mIVg-2" value="&lt;font color=&quot;#7a7a7a&quot;&gt;Profil&lt;/font&gt;" style="rounded=1;whiteSpace=wrap;html=1;shadow=0;glass=0;sketch=0;strokeColor=#0A0A0A;fontSize=18;fontColor=#000000;fillColor=#D4D2C9;" parent="1" vertex="1">
                    <mxGeometry x="1144" y="80" width="90" height="50" as="geometry"/>
                </mxCell>
                <mxCell id="tYuhfmE9Bq1BqBm0mIVg-3" value="&lt;font color=&quot;#080808&quot;&gt;Logg ut&lt;/font&gt;" style="rounded=1;whiteSpace=wrap;html=1;shadow=0;glass=0;sketch=0;strokeColor=#0A0A0A;fontSize=18;fontColor=#000000;fillColor=#D4D2C9;" parent="1" vertex="1">
                    <mxGeometry x="1252" y="80" width="90" height="50" as="geometry"/>
                </mxCell>
                <mxCell id="tYuhfmE9Bq1BqBm0mIVg-4" value="Endre profil" style="rounded=1;whiteSpace=wrap;html=1;shadow=0;glass=0;sketch=0;strokeColor=#0A0A0A;fontSize=18;fontColor=#080808;fillColor=#D4D2C9;" parent="1" vertex="1">
                    <mxGeometry x="220" y="80" width="100" height="60" as="geometry"/>
                </mxCell>
                <mxCell id="nG5vu6XphViLfwqzQ7K2-3" value="&lt;font color=&quot;#080808&quot;&gt;Dine vurderinger&lt;/font&gt;" style="rounded=0;whiteSpace=wrap;html=1;shadow=0;glass=0;sketch=1;strokeColor=#36393d;fontSize=18;fillColor=#cce5ff;" parent="1" vertex="1">
                    <mxGeometry x="670" y="160" width="240" height="30" as="geometry"/>
                </mxCell>
                <mxCell id="nG5vu6XphViLfwqzQ7K2-4" value="" style="rounded=0;whiteSpace=wrap;html=1;shadow=0;glass=0;sketch=1;strokeColor=#0A0A0A;fontSize=18;fontColor=#080808;fillColor=#D4D2C9;" parent="1" vertex="1">
                    <mxGeometry x="670" y="190" width="240" height="520" as="geometry"/>
                </mxCell>
                <mxCell id="nG5vu6XphViLfwqzQ7K2-5" value="&lt;font style=&quot;font-size: 11px;&quot;&gt;Tittel&amp;nbsp; &amp;nbsp; &amp;nbsp; &amp;nbsp; &amp;nbsp; &amp;nbsp; &amp;nbsp; &amp;nbsp; &amp;nbsp; &amp;nbsp; &amp;nbsp; &amp;nbsp; &amp;nbsp; &amp;nbsp; &amp;nbsp; &amp;nbsp;Din score&amp;nbsp; &amp;nbsp; &amp;nbsp;Gj. Score&amp;nbsp; &amp;nbsp;&lt;/font&gt;" style="rounded=0;whiteSpace=wrap;html=1;shadow=0;glass=0;sketch=1;strokeColor=#0A0A0A;fontSize=18;fontColor=#080808;fillColor=#D4D2C9;" parent="1" vertex="1">
                    <mxGeometry x="670" y="190" width="240" height="20" as="geometry"/>
                </mxCell>
                <mxCell id="nG5vu6XphViLfwqzQ7K2-6" value="" style="line;strokeWidth=2;direction=south;html=1;rounded=0;shadow=0;glass=0;sketch=1;strokeColor=#0A0A0A;fontSize=11;fontColor=#080808;fillColor=#D4D2C9;" parent="1" vertex="1">
                    <mxGeometry x="845" y="190" width="10" height="520" as="geometry"/>
                </mxCell>
                <mxCell id="nG5vu6XphViLfwqzQ7K2-7" value="" style="line;strokeWidth=2;direction=south;html=1;rounded=0;shadow=0;glass=0;sketch=1;strokeColor=#0A0A0A;fontSize=11;fontColor=#080808;fillColor=#D4D2C9;" parent="1" vertex="1">
                    <mxGeometry x="785" y="200" width="10" height="520" as="geometry"/>
                </mxCell>
                <mxCell id="HZFSWg-gLj-PsbB3Q-xQ-7" value="&lt;font style=&quot;font-size: 18px;&quot;&gt;Film&lt;/font&gt;&lt;span style=&quot;color: rgba(0, 0, 0, 0); font-family: monospace; font-size: 0px; text-align: start;&quot;&gt;%3CmxGraphModel%3E%3Croot%3E%3CmxCell%20id%3D%220%22%2F%3E%3CmxCell%20id%3D%221%22%20parent%3D%220%22%2F%3E%3CmxCell%20id%3D%222%22%20value%3D%22%22%20style%3D%22line%3BstrokeWidth%3D2%3Bdirection%3Dsouth%3Bhtml%3D1%3Brounded%3D0%3Bshadow%3D0%3Bglass%3D0%3Bsketch%3D1%3BstrokeColor%3D%230A0A0A%3BfontSize%3D11%3BfontColor%3D%23080808%3BfillColor%3D%23D4D2C9%3B%22%20vertex%3D%221%22%20parent%3D%221%22%3E%3CmxGeometry%20x%3D%22845%22%20y%3D%22190%22%20width%3D%2210%22%20height%3D%22520%22%20as%3D%22geometry%22%2F%3E%3C%2FmxCell%3E%3C%2Froot%3E%3C%2FmxGraphModel%3E&lt;/span&gt;&lt;span style=&quot;color: rgba(0, 0, 0, 0); font-family: monospace; font-size: 0px; text-align: start;&quot;&gt;%3CmxGraphModel%3E%3Croot%3E%3CmxCell%20id%3D%220%22%2F%3E%3CmxCell%20id%3D%221%22%20parent%3D%220%22%2F%3E%3CmxCell%20id%3D%222%22%20value%3D%22%22%20style%3D%22line%3BstrokeWidth%3D2%3Bdirection%3Dsouth%3Bhtml%3D1%3Brounded%3D0%3Bshadow%3D0%3Bglass%3D0%3Bsketch%3D1%3BstrokeColor%3D%230A0A0A%3BfontSize%3D11%3BfontColor%3D%23080808%3BfillColor%3D%23D4D2C9%3B%22%20vertex%3D%221%22%20parent%3D%221%22%3E%3CmxGeometry%20x%3D%22845%22%20y%3D%22190%22%20width%3D%2210%22%20height%3D%22520%22%20as%3D%22geometry%22%2F%3E%3C%2FmxCell%3E%3C%2Froot%3E%3C%2FmxGraphModel%3E&lt;/span&gt;" style="text;html=1;strokeColor=none;fillColor=none;align=center;verticalAlign=middle;whiteSpace=wrap;rounded=0;shadow=0;glass=0;sketch=1;fontSize=11;fontColor=#080808;movable=0;resizable=0;rotatable=0;deletable=0;editable=0;connectable=0;" parent="1" vertex="1">
                    <mxGeometry x="680" y="273" width="40" height="30" as="geometry"/>
                </mxCell>
                <mxCell id="HZFSWg-gLj-PsbB3Q-xQ-8" value="&lt;font style=&quot;font-size: 18px;&quot;&gt;Film&lt;/font&gt;&lt;span style=&quot;color: rgba(0, 0, 0, 0); font-family: monospace; font-size: 0px; text-align: start;&quot;&gt;%3CmxGraphModel%3E%3Croot%3E%3CmxCell%20id%3D%220%22%2F%3E%3CmxCell%20id%3D%221%22%20parent%3D%220%22%2F%3E%3CmxCell%20id%3D%222%22%20value%3D%22%22%20style%3D%22line%3BstrokeWidth%3D2%3Bdirection%3Dsouth%3Bhtml%3D1%3Brounded%3D0%3Bshadow%3D0%3Bglass%3D0%3Bsketch%3D1%3BstrokeColor%3D%230A0A0A%3BfontSize%3D11%3BfontColor%3D%23080808%3BfillColor%3D%23D4D2C9%3B%22%20vertex%3D%221%22%20parent%3D%221%22%3E%3CmxGeometry%20x%3D%22845%22%20y%3D%22190%22%20width%3D%2210%22%20height%3D%22520%22%20as%3D%22geometry%22%2F%3E%3C%2FmxCell%3E%3C%2Froot%3E%3C%2FmxGraphModel%3E&lt;/span&gt;&lt;span style=&quot;color: rgba(0, 0, 0, 0); font-family: monospace; font-size: 0px; text-align: start;&quot;&gt;%3CmxGraphModel%3E%3Croot%3E%3CmxCell%20id%3D%220%22%2F%3E%3CmxCell%20id%3D%221%22%20parent%3D%220%22%2F%3E%3CmxCell%20id%3D%222%22%20value%3D%22%22%20style%3D%22line%3BstrokeWidth%3D2%3Bdirection%3Dsouth%3Bhtml%3D1%3Brounded%3D0%3Bshadow%3D0%3Bglass%3D0%3Bsketch%3D1%3BstrokeColor%3D%230A0A0A%3BfontSize%3D11%3BfontColor%3D%23080808%3BfillColor%3D%23D4D2C9%3B%22%20vertex%3D%221%22%20parent%3D%221%22%3E%3CmxGeometry%20x%3D%22845%22%20y%3D%22190%22%20width%3D%2210%22%20height%3D%22520%22%20as%3D%22geometry%22%2F%3E%3C%2FmxCell%3E%3C%2Froot%3E%3C%2FmxGraphModel%3E&lt;/span&gt;" style="text;html=1;strokeColor=none;fillColor=none;align=center;verticalAlign=middle;whiteSpace=wrap;rounded=0;shadow=0;glass=0;sketch=1;fontSize=11;fontColor=#080808;" parent="1" vertex="1">
                    <mxGeometry x="680" y="243" width="40" height="30" as="geometry"/>
                </mxCell>
                <mxCell id="HZFSWg-gLj-PsbB3Q-xQ-9" value="&lt;font style=&quot;font-size: 18px;&quot;&gt;Film&lt;/font&gt;&lt;span style=&quot;color: rgba(0, 0, 0, 0); font-family: monospace; font-size: 0px; text-align: start;&quot;&gt;%3CmxGraphModel%3E%3Croot%3E%3CmxCell%20id%3D%220%22%2F%3E%3CmxCell%20id%3D%221%22%20parent%3D%220%22%2F%3E%3CmxCell%20id%3D%222%22%20value%3D%22%22%20style%3D%22line%3BstrokeWidth%3D2%3Bdirection%3Dsouth%3Bhtml%3D1%3Brounded%3D0%3Bshadow%3D0%3Bglass%3D0%3Bsketch%3D1%3BstrokeColor%3D%230A0A0A%3BfontSize%3D11%3BfontColor%3D%23080808%3BfillColor%3D%23D4D2C9%3B%22%20vertex%3D%221%22%20parent%3D%221%22%3E%3CmxGeometry%20x%3D%22845%22%20y%3D%22190%22%20width%3D%2210%22%20height%3D%22520%22%20as%3D%22geometry%22%2F%3E%3C%2FmxCell%3E%3C%2Froot%3E%3C%2FmxGraphModel%3E&lt;/span&gt;&lt;span style=&quot;color: rgba(0, 0, 0, 0); font-family: monospace; font-size: 0px; text-align: start;&quot;&gt;%3CmxGraphModel%3E%3Croot%3E%3CmxCell%20id%3D%220%22%2F%3E%3CmxCell%20id%3D%221%22%20parent%3D%220%22%2F%3E%3CmxCell%20id%3D%222%22%20value%3D%22%22%20style%3D%22line%3BstrokeWidth%3D2%3Bdirection%3Dsouth%3Bhtml%3D1%3Brounded%3D0%3Bshadow%3D0%3Bglass%3D0%3Bsketch%3D1%3BstrokeColor%3D%230A0A0A%3BfontSize%3D11%3BfontColor%3D%23080808%3BfillColor%3D%23D4D2C9%3B%22%20vertex%3D%221%22%20parent%3D%221%22%3E%3CmxGeometry%20x%3D%22845%22%20y%3D%22190%22%20width%3D%2210%22%20height%3D%22520%22%20as%3D%22geometry%22%2F%3E%3C%2FmxCell%3E%3C%2Froot%3E%3C%2FmxGraphModel%3E&lt;/span&gt;" style="text;html=1;strokeColor=none;fillColor=none;align=center;verticalAlign=middle;whiteSpace=wrap;rounded=0;shadow=0;glass=0;sketch=1;fontSize=11;fontColor=#080808;" parent="1" vertex="1">
                    <mxGeometry x="680" y="214" width="40" height="30" as="geometry"/>
                </mxCell>
                <mxCell id="HZFSWg-gLj-PsbB3Q-xQ-11" value="963&lt;span style=&quot;color: rgba(0, 0, 0, 0); font-family: monospace; font-size: 0px; text-align: start;&quot;&gt;%3CmxGraphModel%3E%3Croot%3E%3CmxCell%20id%3D%220%22%2F%3E%3CmxCell%20id%3D%221%22%20parent%3D%220%22%2F%3E%3CmxCell%20id%3D%222%22%20value%3D%22%26lt%3Bfont%20style%3D%26quot%3Bfont-size%3A%2018px%3B%26quot%3B%26gt%3BFilm%26lt%3B%2Ffont%26gt%3B%26lt%3Bspan%20style%3D%26quot%3Bcolor%3A%20rgba(0%2C%200%2C%200%2C%200)%3B%20font-family%3A%20monospace%3B%20font-size%3A%200px%3B%20text-align%3A%20start%3B%26quot%3B%26gt%3B%253CmxGraphModel%253E%253Croot%253E%253CmxCell%2520id%253D%25220%2522%252F%253E%253CmxCell%2520id%253D%25221%2522%2520parent%253D%25220%2522%252F%253E%253CmxCell%2520id%253D%25222%2522%2520value%253D%2522%2522%2520style%253D%2522line%253BstrokeWidth%253D2%253Bdirection%253Dsouth%253Bhtml%253D1%253Brounded%253D0%253Bshadow%253D0%253Bglass%253D0%253Bsketch%253D1%253BstrokeColor%253D%25230A0A0A%253BfontSize%253D11%253BfontColor%253D%2523080808%253BfillColor%253D%2523D4D2C9%253B%2522%2520vertex%253D%25221%2522%2520parent%253D%25221%2522%253E%253CmxGeometry%2520x%253D%2522845%2522%2520y%253D%2522190%2522%2520width%253D%252210%2522%2520height%253D%2522520%2522%2520as%253D%2522geometry%2522%252F%253E%253C%252FmxCell%253E%253C%252Froot%253E%253C%252FmxGraphModel%253E%26lt%3B%2Fspan%26gt%3B%26lt%3Bspan%20style%3D%26quot%3Bcolor%3A%20rgba(0%2C%200%2C%200%2C%200)%3B%20font-family%3A%20monospace%3B%20font-size%3A%200px%3B%20text-align%3A%20start%3B%26quot%3B%26gt%3B%253CmxGraphModel%253E%253Croot%253E%253CmxCell%2520id%253D%25220%2522%252F%253E%253CmxCell%2520id%253D%25221%2522%2520parent%253D%25220%2522%252F%253E%253CmxCell%2520id%253D%25222%2522%2520value%253D%2522%2522%2520style%253D%2522line%253BstrokeWidth%253D2%253Bdirection%253Dsouth%253Bhtml%253D1%253Brounded%253D0%253Bshadow%253D0%253Bglass%253D0%253Bsketch%253D1%253BstrokeColor%253D%25230A0A0A%253BfontSize%253D11%253BfontColor%253D%2523080808%253BfillColor%253D%2523D4D2C9%253B%2522%2520vertex%253D%25221%2522%2520parent%253D%25221%2522%253E%253CmxGeometry%2520x%253D%2522845%2522%2520y%253D%2522190%2522%2520width%253D%252210%2522%2520height%253D%2522520%2522%2520as%253D%2522geometry%2522%252F%253E%253C%252FmxCell%253E%253C%252Froot%253E%253C%252FmxGraphModel%253E%26lt%3B%2Fspan%26gt%3B%22%20style%3D%22text%3Bhtml%3D1%3BstrokeColor%3Dnone%3BfillColor%3Dnone%3Balign%3Dcenter%3BverticalAlign%3Dmiddle%3BwhiteSpace%3Dwrap%3Brounded%3D0%3Bshadow%3D0%3Bglass%3D0%3Bsketch%3D1%3BfontSize%3D11%3BfontColor%3D%23080808%3B%22%20vertex%3D%221%22%20parent%3D%221%22%3E%3CmxGeometry%20x%3D%22680%22%20y%3D%22260%22%20width%3D%2240%22%20height%3D%2230%22%20as%3D%22geometry%22%2F%3E%3C%2FmxCell%3E%3C%2Froot%3E%3C%2FmxGraphModel%3E&lt;/span&gt;" style="text;html=1;strokeColor=none;fillColor=none;align=center;verticalAlign=middle;whiteSpace=wrap;rounded=0;shadow=0;glass=0;sketch=1;fontSize=18;fontColor=#080808;" parent="1" vertex="1">
                    <mxGeometry x="790" y="213" width="60" height="30" as="geometry"/>
                </mxCell>
                <mxCell id="HZFSWg-gLj-PsbB3Q-xQ-12" value="567" style="text;html=1;strokeColor=none;fillColor=none;align=center;verticalAlign=middle;whiteSpace=wrap;rounded=0;shadow=0;glass=0;sketch=1;fontSize=18;fontColor=#080808;" parent="1" vertex="1">
                    <mxGeometry x="849" y="212" width="60" height="30" as="geometry"/>
                </mxCell>
                <mxCell id="HZFSWg-gLj-PsbB3Q-xQ-15" value="Dine kommentarer" style="shape=table;startSize=30;container=1;collapsible=0;childLayout=tableLayout;fixedRows=1;rowLines=0;fontStyle=0;rounded=0;shadow=0;glass=0;sketch=1;strokeColor=#36393d;fontSize=18;fillColor=#cce5ff;fontColor=#080808;" parent="1" vertex="1">
                    <mxGeometry x="920" y="160" width="460" height="550" as="geometry"/>
                </mxCell>
                <mxCell id="HZFSWg-gLj-PsbB3Q-xQ-16" value="" style="shape=tableRow;horizontal=0;startSize=0;swimlaneHead=0;swimlaneBody=0;top=0;left=0;bottom=0;right=0;collapsible=0;dropTarget=0;fillColor=none;points=[[0,0.5],[1,0.5]];portConstraint=eastwest;rounded=0;shadow=0;glass=0;sketch=1;strokeColor=#0A0A0A;fontSize=18;fontColor=#080808;" parent="HZFSWg-gLj-PsbB3Q-xQ-15" vertex="1">
                    <mxGeometry y="30" width="460" height="30" as="geometry"/>
                </mxCell>
                <mxCell id="HZFSWg-gLj-PsbB3Q-xQ-17" value="Film T" style="shape=partialRectangle;html=1;whiteSpace=wrap;connectable=0;fillColor=none;top=0;left=0;bottom=0;right=0;overflow=hidden;pointerEvents=1;rounded=0;shadow=0;glass=0;sketch=1;strokeColor=#0A0A0A;fontSize=18;fontColor=#080808;" parent="HZFSWg-gLj-PsbB3Q-xQ-16" vertex="1">
                    <mxGeometry width="102" height="30" as="geometry">
                        <mxRectangle width="102" height="30" as="alternateBounds"/>
                    </mxGeometry>
                </mxCell>
                <mxCell id="HZFSWg-gLj-PsbB3Q-xQ-18" value="Denne var søppel" style="shape=partialRectangle;html=1;whiteSpace=wrap;connectable=0;fillColor=none;top=0;left=0;bottom=0;right=0;align=left;spacingLeft=6;overflow=hidden;rounded=0;shadow=0;glass=0;sketch=1;strokeColor=#0A0A0A;fontSize=18;fontColor=#080808;" parent="HZFSWg-gLj-PsbB3Q-xQ-16" vertex="1">
                    <mxGeometry x="102" width="358" height="30" as="geometry">
                        <mxRectangle width="358" height="30" as="alternateBounds"/>
                    </mxGeometry>
                </mxCell>
                <mxCell id="HZFSWg-gLj-PsbB3Q-xQ-19" value="" style="shape=tableRow;horizontal=0;startSize=0;swimlaneHead=0;swimlaneBody=0;top=0;left=0;bottom=0;right=0;collapsible=0;dropTarget=0;fillColor=none;points=[[0,0.5],[1,0.5]];portConstraint=eastwest;rounded=0;shadow=0;glass=0;sketch=1;strokeColor=#0A0A0A;fontSize=18;fontColor=#080808;" parent="HZFSWg-gLj-PsbB3Q-xQ-15" vertex="1">
                    <mxGeometry y="60" width="460" height="30" as="geometry"/>
                </mxCell>
                <mxCell id="HZFSWg-gLj-PsbB3Q-xQ-20" value="Film I" style="shape=partialRectangle;html=1;whiteSpace=wrap;connectable=0;fillColor=none;top=0;left=0;bottom=0;right=0;overflow=hidden;rounded=0;shadow=0;glass=0;sketch=1;strokeColor=#0A0A0A;fontSize=18;fontColor=#080808;" parent="HZFSWg-gLj-PsbB3Q-xQ-19" vertex="1">
                    <mxGeometry width="102" height="30" as="geometry">
                        <mxRectangle width="102" height="30" as="alternateBounds"/>
                    </mxGeometry>
                </mxCell>
                <mxCell id="HZFSWg-gLj-PsbB3Q-xQ-21" value="Nesten like bra som nr 2" style="shape=partialRectangle;html=1;whiteSpace=wrap;connectable=0;fillColor=none;top=0;left=0;bottom=0;right=0;align=left;spacingLeft=6;overflow=hidden;rounded=0;shadow=0;glass=0;sketch=1;strokeColor=#0A0A0A;fontSize=18;fontColor=#080808;" parent="HZFSWg-gLj-PsbB3Q-xQ-19" vertex="1">
                    <mxGeometry x="102" width="358" height="30" as="geometry">
                        <mxRectangle width="358" height="30" as="alternateBounds"/>
                    </mxGeometry>
                </mxCell>
                <mxCell id="HZFSWg-gLj-PsbB3Q-xQ-22" value="" style="shape=tableRow;horizontal=0;startSize=0;swimlaneHead=0;swimlaneBody=0;top=0;left=0;bottom=0;right=0;collapsible=0;dropTarget=0;fillColor=none;points=[[0,0.5],[1,0.5]];portConstraint=eastwest;rounded=0;shadow=0;glass=0;sketch=1;strokeColor=#0A0A0A;fontSize=18;fontColor=#080808;" parent="HZFSWg-gLj-PsbB3Q-xQ-15" vertex="1">
                    <mxGeometry y="90" width="460" height="30" as="geometry"/>
                </mxCell>
                <mxCell id="HZFSWg-gLj-PsbB3Q-xQ-23" value="Film F" style="shape=partialRectangle;html=1;whiteSpace=wrap;connectable=0;fillColor=none;top=0;left=0;bottom=0;right=0;overflow=hidden;rounded=0;shadow=0;glass=0;sketch=1;strokeColor=#0A0A0A;fontSize=18;fontColor=#080808;" parent="HZFSWg-gLj-PsbB3Q-xQ-22" vertex="1">
                    <mxGeometry width="102" height="30" as="geometry">
                        <mxRectangle width="102" height="30" as="alternateBounds"/>
                    </mxGeometry>
                </mxCell>
                <mxCell id="HZFSWg-gLj-PsbB3Q-xQ-24" value="Kanon soundtrack" style="shape=partialRectangle;html=1;whiteSpace=wrap;connectable=0;fillColor=none;top=0;left=0;bottom=0;right=0;align=left;spacingLeft=6;overflow=hidden;rounded=0;shadow=0;glass=0;sketch=1;strokeColor=#0A0A0A;fontSize=18;fontColor=#080808;" parent="HZFSWg-gLj-PsbB3Q-xQ-22" vertex="1">
                    <mxGeometry x="102" width="358" height="30" as="geometry">
                        <mxRectangle width="358" height="30" as="alternateBounds"/>
                    </mxGeometry>
                </mxCell>
                <mxCell id="HZFSWg-gLj-PsbB3Q-xQ-25" value="" style="shape=tableRow;horizontal=0;startSize=0;swimlaneHead=0;swimlaneBody=0;top=0;left=0;bottom=0;right=0;collapsible=0;dropTarget=0;fillColor=none;points=[[0,0.5],[1,0.5]];portConstraint=eastwest;rounded=0;shadow=0;glass=0;sketch=1;strokeColor=#0A0A0A;fontSize=18;fontColor=#080808;" parent="HZFSWg-gLj-PsbB3Q-xQ-15" vertex="1">
                    <mxGeometry y="120" width="460" height="30" as="geometry"/>
                </mxCell>
                <mxCell id="HZFSWg-gLj-PsbB3Q-xQ-26" value="Film M" style="shape=partialRectangle;html=1;whiteSpace=wrap;connectable=0;fillColor=none;top=0;left=0;bottom=0;right=0;overflow=hidden;rounded=0;shadow=0;glass=0;sketch=1;strokeColor=#0A0A0A;fontSize=18;fontColor=#080808;" parent="HZFSWg-gLj-PsbB3Q-xQ-25" vertex="1">
                    <mxGeometry width="102" height="30" as="geometry">
                        <mxRectangle width="102" height="30" as="alternateBounds"/>
                    </mxGeometry>
                </mxCell>
                <mxCell id="HZFSWg-gLj-PsbB3Q-xQ-27" value="Value 3" style="shape=partialRectangle;html=1;whiteSpace=wrap;connectable=0;fillColor=none;top=0;left=0;bottom=0;right=0;align=left;spacingLeft=6;overflow=hidden;rounded=0;shadow=0;glass=0;sketch=1;strokeColor=#0A0A0A;fontSize=18;fontColor=#080808;" parent="HZFSWg-gLj-PsbB3Q-xQ-25" vertex="1">
                    <mxGeometry x="102" width="358" height="30" as="geometry">
                        <mxRectangle width="358" height="30" as="alternateBounds"/>
                    </mxGeometry>
                </mxCell>
                <mxCell id="HZFSWg-gLj-PsbB3Q-xQ-28" value="" style="shape=tableRow;horizontal=0;startSize=0;swimlaneHead=0;swimlaneBody=0;top=0;left=0;bottom=0;right=0;collapsible=0;dropTarget=0;fillColor=none;points=[[0,0.5],[1,0.5]];portConstraint=eastwest;rounded=0;shadow=0;glass=0;sketch=1;strokeColor=#0A0A0A;fontSize=18;fontColor=#080808;" parent="HZFSWg-gLj-PsbB3Q-xQ-15" vertex="1">
                    <mxGeometry y="150" width="460" height="30" as="geometry"/>
                </mxCell>
                <mxCell id="HZFSWg-gLj-PsbB3Q-xQ-29" value="Film D" style="shape=partialRectangle;html=1;whiteSpace=wrap;connectable=0;fillColor=none;top=0;left=0;bottom=0;right=0;overflow=hidden;rounded=0;shadow=0;glass=0;sketch=1;strokeColor=#0A0A0A;fontSize=18;fontColor=#080808;" parent="HZFSWg-gLj-PsbB3Q-xQ-28" vertex="1">
                    <mxGeometry width="102" height="30" as="geometry">
                        <mxRectangle width="102" height="30" as="alternateBounds"/>
                    </mxGeometry>
                </mxCell>
                <mxCell id="HZFSWg-gLj-PsbB3Q-xQ-30" value="Value 3" style="shape=partialRectangle;html=1;whiteSpace=wrap;connectable=0;fillColor=none;top=0;left=0;bottom=0;right=0;align=left;spacingLeft=6;overflow=hidden;rounded=0;shadow=0;glass=0;sketch=1;strokeColor=#0A0A0A;fontSize=18;fontColor=#080808;" parent="HZFSWg-gLj-PsbB3Q-xQ-28" vertex="1">
                    <mxGeometry x="102" width="358" height="30" as="geometry">
                        <mxRectangle width="358" height="30" as="alternateBounds"/>
                    </mxGeometry>
                </mxCell>
                <mxCell id="HZFSWg-gLj-PsbB3Q-xQ-31" value="" style="shape=tableRow;horizontal=0;startSize=0;swimlaneHead=0;swimlaneBody=0;top=0;left=0;bottom=0;right=0;collapsible=0;dropTarget=0;fillColor=none;points=[[0,0.5],[1,0.5]];portConstraint=eastwest;rounded=0;shadow=0;glass=0;sketch=1;strokeColor=#0A0A0A;fontSize=18;fontColor=#080808;" parent="HZFSWg-gLj-PsbB3Q-xQ-15" vertex="1">
                    <mxGeometry y="180" width="460" height="30" as="geometry"/>
                </mxCell>
                <mxCell id="HZFSWg-gLj-PsbB3Q-xQ-32" value="Film Q" style="shape=partialRectangle;html=1;whiteSpace=wrap;connectable=0;fillColor=none;top=0;left=0;bottom=0;right=0;overflow=hidden;rounded=0;shadow=0;glass=0;sketch=1;strokeColor=#0A0A0A;fontSize=18;fontColor=#080808;" parent="HZFSWg-gLj-PsbB3Q-xQ-31" vertex="1">
                    <mxGeometry width="102" height="30" as="geometry">
                        <mxRectangle width="102" height="30" as="alternateBounds"/>
                    </mxGeometry>
                </mxCell>
                <mxCell id="HZFSWg-gLj-PsbB3Q-xQ-33" value="Value 3" style="shape=partialRectangle;html=1;whiteSpace=wrap;connectable=0;fillColor=none;top=0;left=0;bottom=0;right=0;align=left;spacingLeft=6;overflow=hidden;rounded=0;shadow=0;glass=0;sketch=1;strokeColor=#0A0A0A;fontSize=18;fontColor=#080808;" parent="HZFSWg-gLj-PsbB3Q-xQ-31" vertex="1">
                    <mxGeometry x="102" width="358" height="30" as="geometry">
                        <mxRectangle width="358" height="30" as="alternateBounds"/>
                    </mxGeometry>
                </mxCell>
                <mxCell id="HZFSWg-gLj-PsbB3Q-xQ-34" value="" style="shape=tableRow;horizontal=0;startSize=0;swimlaneHead=0;swimlaneBody=0;top=0;left=0;bottom=0;right=0;collapsible=0;dropTarget=0;fillColor=none;points=[[0,0.5],[1,0.5]];portConstraint=eastwest;rounded=0;shadow=0;glass=0;sketch=1;strokeColor=#0A0A0A;fontSize=18;fontColor=#080808;" parent="HZFSWg-gLj-PsbB3Q-xQ-15" vertex="1">
                    <mxGeometry y="210" width="460" height="30" as="geometry"/>
                </mxCell>
                <mxCell id="HZFSWg-gLj-PsbB3Q-xQ-35" value="Film Y" style="shape=partialRectangle;html=1;whiteSpace=wrap;connectable=0;fillColor=none;top=0;left=0;bottom=0;right=0;overflow=hidden;rounded=0;shadow=0;glass=0;sketch=1;strokeColor=#0A0A0A;fontSize=18;fontColor=#080808;" parent="HZFSWg-gLj-PsbB3Q-xQ-34" vertex="1">
                    <mxGeometry width="102" height="30" as="geometry">
                        <mxRectangle width="102" height="30" as="alternateBounds"/>
                    </mxGeometry>
                </mxCell>
                <mxCell id="HZFSWg-gLj-PsbB3Q-xQ-36" value="Value 3" style="shape=partialRectangle;html=1;whiteSpace=wrap;connectable=0;fillColor=none;top=0;left=0;bottom=0;right=0;align=left;spacingLeft=6;overflow=hidden;rounded=0;shadow=0;glass=0;sketch=1;strokeColor=#0A0A0A;fontSize=18;fontColor=#080808;" parent="HZFSWg-gLj-PsbB3Q-xQ-34" vertex="1">
                    <mxGeometry x="102" width="358" height="30" as="geometry">
                        <mxRectangle width="358" height="30" as="alternateBounds"/>
                    </mxGeometry>
                </mxCell>
                <mxCell id="HZFSWg-gLj-PsbB3Q-xQ-37" value="" style="shape=tableRow;horizontal=0;startSize=0;swimlaneHead=0;swimlaneBody=0;top=0;left=0;bottom=0;right=0;collapsible=0;dropTarget=0;fillColor=none;points=[[0,0.5],[1,0.5]];portConstraint=eastwest;rounded=0;shadow=0;glass=0;sketch=1;strokeColor=#0A0A0A;fontSize=18;fontColor=#080808;" parent="HZFSWg-gLj-PsbB3Q-xQ-15" vertex="1">
                    <mxGeometry y="240" width="460" height="30" as="geometry"/>
                </mxCell>
                <mxCell id="HZFSWg-gLj-PsbB3Q-xQ-38" value="Film P" style="shape=partialRectangle;html=1;whiteSpace=wrap;connectable=0;fillColor=none;top=0;left=0;bottom=0;right=0;overflow=hidden;rounded=0;shadow=0;glass=0;sketch=1;strokeColor=#0A0A0A;fontSize=18;fontColor=#080808;" parent="HZFSWg-gLj-PsbB3Q-xQ-37" vertex="1">
                    <mxGeometry width="102" height="30" as="geometry">
                        <mxRectangle width="102" height="30" as="alternateBounds"/>
                    </mxGeometry>
                </mxCell>
                <mxCell id="HZFSWg-gLj-PsbB3Q-xQ-39" value="Value 3" style="shape=partialRectangle;html=1;whiteSpace=wrap;connectable=0;fillColor=none;top=0;left=0;bottom=0;right=0;align=left;spacingLeft=6;overflow=hidden;rounded=0;shadow=0;glass=0;sketch=1;strokeColor=#0A0A0A;fontSize=18;fontColor=#080808;" parent="HZFSWg-gLj-PsbB3Q-xQ-37" vertex="1">
                    <mxGeometry x="102" width="358" height="30" as="geometry">
                        <mxRectangle width="358" height="30" as="alternateBounds"/>
                    </mxGeometry>
                </mxCell>
                <mxCell id="HZFSWg-gLj-PsbB3Q-xQ-40" value="" style="shape=tableRow;horizontal=0;startSize=0;swimlaneHead=0;swimlaneBody=0;top=0;left=0;bottom=0;right=0;collapsible=0;dropTarget=0;fillColor=none;points=[[0,0.5],[1,0.5]];portConstraint=eastwest;rounded=0;shadow=0;glass=0;sketch=1;strokeColor=#0A0A0A;fontSize=18;fontColor=#080808;" parent="HZFSWg-gLj-PsbB3Q-xQ-15" vertex="1">
                    <mxGeometry y="270" width="460" height="30" as="geometry"/>
                </mxCell>
                <mxCell id="HZFSWg-gLj-PsbB3Q-xQ-41" value="Film A" style="shape=partialRectangle;html=1;whiteSpace=wrap;connectable=0;fillColor=none;top=0;left=0;bottom=0;right=0;overflow=hidden;rounded=0;shadow=0;glass=0;sketch=1;strokeColor=#0A0A0A;fontSize=18;fontColor=#080808;" parent="HZFSWg-gLj-PsbB3Q-xQ-40" vertex="1">
                    <mxGeometry width="102" height="30" as="geometry">
                        <mxRectangle width="102" height="30" as="alternateBounds"/>
                    </mxGeometry>
                </mxCell>
                <mxCell id="HZFSWg-gLj-PsbB3Q-xQ-42" value="Value 3" style="shape=partialRectangle;html=1;whiteSpace=wrap;connectable=0;fillColor=none;top=0;left=0;bottom=0;right=0;align=left;spacingLeft=6;overflow=hidden;rounded=0;shadow=0;glass=0;sketch=1;strokeColor=#0A0A0A;fontSize=18;fontColor=#080808;" parent="HZFSWg-gLj-PsbB3Q-xQ-40" vertex="1">
                    <mxGeometry x="102" width="358" height="30" as="geometry">
                        <mxRectangle width="358" height="30" as="alternateBounds"/>
                    </mxGeometry>
                </mxCell>
                <mxCell id="HZFSWg-gLj-PsbB3Q-xQ-71" value="" style="shape=tableRow;horizontal=0;startSize=0;swimlaneHead=0;swimlaneBody=0;top=0;left=0;bottom=0;right=0;collapsible=0;dropTarget=0;fillColor=none;points=[[0,0.5],[1,0.5]];portConstraint=eastwest;rounded=0;shadow=0;glass=0;sketch=1;strokeColor=#0A0A0A;fontSize=18;fontColor=#080808;" parent="HZFSWg-gLj-PsbB3Q-xQ-15" vertex="1">
                    <mxGeometry y="300" width="460" height="30" as="geometry"/>
                </mxCell>
                <mxCell id="HZFSWg-gLj-PsbB3Q-xQ-72" value="Film K" style="shape=partialRectangle;html=1;whiteSpace=wrap;connectable=0;fillColor=none;top=0;left=0;bottom=0;right=0;overflow=hidden;rounded=0;shadow=0;glass=0;sketch=1;strokeColor=#0A0A0A;fontSize=18;fontColor=#080808;" parent="HZFSWg-gLj-PsbB3Q-xQ-71" vertex="1">
                    <mxGeometry width="102" height="30" as="geometry">
                        <mxRectangle width="102" height="30" as="alternateBounds"/>
                    </mxGeometry>
                </mxCell>
                <mxCell id="HZFSWg-gLj-PsbB3Q-xQ-73" value="Value 3" style="shape=partialRectangle;html=1;whiteSpace=wrap;connectable=0;fillColor=none;top=0;left=0;bottom=0;right=0;align=left;spacingLeft=6;overflow=hidden;rounded=0;shadow=0;glass=0;sketch=1;strokeColor=#0A0A0A;fontSize=18;fontColor=#080808;" parent="HZFSWg-gLj-PsbB3Q-xQ-71" vertex="1">
                    <mxGeometry x="102" width="358" height="30" as="geometry">
                        <mxRectangle width="358" height="30" as="alternateBounds"/>
                    </mxGeometry>
                </mxCell>
                <mxCell id="HZFSWg-gLj-PsbB3Q-xQ-105" value="" style="shape=tableRow;horizontal=0;startSize=0;swimlaneHead=0;swimlaneBody=0;top=0;left=0;bottom=0;right=0;collapsible=0;dropTarget=0;fillColor=none;points=[[0,0.5],[1,0.5]];portConstraint=eastwest;rounded=0;shadow=0;glass=0;sketch=1;strokeColor=#0A0A0A;fontSize=18;fontColor=#080808;" parent="HZFSWg-gLj-PsbB3Q-xQ-15" vertex="1">
                    <mxGeometry y="330" width="460" height="30" as="geometry"/>
                </mxCell>
                <mxCell id="HZFSWg-gLj-PsbB3Q-xQ-106" value="Film T" style="shape=partialRectangle;html=1;whiteSpace=wrap;connectable=0;fillColor=none;top=0;left=0;bottom=0;right=0;overflow=hidden;rounded=0;shadow=0;glass=0;sketch=1;strokeColor=#0A0A0A;fontSize=18;fontColor=#080808;" parent="HZFSWg-gLj-PsbB3Q-xQ-105" vertex="1">
                    <mxGeometry width="102" height="30" as="geometry">
                        <mxRectangle width="102" height="30" as="alternateBounds"/>
                    </mxGeometry>
                </mxCell>
                <mxCell id="HZFSWg-gLj-PsbB3Q-xQ-107" value="Value 3" style="shape=partialRectangle;html=1;whiteSpace=wrap;connectable=0;fillColor=none;top=0;left=0;bottom=0;right=0;align=left;spacingLeft=6;overflow=hidden;rounded=0;shadow=0;glass=0;sketch=1;strokeColor=#0A0A0A;fontSize=18;fontColor=#080808;" parent="HZFSWg-gLj-PsbB3Q-xQ-105" vertex="1">
                    <mxGeometry x="102" width="358" height="30" as="geometry">
                        <mxRectangle width="358" height="30" as="alternateBounds"/>
                    </mxGeometry>
                </mxCell>
                <mxCell id="HZFSWg-gLj-PsbB3Q-xQ-108" value="" style="shape=tableRow;horizontal=0;startSize=0;swimlaneHead=0;swimlaneBody=0;top=0;left=0;bottom=0;right=0;collapsible=0;dropTarget=0;fillColor=none;points=[[0,0.5],[1,0.5]];portConstraint=eastwest;rounded=0;shadow=0;glass=0;sketch=1;strokeColor=#0A0A0A;fontSize=18;fontColor=#080808;" parent="HZFSWg-gLj-PsbB3Q-xQ-15" vertex="1">
                    <mxGeometry y="360" width="460" height="30" as="geometry"/>
                </mxCell>
                <mxCell id="HZFSWg-gLj-PsbB3Q-xQ-109" value="Film W" style="shape=partialRectangle;html=1;whiteSpace=wrap;connectable=0;fillColor=none;top=0;left=0;bottom=0;right=0;overflow=hidden;rounded=0;shadow=0;glass=0;sketch=1;strokeColor=#0A0A0A;fontSize=18;fontColor=#080808;" parent="HZFSWg-gLj-PsbB3Q-xQ-108" vertex="1">
                    <mxGeometry width="102" height="30" as="geometry">
                        <mxRectangle width="102" height="30" as="alternateBounds"/>
                    </mxGeometry>
                </mxCell>
                <mxCell id="HZFSWg-gLj-PsbB3Q-xQ-110" value="Value 3" style="shape=partialRectangle;html=1;whiteSpace=wrap;connectable=0;fillColor=none;top=0;left=0;bottom=0;right=0;align=left;spacingLeft=6;overflow=hidden;rounded=0;shadow=0;glass=0;sketch=1;strokeColor=#0A0A0A;fontSize=18;fontColor=#080808;" parent="HZFSWg-gLj-PsbB3Q-xQ-108" vertex="1">
                    <mxGeometry x="102" width="358" height="30" as="geometry">
                        <mxRectangle width="358" height="30" as="alternateBounds"/>
                    </mxGeometry>
                </mxCell>
                <mxCell id="HZFSWg-gLj-PsbB3Q-xQ-111" value="" style="shape=tableRow;horizontal=0;startSize=0;swimlaneHead=0;swimlaneBody=0;top=0;left=0;bottom=0;right=0;collapsible=0;dropTarget=0;fillColor=none;points=[[0,0.5],[1,0.5]];portConstraint=eastwest;rounded=0;shadow=0;glass=0;sketch=1;strokeColor=#0A0A0A;fontSize=18;fontColor=#080808;" parent="HZFSWg-gLj-PsbB3Q-xQ-15" vertex="1">
                    <mxGeometry y="390" width="460" height="30" as="geometry"/>
                </mxCell>
                <mxCell id="HZFSWg-gLj-PsbB3Q-xQ-112" value="Film G" style="shape=partialRectangle;html=1;whiteSpace=wrap;connectable=0;fillColor=none;top=0;left=0;bottom=0;right=0;overflow=hidden;rounded=0;shadow=0;glass=0;sketch=1;strokeColor=#0A0A0A;fontSize=18;fontColor=#080808;" parent="HZFSWg-gLj-PsbB3Q-xQ-111" vertex="1">
                    <mxGeometry width="102" height="30" as="geometry">
                        <mxRectangle width="102" height="30" as="alternateBounds"/>
                    </mxGeometry>
                </mxCell>
                <mxCell id="HZFSWg-gLj-PsbB3Q-xQ-113" value="Value 3" style="shape=partialRectangle;html=1;whiteSpace=wrap;connectable=0;fillColor=none;top=0;left=0;bottom=0;right=0;align=left;spacingLeft=6;overflow=hidden;rounded=0;shadow=0;glass=0;sketch=1;strokeColor=#0A0A0A;fontSize=18;fontColor=#080808;" parent="HZFSWg-gLj-PsbB3Q-xQ-111" vertex="1">
                    <mxGeometry x="102" width="358" height="30" as="geometry">
                        <mxRectangle width="358" height="30" as="alternateBounds"/>
                    </mxGeometry>
                </mxCell>
                <mxCell id="HZFSWg-gLj-PsbB3Q-xQ-114" value="" style="shape=tableRow;horizontal=0;startSize=0;swimlaneHead=0;swimlaneBody=0;top=0;left=0;bottom=0;right=0;collapsible=0;dropTarget=0;fillColor=none;points=[[0,0.5],[1,0.5]];portConstraint=eastwest;rounded=0;shadow=0;glass=0;sketch=1;strokeColor=#0A0A0A;fontSize=18;fontColor=#080808;" parent="HZFSWg-gLj-PsbB3Q-xQ-15" vertex="1">
                    <mxGeometry y="420" width="460" height="30" as="geometry"/>
                </mxCell>
                <mxCell id="HZFSWg-gLj-PsbB3Q-xQ-115" value="Film U" style="shape=partialRectangle;html=1;whiteSpace=wrap;connectable=0;fillColor=none;top=0;left=0;bottom=0;right=0;overflow=hidden;rounded=0;shadow=0;glass=0;sketch=1;strokeColor=#0A0A0A;fontSize=18;fontColor=#080808;" parent="HZFSWg-gLj-PsbB3Q-xQ-114" vertex="1">
                    <mxGeometry width="102" height="30" as="geometry">
                        <mxRectangle width="102" height="30" as="alternateBounds"/>
                    </mxGeometry>
                </mxCell>
                <mxCell id="HZFSWg-gLj-PsbB3Q-xQ-116" value="Value 3" style="shape=partialRectangle;html=1;whiteSpace=wrap;connectable=0;fillColor=none;top=0;left=0;bottom=0;right=0;align=left;spacingLeft=6;overflow=hidden;rounded=0;shadow=0;glass=0;sketch=1;strokeColor=#0A0A0A;fontSize=18;fontColor=#080808;" parent="HZFSWg-gLj-PsbB3Q-xQ-114" vertex="1">
                    <mxGeometry x="102" width="358" height="30" as="geometry">
                        <mxRectangle width="358" height="30" as="alternateBounds"/>
                    </mxGeometry>
                </mxCell>
                <mxCell id="HZFSWg-gLj-PsbB3Q-xQ-117" value="" style="shape=tableRow;horizontal=0;startSize=0;swimlaneHead=0;swimlaneBody=0;top=0;left=0;bottom=0;right=0;collapsible=0;dropTarget=0;fillColor=none;points=[[0,0.5],[1,0.5]];portConstraint=eastwest;rounded=0;shadow=0;glass=0;sketch=1;strokeColor=#0A0A0A;fontSize=18;fontColor=#080808;" parent="HZFSWg-gLj-PsbB3Q-xQ-15" vertex="1">
                    <mxGeometry y="450" width="460" height="30" as="geometry"/>
                </mxCell>
                <mxCell id="HZFSWg-gLj-PsbB3Q-xQ-118" value="Film C" style="shape=partialRectangle;html=1;whiteSpace=wrap;connectable=0;fillColor=none;top=0;left=0;bottom=0;right=0;overflow=hidden;rounded=0;shadow=0;glass=0;sketch=1;strokeColor=#0A0A0A;fontSize=18;fontColor=#080808;" parent="HZFSWg-gLj-PsbB3Q-xQ-117" vertex="1">
                    <mxGeometry width="102" height="30" as="geometry">
                        <mxRectangle width="102" height="30" as="alternateBounds"/>
                    </mxGeometry>
                </mxCell>
                <mxCell id="HZFSWg-gLj-PsbB3Q-xQ-119" value="Value 3" style="shape=partialRectangle;html=1;whiteSpace=wrap;connectable=0;fillColor=none;top=0;left=0;bottom=0;right=0;align=left;spacingLeft=6;overflow=hidden;rounded=0;shadow=0;glass=0;sketch=1;strokeColor=#0A0A0A;fontSize=18;fontColor=#080808;" parent="HZFSWg-gLj-PsbB3Q-xQ-117" vertex="1">
                    <mxGeometry x="102" width="358" height="30" as="geometry">
                        <mxRectangle width="358" height="30" as="alternateBounds"/>
                    </mxGeometry>
                </mxCell>
                <mxCell id="HZFSWg-gLj-PsbB3Q-xQ-120" value="" style="shape=tableRow;horizontal=0;startSize=0;swimlaneHead=0;swimlaneBody=0;top=0;left=0;bottom=0;right=0;collapsible=0;dropTarget=0;fillColor=none;points=[[0,0.5],[1,0.5]];portConstraint=eastwest;rounded=0;shadow=0;glass=0;sketch=1;strokeColor=#0A0A0A;fontSize=18;fontColor=#080808;" parent="HZFSWg-gLj-PsbB3Q-xQ-15" vertex="1">
                    <mxGeometry y="480" width="460" height="30" as="geometry"/>
                </mxCell>
                <mxCell id="HZFSWg-gLj-PsbB3Q-xQ-121" value="Film Z" style="shape=partialRectangle;html=1;whiteSpace=wrap;connectable=0;fillColor=none;top=0;left=0;bottom=0;right=0;overflow=hidden;rounded=0;shadow=0;glass=0;sketch=1;strokeColor=#0A0A0A;fontSize=18;fontColor=#080808;" parent="HZFSWg-gLj-PsbB3Q-xQ-120" vertex="1">
                    <mxGeometry width="102" height="30" as="geometry">
                        <mxRectangle width="102" height="30" as="alternateBounds"/>
                    </mxGeometry>
                </mxCell>
                <mxCell id="HZFSWg-gLj-PsbB3Q-xQ-122" value="Value 3" style="shape=partialRectangle;html=1;whiteSpace=wrap;connectable=0;fillColor=none;top=0;left=0;bottom=0;right=0;align=left;spacingLeft=6;overflow=hidden;rounded=0;shadow=0;glass=0;sketch=1;strokeColor=#0A0A0A;fontSize=18;fontColor=#080808;" parent="HZFSWg-gLj-PsbB3Q-xQ-120" vertex="1">
                    <mxGeometry x="102" width="358" height="30" as="geometry">
                        <mxRectangle width="358" height="30" as="alternateBounds"/>
                    </mxGeometry>
                </mxCell>
                <mxCell id="HZFSWg-gLj-PsbB3Q-xQ-123" value="" style="shape=tableRow;horizontal=0;startSize=0;swimlaneHead=0;swimlaneBody=0;top=0;left=0;bottom=0;right=0;collapsible=0;dropTarget=0;fillColor=none;points=[[0,0.5],[1,0.5]];portConstraint=eastwest;rounded=0;shadow=0;glass=0;sketch=1;strokeColor=#0A0A0A;fontSize=18;fontColor=#080808;" parent="HZFSWg-gLj-PsbB3Q-xQ-15" vertex="1">
                    <mxGeometry y="510" width="460" height="30" as="geometry"/>
                </mxCell>
                <mxCell id="HZFSWg-gLj-PsbB3Q-xQ-124" value="Film B" style="shape=partialRectangle;html=1;whiteSpace=wrap;connectable=0;fillColor=none;top=0;left=0;bottom=0;right=0;overflow=hidden;rounded=0;shadow=0;glass=0;sketch=1;strokeColor=#0A0A0A;fontSize=18;fontColor=#080808;" parent="HZFSWg-gLj-PsbB3Q-xQ-123" vertex="1">
                    <mxGeometry width="102" height="30" as="geometry">
                        <mxRectangle width="102" height="30" as="alternateBounds"/>
                    </mxGeometry>
                </mxCell>
                <mxCell id="HZFSWg-gLj-PsbB3Q-xQ-125" value="Value 3" style="shape=partialRectangle;html=1;whiteSpace=wrap;connectable=0;fillColor=none;top=0;left=0;bottom=0;right=0;align=left;spacingLeft=6;overflow=hidden;rounded=0;shadow=0;glass=0;sketch=1;strokeColor=#0A0A0A;fontSize=18;fontColor=#080808;" parent="HZFSWg-gLj-PsbB3Q-xQ-123" vertex="1">
                    <mxGeometry x="102" width="358" height="30" as="geometry">
                        <mxRectangle width="358" height="30" as="alternateBounds"/>
                    </mxGeometry>
                </mxCell>
                <mxCell id="HZFSWg-gLj-PsbB3Q-xQ-126" value="458" style="text;html=1;strokeColor=none;fillColor=none;align=center;verticalAlign=middle;whiteSpace=wrap;rounded=0;shadow=0;glass=0;sketch=1;fontSize=18;fontColor=#080808;" parent="1" vertex="1">
                    <mxGeometry x="789" y="239" width="60" height="30" as="geometry"/>
                </mxCell>
                <mxCell id="HZFSWg-gLj-PsbB3Q-xQ-127" value="635" style="text;html=1;strokeColor=none;fillColor=none;align=center;verticalAlign=middle;whiteSpace=wrap;rounded=0;shadow=0;glass=0;sketch=1;fontSize=18;fontColor=#080808;" parent="1" vertex="1">
                    <mxGeometry x="849" y="238" width="60" height="30" as="geometry"/>
                </mxCell>
                <mxCell id="HZFSWg-gLj-PsbB3Q-xQ-128" value="789" style="text;html=1;strokeColor=none;fillColor=none;align=center;verticalAlign=middle;whiteSpace=wrap;rounded=0;shadow=0;glass=0;sketch=1;fontSize=18;fontColor=#080808;movable=0;resizable=0;rotatable=0;deletable=0;editable=0;connectable=0;" parent="1" vertex="1">
                    <mxGeometry x="790" y="265" width="60" height="30" as="geometry"/>
                </mxCell>
                <mxCell id="HZFSWg-gLj-PsbB3Q-xQ-129" value="754" style="text;html=1;strokeColor=none;fillColor=none;align=center;verticalAlign=middle;whiteSpace=wrap;rounded=0;shadow=0;glass=0;sketch=1;fontSize=18;fontColor=#080808;movable=0;resizable=0;rotatable=0;deletable=0;editable=0;connectable=0;" parent="1" vertex="1">
                    <mxGeometry x="850" y="265" width="60" height="30" as="geometry"/>
                </mxCell>
            </root>
        </mxGraphModel>
    </diagram>
    <diagram id="ISCMGk8v0yGyGZrBPuvs" name="filmside">
        <mxGraphModel dx="1600" dy="988" grid="1" gridSize="10" guides="1" tooltips="1" connect="1" arrows="1" fold="1" page="1" pageScale="1" pageWidth="850" pageHeight="1100" math="0" shadow="0">
            <root>
                <mxCell id="0"/>
                <mxCell id="1" parent="0"/>
                <mxCell id="j7RQ6BH2698i7hh-zWel-1" value="" style="rounded=0;whiteSpace=wrap;html=1;" parent="1" vertex="1">
                    <mxGeometry width="850" height="520" as="geometry"/>
                </mxCell>
                <mxCell id="j7RQ6BH2698i7hh-zWel-2" value="kommentarfelt" style="rounded=0;whiteSpace=wrap;html=1;" parent="1" vertex="1">
                    <mxGeometry y="520" width="850" height="180" as="geometry"/>
                </mxCell>
                <mxCell id="j7RQ6BH2698i7hh-zWel-3" value="Film/Trailer -- Hentet fra YouTube?" style="rounded=0;whiteSpace=wrap;html=1;" parent="1" vertex="1">
                    <mxGeometry x="20" y="20" width="810" height="390" as="geometry"/>
                </mxCell>
                <mxCell id="j7RQ6BH2698i7hh-zWel-4" value="sjanger, årstall, navn, rating." style="text;html=1;strokeColor=none;fillColor=none;align=center;verticalAlign=middle;whiteSpace=wrap;rounded=0;" parent="1" vertex="1">
                    <mxGeometry x="20" y="420" width="810" height="90" as="geometry"/>
                </mxCell>
                <mxCell id="j7RQ6BH2698i7hh-zWel-5" value="diverse knapper, play, pause etc // Disse får du allerede med YouTube" style="text;html=1;strokeColor=none;fillColor=none;align=center;verticalAlign=middle;whiteSpace=wrap;rounded=0;" parent="1" vertex="1">
                    <mxGeometry x="30" y="370" width="790" height="30" as="geometry"/>
                </mxCell>
                <mxCell id="j7RQ6BH2698i7hh-zWel-6" value="knapp for å gå tilbake til hovedsiden?" style="text;html=1;strokeColor=none;fillColor=none;align=center;verticalAlign=middle;whiteSpace=wrap;rounded=0;" parent="1" vertex="1">
                    <mxGeometry x="580" y="30" width="270" height="30" as="geometry"/>
                </mxCell>
            </root>
        </mxGraphModel>
    </diagram>
    <diagram id="LZptNSSChPvMyUSnusKD" name="Humør">
        <mxGraphModel dx="1600" dy="988" grid="1" gridSize="10" guides="1" tooltips="1" connect="1" arrows="1" fold="1" page="1" pageScale="1" pageWidth="850" pageHeight="1100" math="0" shadow="0">
            <root>
                <mxCell id="0"/>
                <mxCell id="1" parent="0"/>
                <mxCell id="u8GVKst6o-sAvtIjBG1k-2" value="Moodmeter" style="swimlane;childLayout=stackLayout;resizeParent=1;resizeParentMax=0;horizontal=0;startSize=20;horizontalStack=0;html=1;hachureGap=4;fontFamily=Architects Daughter;fontSource=https%3A%2F%2Ffonts.googleapis.com%2Fcss%3Ffamily%3DArchitects%2BDaughter;fontSize=20;fillColor=#1BA1E2;fontColor=#ffffff;strokeColor=#006EAF;shadow=1;swimlaneFillColor=default;sketch=1;curveFitting=1;jiggle=2;container=0;" parent="1" vertex="1">
                    <mxGeometry x="40" y="730" width="480" height="360" as="geometry"/>
                </mxCell>
                <mxCell id="u8GVKst6o-sAvtIjBG1k-3" value="" style="group;sketch=1;curveFitting=1;jiggle=2;" parent="1" connectable="0" vertex="1">
                    <mxGeometry x="130" y="390" width="340" height="180" as="geometry"/>
                </mxCell>
                <mxCell id="u8GVKst6o-sAvtIjBG1k-4" value="Text" style="text;html=1;strokeColor=none;fillColor=none;align=center;verticalAlign=middle;whiteSpace=wrap;rounded=0;hachureGap=4;fontFamily=Architects Daughter;fontSource=https%3A%2F%2Ffonts.googleapis.com%2Fcss%3Ffamily%3DArchitects%2BDaughter;fontSize=20;sketch=1;curveFitting=1;jiggle=2;" parent="u8GVKst6o-sAvtIjBG1k-3" vertex="1">
                    <mxGeometry width="60" height="30" as="geometry"/>
                </mxCell>
                <mxCell id="u8GVKst6o-sAvtIjBG1k-5" value="Text" style="text;html=1;strokeColor=none;fillColor=none;align=center;verticalAlign=middle;whiteSpace=wrap;rounded=0;hachureGap=4;fontFamily=Architects Daughter;fontSource=https%3A%2F%2Ffonts.googleapis.com%2Fcss%3Ffamily%3DArchitects%2BDaughter;fontSize=20;sketch=1;curveFitting=1;jiggle=2;" parent="u8GVKst6o-sAvtIjBG1k-3" vertex="1">
                    <mxGeometry x="220" width="60" height="30" as="geometry"/>
                </mxCell>
                <mxCell id="u8GVKst6o-sAvtIjBG1k-6" value="" style="group;sketch=1;curveFitting=1;jiggle=2;" parent="u8GVKst6o-sAvtIjBG1k-3" connectable="0" vertex="1">
                    <mxGeometry x="-80" y="-240" width="420" height="420" as="geometry"/>
                </mxCell>
                <mxCell id="u8GVKst6o-sAvtIjBG1k-7" value="" style="shape=ext;double=1;rounded=0;whiteSpace=wrap;html=1;hachureGap=4;fontFamily=Architects Daughter;fontSource=https%3A%2F%2Ffonts.googleapis.com%2Fcss%3Ffamily%3DArchitects%2BDaughter;fontSize=20;sketch=1;curveFitting=1;jiggle=2;" parent="u8GVKst6o-sAvtIjBG1k-6" vertex="1">
                    <mxGeometry y="90" width="420" height="50" as="geometry"/>
                </mxCell>
                <mxCell id="u8GVKst6o-sAvtIjBG1k-8" value="" style="shape=ext;double=1;rounded=0;whiteSpace=wrap;html=1;hachureGap=4;fontFamily=Architects Daughter;fontSource=https%3A%2F%2Ffonts.googleapis.com%2Fcss%3Ffamily%3DArchitects%2BDaughter;fontSize=20;sketch=1;curveFitting=1;jiggle=2;" parent="u8GVKst6o-sAvtIjBG1k-6" vertex="1">
                    <mxGeometry y="160" width="420" height="50" as="geometry"/>
                </mxCell>
                <mxCell id="u8GVKst6o-sAvtIjBG1k-9" value="" style="shape=ext;double=1;rounded=0;whiteSpace=wrap;html=1;hachureGap=4;fontFamily=Architects Daughter;fontSource=https%3A%2F%2Ffonts.googleapis.com%2Fcss%3Ffamily%3DArchitects%2BDaughter;fontSize=20;sketch=1;curveFitting=1;jiggle=2;" parent="u8GVKst6o-sAvtIjBG1k-6" vertex="1">
                    <mxGeometry y="230" width="420" height="50" as="geometry"/>
                </mxCell>
                <mxCell id="u8GVKst6o-sAvtIjBG1k-10" value="" style="shape=ext;double=1;rounded=0;whiteSpace=wrap;html=1;hachureGap=4;fontFamily=Architects Daughter;fontSource=https%3A%2F%2Ffonts.googleapis.com%2Fcss%3Ffamily%3DArchitects%2BDaughter;fontSize=20;sketch=1;curveFitting=1;jiggle=2;" parent="u8GVKst6o-sAvtIjBG1k-6" vertex="1">
                    <mxGeometry y="300" width="420" height="50" as="geometry"/>
                </mxCell>
                <mxCell id="u8GVKst6o-sAvtIjBG1k-11" value="" style="shape=ext;double=1;rounded=0;whiteSpace=wrap;html=1;hachureGap=4;fontFamily=Architects Daughter;fontSource=https%3A%2F%2Ffonts.googleapis.com%2Fcss%3Ffamily%3DArchitects%2BDaughter;fontSize=20;sketch=1;curveFitting=1;jiggle=2;" parent="u8GVKst6o-sAvtIjBG1k-6" vertex="1">
                    <mxGeometry y="370" width="420" height="50" as="geometry"/>
                </mxCell>
                <mxCell id="u8GVKst6o-sAvtIjBG1k-12" value="" style="shape=actor;whiteSpace=wrap;html=1;hachureGap=4;fontFamily=Architects Daughter;fontSource=https%3A%2F%2Ffonts.googleapis.com%2Fcss%3Ffamily%3DArchitects%2BDaughter;fontSize=20;sketch=1;curveFitting=1;jiggle=2;" parent="u8GVKst6o-sAvtIjBG1k-6" vertex="1">
                    <mxGeometry width="40" height="60" as="geometry"/>
                </mxCell>
                <mxCell id="u8GVKst6o-sAvtIjBG1k-13" value="User Preferences" style="text;strokeColor=none;fillColor=none;html=1;fontSize=24;fontStyle=1;verticalAlign=middle;align=center;hachureGap=4;fontFamily=Architects Daughter;fontSource=https%3A%2F%2Ffonts.googleapis.com%2Fcss%3Ffamily%3DArchitects%2BDaughter;sketch=1;curveFitting=1;jiggle=2;" parent="u8GVKst6o-sAvtIjBG1k-6" vertex="1">
                    <mxGeometry x="80" y="10" width="330" height="50" as="geometry"/>
                </mxCell>
                <mxCell id="u8GVKst6o-sAvtIjBG1k-14" value="Happy" style="text;html=1;strokeColor=none;fillColor=none;align=center;verticalAlign=middle;whiteSpace=wrap;rounded=0;hachureGap=4;fontFamily=Architects Daughter;fontSource=https%3A%2F%2Ffonts.googleapis.com%2Fcss%3Ffamily%3DArchitects%2BDaughter;fontSize=20;sketch=1;curveFitting=1;jiggle=2;" parent="u8GVKst6o-sAvtIjBG1k-6" vertex="1">
                    <mxGeometry x="70" y="100" width="60" height="30" as="geometry"/>
                </mxCell>
                <mxCell id="u8GVKst6o-sAvtIjBG1k-15" value="Action" style="text;html=1;strokeColor=none;fillColor=none;align=center;verticalAlign=middle;whiteSpace=wrap;rounded=0;hachureGap=4;fontFamily=Architects Daughter;fontSource=https%3A%2F%2Ffonts.googleapis.com%2Fcss%3Ffamily%3DArchitects%2BDaughter;fontSize=20;sketch=1;curveFitting=1;jiggle=2;" parent="u8GVKst6o-sAvtIjBG1k-6" vertex="1">
                    <mxGeometry x="290" y="100" width="60" height="30" as="geometry"/>
                </mxCell>
                <mxCell id="u8GVKst6o-sAvtIjBG1k-16" value="" style="group;sketch=1;curveFitting=1;jiggle=2;" parent="u8GVKst6o-sAvtIjBG1k-6" connectable="0" vertex="1">
                    <mxGeometry x="60" y="170" width="280" height="30" as="geometry"/>
                </mxCell>
                <mxCell id="u8GVKst6o-sAvtIjBG1k-17" value="Drama" style="text;html=1;strokeColor=none;fillColor=none;align=center;verticalAlign=middle;whiteSpace=wrap;rounded=0;hachureGap=4;fontFamily=Architects Daughter;fontSource=https%3A%2F%2Ffonts.googleapis.com%2Fcss%3Ffamily%3DArchitects%2BDaughter;fontSize=20;sketch=1;curveFitting=1;jiggle=2;" parent="u8GVKst6o-sAvtIjBG1k-16" vertex="1">
                    <mxGeometry x="230" width="60" height="30" as="geometry"/>
                </mxCell>
                <mxCell id="u8GVKst6o-sAvtIjBG1k-18" value="Sad" style="text;html=1;strokeColor=none;fillColor=none;align=center;verticalAlign=middle;whiteSpace=wrap;rounded=0;hachureGap=4;fontFamily=Architects Daughter;fontSource=https%3A%2F%2Ffonts.googleapis.com%2Fcss%3Ffamily%3DArchitects%2BDaughter;fontSize=20;sketch=1;curveFitting=1;jiggle=2;" parent="u8GVKst6o-sAvtIjBG1k-16" vertex="1">
                    <mxGeometry x="10" width="60" height="30" as="geometry"/>
                </mxCell>
                <mxCell id="u8GVKst6o-sAvtIjBG1k-19" value="" style="endArrow=classic;html=1;hachureGap=4;fontFamily=Architects Daughter;fontSource=https%3A%2F%2Ffonts.googleapis.com%2Fcss%3Ffamily%3DArchitects%2BDaughter;fontSize=16;sketch=1;curveFitting=1;jiggle=2;" parent="u8GVKst6o-sAvtIjBG1k-16" edge="1">
                    <mxGeometry width="50" height="50" relative="1" as="geometry">
                        <mxPoint x="70" y="14.5" as="sourcePoint"/>
                        <mxPoint x="210" y="14.5" as="targetPoint"/>
                    </mxGeometry>
                </mxCell>
                <mxCell id="u8GVKst6o-sAvtIjBG1k-20" value="Lonely" style="text;html=1;strokeColor=none;fillColor=none;align=center;verticalAlign=middle;whiteSpace=wrap;rounded=0;hachureGap=4;fontFamily=Architects Daughter;fontSource=https%3A%2F%2Ffonts.googleapis.com%2Fcss%3Ffamily%3DArchitects%2BDaughter;fontSize=20;sketch=1;curveFitting=1;jiggle=2;" parent="u8GVKst6o-sAvtIjBG1k-6" vertex="1">
                    <mxGeometry x="70" y="240" width="60" height="30" as="geometry"/>
                </mxCell>
                <mxCell id="u8GVKst6o-sAvtIjBG1k-21" value="Comedy" style="text;html=1;strokeColor=none;fillColor=none;align=center;verticalAlign=middle;whiteSpace=wrap;rounded=0;hachureGap=4;fontFamily=Architects Daughter;fontSource=https%3A%2F%2Ffonts.googleapis.com%2Fcss%3Ffamily%3DArchitects%2BDaughter;fontSize=20;sketch=1;curveFitting=1;jiggle=2;" parent="u8GVKst6o-sAvtIjBG1k-6" vertex="1">
                    <mxGeometry x="290" y="240" width="60" height="30" as="geometry"/>
                </mxCell>
                <mxCell id="u8GVKst6o-sAvtIjBG1k-22" value="Angry" style="text;html=1;strokeColor=none;fillColor=none;align=center;verticalAlign=middle;whiteSpace=wrap;rounded=0;hachureGap=4;fontFamily=Architects Daughter;fontSource=https%3A%2F%2Ffonts.googleapis.com%2Fcss%3Ffamily%3DArchitects%2BDaughter;fontSize=20;sketch=1;curveFitting=1;jiggle=2;" parent="u8GVKst6o-sAvtIjBG1k-6" vertex="1">
                    <mxGeometry x="70" y="310" width="60" height="30" as="geometry"/>
                </mxCell>
                <mxCell id="u8GVKst6o-sAvtIjBG1k-23" value="Action" style="text;html=1;strokeColor=none;fillColor=none;align=center;verticalAlign=middle;whiteSpace=wrap;rounded=0;hachureGap=4;fontFamily=Architects Daughter;fontSource=https%3A%2F%2Ffonts.googleapis.com%2Fcss%3Ffamily%3DArchitects%2BDaughter;fontSize=20;sketch=1;curveFitting=1;jiggle=2;" parent="u8GVKst6o-sAvtIjBG1k-6" vertex="1">
                    <mxGeometry x="290" y="310" width="60" height="30" as="geometry"/>
                </mxCell>
                <mxCell id="u8GVKst6o-sAvtIjBG1k-24" value="In Love" style="text;html=1;strokeColor=none;fillColor=none;align=center;verticalAlign=middle;whiteSpace=wrap;rounded=0;hachureGap=4;fontFamily=Architects Daughter;fontSource=https%3A%2F%2Ffonts.googleapis.com%2Fcss%3Ffamily%3DArchitects%2BDaughter;fontSize=20;sketch=1;curveFitting=1;jiggle=2;" parent="u8GVKst6o-sAvtIjBG1k-6" vertex="1">
                    <mxGeometry x="70" y="380" width="70" height="30" as="geometry"/>
                </mxCell>
                <mxCell id="u8GVKst6o-sAvtIjBG1k-25" value="Romantic" style="text;html=1;strokeColor=none;fillColor=none;align=center;verticalAlign=middle;whiteSpace=wrap;rounded=0;hachureGap=4;fontFamily=Architects Daughter;fontSource=https%3A%2F%2Ffonts.googleapis.com%2Fcss%3Ffamily%3DArchitects%2BDaughter;fontSize=20;sketch=1;curveFitting=1;jiggle=2;" parent="u8GVKst6o-sAvtIjBG1k-6" vertex="1">
                    <mxGeometry x="290" y="380" width="60" height="30" as="geometry"/>
                </mxCell>
                <mxCell id="u8GVKst6o-sAvtIjBG1k-26" value="" style="endArrow=classic;html=1;hachureGap=4;fontFamily=Architects Daughter;fontSource=https%3A%2F%2Ffonts.googleapis.com%2Fcss%3Ffamily%3DArchitects%2BDaughter;fontSize=16;sketch=1;curveFitting=1;jiggle=2;" parent="u8GVKst6o-sAvtIjBG1k-6" edge="1">
                    <mxGeometry width="50" height="50" relative="1" as="geometry">
                        <mxPoint x="140" y="114.5" as="sourcePoint"/>
                        <mxPoint x="280" y="114.5" as="targetPoint"/>
                    </mxGeometry>
                </mxCell>
                <mxCell id="u8GVKst6o-sAvtIjBG1k-27" value="" style="endArrow=classic;html=1;hachureGap=4;fontFamily=Architects Daughter;fontSource=https%3A%2F%2Ffonts.googleapis.com%2Fcss%3Ffamily%3DArchitects%2BDaughter;fontSize=16;sketch=1;curveFitting=1;jiggle=2;" parent="u8GVKst6o-sAvtIjBG1k-6" edge="1">
                    <mxGeometry width="50" height="50" relative="1" as="geometry">
                        <mxPoint x="140" y="254.5" as="sourcePoint"/>
                        <mxPoint x="280" y="254.5" as="targetPoint"/>
                    </mxGeometry>
                </mxCell>
                <mxCell id="u8GVKst6o-sAvtIjBG1k-28" value="" style="endArrow=classic;html=1;hachureGap=4;fontFamily=Architects Daughter;fontSource=https%3A%2F%2Ffonts.googleapis.com%2Fcss%3Ffamily%3DArchitects%2BDaughter;fontSize=16;sketch=1;curveFitting=1;jiggle=2;" parent="u8GVKst6o-sAvtIjBG1k-6" edge="1">
                    <mxGeometry width="50" height="50" relative="1" as="geometry">
                        <mxPoint x="140" y="324.5" as="sourcePoint"/>
                        <mxPoint x="280" y="324.5" as="targetPoint"/>
                    </mxGeometry>
                </mxCell>
                <mxCell id="u8GVKst6o-sAvtIjBG1k-29" value="" style="endArrow=classic;html=1;hachureGap=4;fontFamily=Architects Daughter;fontSource=https%3A%2F%2Ffonts.googleapis.com%2Fcss%3Ffamily%3DArchitects%2BDaughter;fontSize=16;sketch=1;curveFitting=1;jiggle=2;" parent="u8GVKst6o-sAvtIjBG1k-6" edge="1">
                    <mxGeometry width="50" height="50" relative="1" as="geometry">
                        <mxPoint x="145" y="394.5" as="sourcePoint"/>
                        <mxPoint x="275" y="394.5" as="targetPoint"/>
                    </mxGeometry>
                </mxCell>
                <mxCell id="u8GVKst6o-sAvtIjBG1k-30" value="&lt;b&gt;Step 1&lt;/b&gt; - User sets its own preferences to&amp;nbsp; &amp;nbsp; &amp;nbsp; &amp;nbsp; &amp;nbsp; &amp;nbsp; which movies that should be&amp;nbsp; &amp;nbsp; &amp;nbsp; &amp;nbsp; &amp;nbsp;recommended dependent on their mood" style="text;html=1;strokeColor=none;fillColor=none;align=center;verticalAlign=middle;whiteSpace=wrap;rounded=0;shadow=1;hachureGap=4;fontFamily=Architects Daughter;fontSource=https%3A%2F%2Ffonts.googleapis.com%2Fcss%3Ffamily%3DArchitects%2BDaughter;fontSize=20;sketch=1;curveFitting=1;jiggle=2;" parent="1" vertex="1">
                    <mxGeometry x="40" y="70" width="450" height="60" as="geometry"/>
                </mxCell>
                <mxCell id="u8GVKst6o-sAvtIjBG1k-31" value="&lt;div style=&quot;text-align: left;&quot;&gt;&lt;span style=&quot;background-color: initial;&quot;&gt;&lt;b&gt;Step 2&lt;/b&gt; - The user gets three recommendations&amp;nbsp; &amp;nbsp; &amp;nbsp; &amp;nbsp; &amp;nbsp; &amp;nbsp; &amp;nbsp; &amp;nbsp;based on their own preferences&lt;/span&gt;&lt;/div&gt;" style="text;html=1;strokeColor=none;fillColor=none;align=center;verticalAlign=middle;whiteSpace=wrap;rounded=0;shadow=1;hachureGap=4;fontFamily=Architects Daughter;fontSource=https%3A%2F%2Ffonts.googleapis.com%2Fcss%3Ffamily%3DArchitects%2BDaughter;fontSize=20;sketch=1;curveFitting=1;jiggle=2;" parent="1" vertex="1">
                    <mxGeometry x="40" y="660" width="480" height="50" as="geometry"/>
                </mxCell>
                <mxCell id="u8GVKst6o-sAvtIjBG1k-32" value="" style="endArrow=none;html=1;hachureGap=4;fontFamily=Architects Daughter;fontSource=https%3A%2F%2Ffonts.googleapis.com%2Fcss%3Ffamily%3DArchitects%2BDaughter;fontSize=26;entryX=1;entryY=1;entryDx=0;entryDy=0;sketch=1;curveFitting=1;jiggle=2;" parent="1" edge="1">
                    <mxGeometry width="50" height="50" relative="1" as="geometry">
                        <mxPoint x="50" y="40" as="sourcePoint"/>
                        <mxPoint x="470" y="40" as="targetPoint"/>
                    </mxGeometry>
                </mxCell>
                <mxCell id="u8GVKst6o-sAvtIjBG1k-33" value="Option 1" style="swimlane;startSize=20;horizontal=0;html=1;hachureGap=4;fontFamily=Architects Daughter;fontSource=https%3A%2F%2Ffonts.googleapis.com%2Fcss%3Ffamily%3DArchitects%2BDaughter;fontSize=20;sketch=1;curveFitting=1;jiggle=2;" parent="1" vertex="1">
                    <mxGeometry x="60" y="730" width="460" height="120" as="geometry"/>
                </mxCell>
                <mxCell id="u8GVKst6o-sAvtIjBG1k-34" value="Movie 1" style="text;html=1;strokeColor=none;fillColor=none;align=center;verticalAlign=middle;whiteSpace=wrap;rounded=0;hachureGap=4;fontFamily=Architects Daughter;fontSource=https%3A%2F%2Ffonts.googleapis.com%2Fcss%3Ffamily%3DArchitects%2BDaughter;fontSize=20;sketch=1;curveFitting=1;jiggle=2;" parent="u8GVKst6o-sAvtIjBG1k-33" vertex="1">
                    <mxGeometry x="200" y="45" width="70" height="30" as="geometry"/>
                </mxCell>
                <mxCell id="u8GVKst6o-sAvtIjBG1k-35" value="Option 2" style="swimlane;startSize=20;horizontal=0;html=1;hachureGap=4;fontFamily=Architects Daughter;fontSource=https%3A%2F%2Ffonts.googleapis.com%2Fcss%3Ffamily%3DArchitects%2BDaughter;fontSize=20;sketch=1;curveFitting=1;jiggle=2;" parent="1" vertex="1">
                    <mxGeometry x="60" y="850" width="460" height="120" as="geometry"/>
                </mxCell>
                <mxCell id="u8GVKst6o-sAvtIjBG1k-36" value="Movie 2" style="text;html=1;strokeColor=none;fillColor=none;align=center;verticalAlign=middle;whiteSpace=wrap;rounded=0;hachureGap=4;fontFamily=Architects Daughter;fontSource=https%3A%2F%2Ffonts.googleapis.com%2Fcss%3Ffamily%3DArchitects%2BDaughter;fontSize=20;sketch=1;curveFitting=1;jiggle=2;" parent="u8GVKst6o-sAvtIjBG1k-35" vertex="1">
                    <mxGeometry x="200" y="45" width="80" height="30" as="geometry"/>
                </mxCell>
                <mxCell id="u8GVKst6o-sAvtIjBG1k-37" value="Option 3" style="swimlane;startSize=20;horizontal=0;html=1;hachureGap=4;fontFamily=Architects Daughter;fontSource=https%3A%2F%2Ffonts.googleapis.com%2Fcss%3Ffamily%3DArchitects%2BDaughter;fontSize=20;sketch=1;curveFitting=1;jiggle=2;" parent="1" vertex="1">
                    <mxGeometry x="60" y="970" width="460" height="120" as="geometry">
                        <mxRectangle x="20" y="240" width="460" height="40" as="alternateBounds"/>
                    </mxGeometry>
                </mxCell>
                <mxCell id="u8GVKst6o-sAvtIjBG1k-38" value="Movie 3" style="text;html=1;strokeColor=none;fillColor=none;align=center;verticalAlign=middle;whiteSpace=wrap;rounded=0;hachureGap=4;fontFamily=Architects Daughter;fontSource=https%3A%2F%2Ffonts.googleapis.com%2Fcss%3Ffamily%3DArchitects%2BDaughter;fontSize=20;sketch=1;curveFitting=1;jiggle=2;" parent="u8GVKst6o-sAvtIjBG1k-37" vertex="1">
                    <mxGeometry x="200" y="45" width="80" height="30" as="geometry"/>
                </mxCell>
                <mxCell id="u8GVKst6o-sAvtIjBG1k-40" value="&lt;b&gt;&lt;font style=&quot;font-size: 26px;&quot;&gt;&lt;i&gt;Mood&lt;/i&gt;&lt;/font&gt;&lt;/b&gt;" style="text;html=1;strokeColor=none;fillColor=none;align=center;verticalAlign=middle;whiteSpace=wrap;rounded=0;shadow=1;hachureGap=4;fontFamily=Architects Daughter;fontSource=https%3A%2F%2Ffonts.googleapis.com%2Fcss%3Ffamily%3DArchitects%2BDaughter;fontSize=20;sketch=1;curveFitting=1;jiggle=2;" parent="1" vertex="1">
                    <mxGeometry x="50" width="420" height="40" as="geometry"/>
                </mxCell>
            </root>
        </mxGraphModel>
    </diagram>
</mxfile>